<svg width="323" height="76" viewBox="0 0 323 76" fill="none" xmlns="http://www.w3.org/2000/svg">
<g filter="url(#filter0_d_339_655)">
<rect x="4.5" y="0.5" width="314" height="67" rx="4.5" fill="white" stroke="#F6F6F6"/>
<g clip-path="url(#clip0_339_655)">
<path fill-rule="evenodd" clip-rule="evenodd" d="M15.3166 20.6107C15.6819 20.6097 16.032 20.464 16.2903 20.2056C16.5485 19.9472 16.6939 19.597 16.6947 19.2316V17.8535H15.3166C14.9514 17.8542 14.6013 17.9995 14.3429 18.2576C14.0845 18.5156 13.9387 18.8655 13.9375 19.2307C13.9384 19.991 14.5553 20.6079 15.3156 20.6088L15.3166 20.6107ZM18.7684 17.8525C18.4031 17.8535 18.053 17.9992 17.7947 18.2576C17.5365 18.516 17.3911 18.8662 17.3903 19.2316V22.6844C17.3922 23.4447 18.0091 24.0607 18.7684 24.0625C19.1336 24.0615 19.4836 23.916 19.7418 23.6578C20.0001 23.3996 20.1456 23.0496 20.1466 22.6844V19.2307C20.1456 18.8655 20.0001 18.5155 19.7418 18.2573C19.4836 17.999 19.1336 17.8535 18.7684 17.8525Z" fill="#E01E5A"/>
<path fill-rule="evenodd" clip-rule="evenodd" d="M17.3903 12.3166C17.3913 13.0769 18.0081 13.6937 18.7684 13.6947H20.1466V12.3166C20.1458 11.9514 20.0005 11.6013 19.7425 11.3429C19.4844 11.0845 19.1346 10.9387 18.7694 10.9375C18.4042 10.9385 18.0542 11.084 17.796 11.3422C17.5378 11.6005 17.3922 11.9504 17.3913 12.3156L17.3903 12.3166ZM20.1466 15.7684C20.1456 15.4032 20.0001 15.0533 19.7418 14.795C19.4836 14.5368 19.1336 14.3913 18.7684 14.3903H15.3156C14.9504 14.3913 14.6005 14.5368 14.3422 14.795C14.084 15.0533 13.9385 15.4032 13.9375 15.7684C13.9394 16.5297 14.5563 17.1456 15.3156 17.1466H18.7694C19.1346 17.1456 19.4845 17.0001 19.7428 16.7418C20.001 16.4836 20.1456 16.1336 20.1466 15.7684Z" fill="#36C5F0"/>
<path fill-rule="evenodd" clip-rule="evenodd" d="M22.2327 17.1475C22.5979 17.1465 22.9478 17.001 23.206 16.7428C23.4643 16.4845 23.6098 16.1346 23.6108 15.7694V12.3156C23.6098 11.9506 23.4644 11.6008 23.2064 11.3426C22.9483 11.0844 22.5986 10.9387 22.2336 10.9375C21.8684 10.9385 21.5184 11.084 21.2602 11.3422C21.002 11.6005 20.8565 11.9504 20.8555 12.3156V15.7694C20.8573 16.5288 21.4723 17.1456 22.2327 17.1475ZM25.6845 14.3903C25.3193 14.3913 24.9694 14.5368 24.7111 14.795C24.4529 15.0533 24.3074 15.4032 24.3064 15.7684V17.1466H25.6845C26.0497 17.1458 26.3998 17.0005 26.6582 16.7425C26.9166 16.4844 27.0624 16.1346 27.0636 15.7694C27.0626 15.4042 26.9171 15.0542 26.6589 14.796C26.4006 14.5378 26.0507 14.3922 25.6855 14.3913L25.6845 14.3903Z" fill="#2EB67D"/>
<path fill-rule="evenodd" clip-rule="evenodd" d="M20.8516 19.2317C20.8534 19.992 21.4694 20.6089 22.2297 20.6098H25.6825C26.0475 20.6088 26.3974 20.4634 26.6556 20.2054C26.9138 19.9474 27.0594 19.5977 27.0606 19.2326C27.0596 18.8674 26.9141 18.5175 26.6559 18.2592C26.3977 18.001 26.0477 17.8555 25.6825 17.8545H22.2297C21.8645 17.8555 21.5145 18.001 21.2563 18.2592C20.9981 18.5175 20.8526 18.8665 20.8516 19.2317ZM23.6078 22.6836C23.6068 22.3184 23.4613 21.9684 23.2031 21.7102C22.9448 21.4519 22.5949 21.3064 22.2297 21.3054H20.8516V22.6836C20.8534 23.4448 21.4694 24.0607 22.2297 24.0617C22.5949 24.0607 22.9448 23.9152 23.2031 23.6569C23.4613 23.3987 23.6068 23.0488 23.6078 22.6836Z" fill="#ECB22E"/>
</g>
<path d="M37.858 15.5455C37.8153 15.1856 37.6425 14.9062 37.3395 14.7074C37.0365 14.5085 36.6648 14.4091 36.2244 14.4091C35.9025 14.4091 35.6207 14.4612 35.3793 14.5653C35.1402 14.6695 34.9531 14.8127 34.8182 14.995C34.6856 15.1773 34.6193 15.3845 34.6193 15.6165C34.6193 15.8106 34.6655 15.9775 34.7578 16.1172C34.8525 16.2545 34.9732 16.3693 35.12 16.4616C35.2668 16.5516 35.4207 16.6262 35.5817 16.6854C35.7427 16.7422 35.8906 16.7884 36.0256 16.8239L36.7642 17.0227C36.9536 17.0724 37.1643 17.1411 37.3963 17.2287C37.6307 17.3163 37.8544 17.4358 38.0675 17.5874C38.2829 17.7365 38.4605 17.9283 38.6001 18.1626C38.7398 18.397 38.8097 18.6847 38.8097 19.0256C38.8097 19.4186 38.7067 19.7737 38.5007 20.0909C38.2971 20.4081 37.9988 20.6603 37.6058 20.8473C37.2152 21.0343 36.7405 21.1278 36.1818 21.1278C35.661 21.1278 35.21 21.0438 34.8288 20.8757C34.45 20.7076 34.1518 20.4732 33.9339 20.1726C33.7185 19.8719 33.5966 19.5227 33.5682 19.125H34.4773C34.5009 19.3996 34.5933 19.6269 34.7543 19.8068C34.9176 19.9844 35.1236 20.117 35.3722 20.2045C35.6231 20.2898 35.893 20.3324 36.1818 20.3324C36.518 20.3324 36.8198 20.2779 37.0874 20.169C37.3549 20.0578 37.5668 19.9039 37.723 19.7074C37.8793 19.5085 37.9574 19.2765 37.9574 19.0114C37.9574 18.7699 37.8899 18.5734 37.755 18.4219C37.62 18.2704 37.4425 18.1473 37.2223 18.0526C37.0021 17.9579 36.7642 17.875 36.5085 17.804L35.6136 17.5483C35.0455 17.3849 34.5956 17.1518 34.2642 16.8487C33.9328 16.5457 33.767 16.1491 33.767 15.6591C33.767 15.2519 33.8771 14.8968 34.0973 14.5938C34.3198 14.2884 34.6181 14.0516 34.9922 13.8835C35.3686 13.7131 35.7888 13.6278 36.2528 13.6278C36.7216 13.6278 37.1383 13.7119 37.5028 13.88C37.8674 14.0457 38.1563 14.273 38.3693 14.5618C38.5848 14.8506 38.6984 15.1785 38.7102 15.5455H37.858ZM40.2576 21V13.7273H41.1383V20.2188H44.519V21H40.2576ZM46.6399 21H45.7166L48.3871 13.7273H49.2962L51.9666 21H51.0433L48.87 14.8778H48.8132L46.6399 21ZM46.9808 18.1591H50.7024V18.9403H46.9808V18.1591ZM58.6099 16H57.7292C57.6771 15.7467 57.586 15.5241 57.4558 15.3324C57.3279 15.1406 57.1717 14.9796 56.987 14.8494C56.8047 14.7169 56.6023 14.6174 56.3798 14.5511C56.1573 14.4848 55.9252 14.4517 55.6838 14.4517C55.2434 14.4517 54.8445 14.563 54.487 14.7855C54.1319 15.008 53.849 15.3359 53.6383 15.7692C53.43 16.2024 53.3258 16.7339 53.3258 17.3636C53.3258 17.9934 53.43 18.5249 53.6383 18.9581C53.849 19.3913 54.1319 19.7192 54.487 19.9418C54.8445 20.1643 55.2434 20.2756 55.6838 20.2756C55.9252 20.2756 56.1573 20.2424 56.3798 20.1761C56.6023 20.1098 56.8047 20.0116 56.987 19.8814C57.1717 19.7488 57.3279 19.5866 57.4558 19.3949C57.586 19.2008 57.6771 18.9782 57.7292 18.7273H58.6099C58.5436 19.099 58.4229 19.4316 58.2477 19.7251C58.0725 20.0187 57.8547 20.2685 57.5943 20.4744C57.3339 20.678 57.0415 20.8331 56.7172 20.9396C56.3952 21.0462 56.0507 21.0994 55.6838 21.0994C55.0635 21.0994 54.5119 20.9479 54.0289 20.6449C53.546 20.3419 53.166 19.911 52.889 19.3523C52.612 18.7936 52.4735 18.1307 52.4735 17.3636C52.4735 16.5966 52.612 15.9337 52.889 15.375C53.166 14.8163 53.546 14.3854 54.0289 14.0824C54.5119 13.7794 55.0635 13.6278 55.6838 13.6278C56.0507 13.6278 56.3952 13.6811 56.7172 13.7876C57.0415 13.8942 57.3339 14.0504 57.5943 14.2564C57.8547 14.46 58.0725 14.7086 58.2477 15.0021C58.4229 15.2933 58.5436 15.6259 58.6099 16ZM60.033 21V13.7273H60.9137V17.3352H60.9989L64.266 13.7273H65.4165L62.3626 17.0085L65.4165 21H64.3512L61.8228 17.6193L60.9137 18.642V21H60.033ZM69.5536 17.3636C69.5536 16.4687 69.6696 15.6461 69.9016 14.8956C70.136 14.1428 70.4698 13.4503 70.9031 12.8182H71.6417C71.4712 13.0526 71.3114 13.3414 71.1623 13.6847C71.0155 14.0256 70.8865 14.4008 70.7752 14.8104C70.6639 15.2176 70.5763 15.639 70.5124 16.0746C70.4509 16.5102 70.4201 16.9399 70.4201 17.3636C70.4201 17.9271 70.4746 18.4988 70.5835 19.0788C70.6924 19.6589 70.8391 20.1974 71.0238 20.6946C71.2085 21.1918 71.4144 21.5966 71.6417 21.9091H70.9031C70.4698 21.277 70.136 20.5857 69.9016 19.8352C69.6696 19.0824 69.5536 18.2585 69.5536 17.3636ZM75.2363 21H72.992V13.7273H75.3358C76.0413 13.7273 76.6449 13.8729 77.1468 14.1641C77.6487 14.4529 78.0334 14.8684 78.301 15.4105C78.5685 15.9503 78.7022 16.5966 78.7022 17.3494C78.7022 18.107 78.5673 18.7592 78.2974 19.3061C78.0275 19.8506 77.6345 20.2696 77.1184 20.5632C76.6023 20.8544 75.975 21 75.2363 21ZM73.8727 20.2188H75.1795C75.7808 20.2188 76.2792 20.1027 76.6745 19.8707C77.0699 19.6387 77.3646 19.3085 77.5588 18.88C77.7529 18.4515 77.85 17.9413 77.85 17.3494C77.85 16.7623 77.7541 16.2569 77.5623 15.8331C77.3706 15.407 77.0841 15.0803 76.7029 14.853C76.3218 14.6233 75.8471 14.5085 75.2789 14.5085H73.8727V20.2188ZM80.136 21H79.2127L81.8832 13.7273H82.7923L85.4627 21H84.5394L82.3661 14.8778H82.3093L80.136 21ZM80.4769 18.1591H84.1985V18.9403H80.4769V18.1591ZM85.3482 14.5085V13.7273H90.8027V14.5085H88.5158V21H87.6351V14.5085H85.3482ZM91.6106 21H90.6873L93.3578 13.7273H94.2669L96.9373 21H96.014L93.8407 14.8778H93.7839L91.6106 21ZM91.9515 18.1591H95.6731V18.9403H91.9515V18.1591ZM107.019 17.3636C107.019 18.1307 106.881 18.7936 106.604 19.3523C106.327 19.911 105.947 20.3419 105.464 20.6449C104.981 20.9479 104.429 21.0994 103.809 21.0994C103.189 21.0994 102.637 20.9479 102.154 20.6449C101.671 20.3419 101.291 19.911 101.014 19.3523C100.737 18.7936 100.599 18.1307 100.599 17.3636C100.599 16.5966 100.737 15.9337 101.014 15.375C101.291 14.8163 101.671 14.3854 102.154 14.0824C102.637 13.7794 103.189 13.6278 103.809 13.6278C104.429 13.6278 104.981 13.7794 105.464 14.0824C105.947 14.3854 106.327 14.8163 106.604 15.375C106.881 15.9337 107.019 16.5966 107.019 17.3636ZM106.167 17.3636C106.167 16.7339 106.061 16.2024 105.851 15.7692C105.642 15.3359 105.359 15.008 105.002 14.7855C104.647 14.563 104.249 14.4517 103.809 14.4517C103.368 14.4517 102.97 14.563 102.612 14.7855C102.257 15.008 101.974 15.3359 101.763 15.7692C101.555 16.2024 101.451 16.7339 101.451 17.3636C101.451 17.9934 101.555 18.5249 101.763 18.9581C101.974 19.3913 102.257 19.7192 102.612 19.9418C102.97 20.1643 103.368 20.2756 103.809 20.2756C104.249 20.2756 104.647 20.1643 105.002 19.9418C105.359 19.7192 105.642 19.3913 105.851 18.9581C106.061 18.5249 106.167 17.9934 106.167 17.3636ZM108.809 13.7273L110.684 16.7528H110.741L112.616 13.7273H113.653L111.366 17.3636L113.653 21H112.616L110.741 18.0312H110.684L108.809 21H107.772L110.116 17.3636L107.772 13.7273H108.809ZM116.475 17.3636C116.475 18.2585 116.358 19.0824 116.123 19.8352C115.891 20.5857 115.559 21.277 115.125 21.9091H114.387C114.557 21.6747 114.716 21.3859 114.863 21.0426C115.012 20.7017 115.142 20.3277 115.253 19.9205C115.364 19.5109 115.451 19.0883 115.512 18.6527C115.576 18.2147 115.608 17.785 115.608 17.3636C115.608 16.8002 115.554 16.2285 115.445 15.6484C115.336 15.0684 115.189 14.5298 115.005 14.0327C114.82 13.5355 114.614 13.1307 114.387 12.8182H115.125C115.559 13.4503 115.891 14.1428 116.123 14.8956C116.358 15.6461 116.475 16.4687 116.475 17.3636Z" fill="#8B8B8B"/>
<path d="M37.858 15.5455C37.8153 15.1856 37.6425 14.9062 37.3395 14.7074C37.0365 14.5085 36.6648 14.4091 36.2244 14.4091C35.9025 14.4091 35.6207 14.4612 35.3793 14.5653C35.1402 14.6695 34.9531 14.8127 34.8182 14.995C34.6856 15.1773 34.6193 15.3845 34.6193 15.6165C34.6193 15.8106 34.6655 15.9775 34.7578 16.1172C34.8525 16.2545 34.9732 16.3693 35.12 16.4616C35.2668 16.5516 35.4207 16.6262 35.5817 16.6854C35.7427 16.7422 35.8906 16.7884 36.0256 16.8239L36.7642 17.0227C36.9536 17.0724 37.1643 17.1411 37.3963 17.2287C37.6307 17.3163 37.8544 17.4358 38.0675 17.5874C38.2829 17.7365 38.4605 17.9283 38.6001 18.1626C38.7398 18.397 38.8097 18.6847 38.8097 19.0256C38.8097 19.4186 38.7067 19.7737 38.5007 20.0909C38.2971 20.4081 37.9988 20.6603 37.6058 20.8473C37.2152 21.0343 36.7405 21.1278 36.1818 21.1278C35.661 21.1278 35.21 21.0438 34.8288 20.8757C34.45 20.7076 34.1518 20.4732 33.9339 20.1726C33.7185 19.8719 33.5966 19.5227 33.5682 19.125H34.4773C34.5009 19.3996 34.5933 19.6269 34.7543 19.8068C34.9176 19.9844 35.1236 20.117 35.3722 20.2045C35.6231 20.2898 35.893 20.3324 36.1818 20.3324C36.518 20.3324 36.8198 20.2779 37.0874 20.169C37.3549 20.0578 37.5668 19.9039 37.723 19.7074C37.8793 19.5085 37.9574 19.2765 37.9574 19.0114C37.9574 18.7699 37.8899 18.5734 37.755 18.4219C37.62 18.2704 37.4425 18.1473 37.2223 18.0526C37.0021 17.9579 36.7642 17.875 36.5085 17.804L35.6136 17.5483C35.0455 17.3849 34.5956 17.1518 34.2642 16.8487C33.9328 16.5457 33.767 16.1491 33.767 15.6591C33.767 15.2519 33.8771 14.8968 34.0973 14.5938C34.3198 14.2884 34.6181 14.0516 34.9922 13.8835C35.3686 13.7131 35.7888 13.6278 36.2528 13.6278C36.7216 13.6278 37.1383 13.7119 37.5028 13.88C37.8674 14.0457 38.1563 14.273 38.3693 14.5618C38.5848 14.8506 38.6984 15.1785 38.7102 15.5455H37.858ZM40.2576 21V13.7273H41.1383V20.2188H44.519V21H40.2576ZM46.6399 21H45.7166L48.3871 13.7273H49.2962L51.9666 21H51.0433L48.87 14.8778H48.8132L46.6399 21ZM46.9808 18.1591H50.7024V18.9403H46.9808V18.1591ZM58.6099 16H57.7292C57.6771 15.7467 57.586 15.5241 57.4558 15.3324C57.3279 15.1406 57.1717 14.9796 56.987 14.8494C56.8047 14.7169 56.6023 14.6174 56.3798 14.5511C56.1573 14.4848 55.9252 14.4517 55.6838 14.4517C55.2434 14.4517 54.8445 14.563 54.487 14.7855C54.1319 15.008 53.849 15.3359 53.6383 15.7692C53.43 16.2024 53.3258 16.7339 53.3258 17.3636C53.3258 17.9934 53.43 18.5249 53.6383 18.9581C53.849 19.3913 54.1319 19.7192 54.487 19.9418C54.8445 20.1643 55.2434 20.2756 55.6838 20.2756C55.9252 20.2756 56.1573 20.2424 56.3798 20.1761C56.6023 20.1098 56.8047 20.0116 56.987 19.8814C57.1717 19.7488 57.3279 19.5866 57.4558 19.3949C57.586 19.2008 57.6771 18.9782 57.7292 18.7273H58.6099C58.5436 19.099 58.4229 19.4316 58.2477 19.7251C58.0725 20.0187 57.8547 20.2685 57.5943 20.4744C57.3339 20.678 57.0415 20.8331 56.7172 20.9396C56.3952 21.0462 56.0507 21.0994 55.6838 21.0994C55.0635 21.0994 54.5119 20.9479 54.0289 20.6449C53.546 20.3419 53.166 19.911 52.889 19.3523C52.612 18.7936 52.4735 18.1307 52.4735 17.3636C52.4735 16.5966 52.612 15.9337 52.889 15.375C53.166 14.8163 53.546 14.3854 54.0289 14.0824C54.5119 13.7794 55.0635 13.6278 55.6838 13.6278C56.0507 13.6278 56.3952 13.6811 56.7172 13.7876C57.0415 13.8942 57.3339 14.0504 57.5943 14.2564C57.8547 14.46 58.0725 14.7086 58.2477 15.0021C58.4229 15.2933 58.5436 15.6259 58.6099 16ZM60.033 21V13.7273H60.9137V17.3352H60.9989L64.266 13.7273H65.4165L62.3626 17.0085L65.4165 21H64.3512L61.8228 17.6193L60.9137 18.642V21H60.033ZM69.5536 17.3636C69.5536 16.4687 69.6696 15.6461 69.9016 14.8956C70.136 14.1428 70.4698 13.4503 70.9031 12.8182H71.6417C71.4712 13.0526 71.3114 13.3414 71.1623 13.6847C71.0155 14.0256 70.8865 14.4008 70.7752 14.8104C70.6639 15.2176 70.5763 15.639 70.5124 16.0746C70.4509 16.5102 70.4201 16.9399 70.4201 17.3636C70.4201 17.9271 70.4746 18.4988 70.5835 19.0788C70.6924 19.6589 70.8391 20.1974 71.0238 20.6946C71.2085 21.1918 71.4144 21.5966 71.6417 21.9091H70.9031C70.4698 21.277 70.136 20.5857 69.9016 19.8352C69.6696 19.0824 69.5536 18.2585 69.5536 17.3636ZM75.2363 21H72.992V13.7273H75.3358C76.0413 13.7273 76.6449 13.8729 77.1468 14.1641C77.6487 14.4529 78.0334 14.8684 78.301 15.4105C78.5685 15.9503 78.7022 16.5966 78.7022 17.3494C78.7022 18.107 78.5673 18.7592 78.2974 19.3061C78.0275 19.8506 77.6345 20.2696 77.1184 20.5632C76.6023 20.8544 75.975 21 75.2363 21ZM73.8727 20.2188H75.1795C75.7808 20.2188 76.2792 20.1027 76.6745 19.8707C77.0699 19.6387 77.3646 19.3085 77.5588 18.88C77.7529 18.4515 77.85 17.9413 77.85 17.3494C77.85 16.7623 77.7541 16.2569 77.5623 15.8331C77.3706 15.407 77.0841 15.0803 76.7029 14.853C76.3218 14.6233 75.8471 14.5085 75.2789 14.5085H73.8727V20.2188ZM80.136 21H79.2127L81.8832 13.7273H82.7923L85.4627 21H84.5394L82.3661 14.8778H82.3093L80.136 21ZM80.4769 18.1591H84.1985V18.9403H80.4769V18.1591ZM85.3482 14.5085V13.7273H90.8027V14.5085H88.5158V21H87.6351V14.5085H85.3482ZM91.6106 21H90.6873L93.3578 13.7273H94.2669L96.9373 21H96.014L93.8407 14.8778H93.7839L91.6106 21ZM91.9515 18.1591H95.6731V18.9403H91.9515V18.1591ZM107.019 17.3636C107.019 18.1307 106.881 18.7936 106.604 19.3523C106.327 19.911 105.947 20.3419 105.464 20.6449C104.981 20.9479 104.429 21.0994 103.809 21.0994C103.189 21.0994 102.637 20.9479 102.154 20.6449C101.671 20.3419 101.291 19.911 101.014 19.3523C100.737 18.7936 100.599 18.1307 100.599 17.3636C100.599 16.5966 100.737 15.9337 101.014 15.375C101.291 14.8163 101.671 14.3854 102.154 14.0824C102.637 13.7794 103.189 13.6278 103.809 13.6278C104.429 13.6278 104.981 13.7794 105.464 14.0824C105.947 14.3854 106.327 14.8163 106.604 15.375C106.881 15.9337 107.019 16.5966 107.019 17.3636ZM106.167 17.3636C106.167 16.7339 106.061 16.2024 105.851 15.7692C105.642 15.3359 105.359 15.008 105.002 14.7855C104.647 14.563 104.249 14.4517 103.809 14.4517C103.368 14.4517 102.97 14.563 102.612 14.7855C102.257 15.008 101.974 15.3359 101.763 15.7692C101.555 16.2024 101.451 16.7339 101.451 17.3636C101.451 17.9934 101.555 18.5249 101.763 18.9581C101.974 19.3913 102.257 19.7192 102.612 19.9418C102.97 20.1643 103.368 20.2756 103.809 20.2756C104.249 20.2756 104.647 20.1643 105.002 19.9418C105.359 19.7192 105.642 19.3913 105.851 18.9581C106.061 18.5249 106.167 17.9934 106.167 17.3636ZM108.809 13.7273L110.684 16.7528H110.741L112.616 13.7273H113.653L111.366 17.3636L113.653 21H112.616L110.741 18.0312H110.684L108.809 21H107.772L110.116 17.3636L107.772 13.7273H108.809ZM116.475 17.3636C116.475 18.2585 116.358 19.0824 116.123 19.8352C115.891 20.5857 115.559 21.277 115.125 21.9091H114.387C114.557 21.6747 114.716 21.3859 114.863 21.0426C115.012 20.7017 115.142 20.3277 115.253 19.9205C115.364 19.5109 115.451 19.0883 115.512 18.6527C115.576 18.2147 115.608 17.785 115.608 17.3636C115.608 16.8002 115.554 16.2285 115.445 15.6484C115.336 15.0684 115.189 14.5298 115.005 14.0327C114.82 13.5355 114.614 13.1307 114.387 12.8182H115.125C115.559 13.4503 115.891 14.1428 116.123 14.8956C116.358 15.6461 116.475 16.4687 116.475 17.3636Z" fill="#8B8B8B"/>
<path d="M289.648 12.7273V20H288.795L284.832 14.2898H284.761V20H283.881V12.7273H284.733L288.71 18.4517H288.781V12.7273H289.648ZM293.512 20.1136C293.02 20.1136 292.588 19.9964 292.216 19.7621C291.847 19.5277 291.558 19.1998 291.35 18.7784C291.144 18.357 291.041 17.8646 291.041 17.3011C291.041 16.733 291.144 16.237 291.35 15.8132C291.558 15.3894 291.847 15.0604 292.216 14.826C292.588 14.5916 293.02 14.4744 293.512 14.4744C294.005 14.4744 294.436 14.5916 294.805 14.826C295.177 15.0604 295.465 15.3894 295.671 15.8132C295.88 16.237 295.984 16.733 295.984 17.3011C295.984 17.8646 295.88 18.357 295.671 18.7784C295.465 19.1998 295.177 19.5277 294.805 19.7621C294.436 19.9964 294.005 20.1136 293.512 20.1136ZM293.512 19.3608C293.886 19.3608 294.194 19.2649 294.436 19.0732C294.677 18.8814 294.856 18.6293 294.972 18.3168C295.088 18.0043 295.146 17.6657 295.146 17.3011C295.146 16.9366 295.088 16.5968 294.972 16.282C294.856 15.9671 294.677 15.7126 294.436 15.5185C294.194 15.3243 293.886 15.2273 293.512 15.2273C293.138 15.2273 292.83 15.3243 292.589 15.5185C292.347 15.7126 292.169 15.9671 292.053 16.282C291.937 16.5968 291.879 16.9366 291.879 17.3011C291.879 17.6657 291.937 18.0043 292.053 18.3168C292.169 18.6293 292.347 18.8814 292.589 19.0732C292.83 19.2649 293.138 19.3608 293.512 19.3608ZM298.313 20L296.651 14.5455H297.532L298.711 18.7216H298.768L299.933 14.5455H300.828L301.978 18.7074H302.035L303.214 14.5455H304.095L302.433 20H301.609L300.416 15.8097H300.33L299.137 20H298.313Z" fill="#8B8B8B"/>
<path d="M38.8523 39C38.7741 38.7609 38.6712 38.5466 38.5433 38.3572C38.4179 38.1655 38.2675 38.0021 38.0923 37.8672C37.9195 37.7322 37.723 37.6293 37.5028 37.5582C37.2827 37.4872 37.0412 37.4517 36.7784 37.4517C36.3475 37.4517 35.9557 37.563 35.603 37.7855C35.2502 38.008 34.9697 38.3359 34.7614 38.7692C34.553 39.2024 34.4489 39.7339 34.4489 40.3636C34.4489 40.9934 34.5542 41.5249 34.7649 41.9581C34.9756 42.3913 35.2609 42.7192 35.6207 42.9418C35.9806 43.1643 36.3854 43.2756 36.8352 43.2756C37.2519 43.2756 37.6188 43.1868 37.9361 43.0092C38.2557 42.8293 38.5043 42.576 38.6818 42.2493C38.8617 41.9202 38.9517 41.5331 38.9517 41.0881L39.2216 41.1449H37.0341V40.3636H39.804V41.1449C39.804 41.7438 39.6761 42.2647 39.4205 42.7074C39.1671 43.1501 38.8168 43.4934 38.3693 43.7372C37.9242 43.9787 37.4129 44.0994 36.8352 44.0994C36.1913 44.0994 35.6255 43.9479 35.1378 43.6449C34.6525 43.3419 34.2737 42.911 34.0014 42.3523C33.7315 41.7936 33.5966 41.1307 33.5966 40.3636C33.5966 39.7884 33.6735 39.2711 33.8274 38.8118C33.9837 38.3501 34.2038 37.9571 34.4879 37.6328C34.772 37.3085 35.1082 37.0599 35.4964 36.8871C35.8847 36.7143 36.312 36.6278 36.7784 36.6278C37.1619 36.6278 37.5194 36.6858 37.8509 36.8018C38.1847 36.9155 38.4818 37.0777 38.7422 37.2884C39.005 37.4967 39.224 37.7464 39.3991 38.0376C39.5743 38.3265 39.6951 38.6473 39.7614 39H38.8523ZM44.6362 41.7699V38.5455H45.4743V44H44.6362V43.0767H44.5794C44.4515 43.3537 44.2527 43.5893 43.9828 43.7834C43.7129 43.9751 43.372 44.071 42.96 44.071C42.6191 44.071 42.3161 43.9964 42.051 43.8473C41.7858 43.6958 41.5775 43.4685 41.426 43.1655C41.2744 42.8601 41.1987 42.4754 41.1987 42.0114V38.5455H42.0368V41.9545C42.0368 42.3523 42.148 42.6695 42.3706 42.9062C42.5955 43.143 42.8819 43.2614 43.2299 43.2614C43.4383 43.2614 43.6502 43.2081 43.8656 43.1016C44.0834 42.995 44.2657 42.8317 44.4125 42.6115C44.5616 42.3913 44.6362 42.1108 44.6362 41.7699ZM47.549 46.0455C47.407 46.0455 47.2803 46.0336 47.169 46.0099C47.0578 45.9886 46.9808 45.9673 46.9382 45.946L47.1513 45.2074C47.3549 45.2595 47.5348 45.2784 47.6911 45.2642C47.8473 45.25 47.9858 45.1802 48.1065 45.0547C48.2296 44.9316 48.3421 44.7315 48.4439 44.4545L48.6001 44.0284L46.5831 38.5455H47.4922L48.9979 42.892H49.0547L50.5604 38.5455H51.4695L49.1541 44.7955C49.05 45.0772 48.9209 45.3104 48.767 45.495C48.6132 45.6821 48.4344 45.8205 48.2308 45.9105C48.0296 46.0005 47.8023 46.0455 47.549 46.0455ZM56.4393 39.767L55.6864 39.9801C55.6391 39.8546 55.5692 39.7327 55.4769 39.6143C55.387 39.4936 55.2638 39.3942 55.1076 39.3161C54.9513 39.2379 54.7513 39.1989 54.5075 39.1989C54.1737 39.1989 53.8955 39.2758 53.6729 39.4297C53.4528 39.5812 53.3427 39.7741 53.3427 40.0085C53.3427 40.2169 53.4184 40.3814 53.57 40.5021C53.7215 40.6229 53.9582 40.7235 54.2802 40.804L55.0898 41.0028C55.5775 41.1212 55.9409 41.3023 56.18 41.5462C56.4192 41.7876 56.5387 42.099 56.5387 42.4801C56.5387 42.7926 56.4487 43.072 56.2688 43.3182C56.0913 43.5644 55.8427 43.7585 55.5231 43.9006C55.2035 44.0426 54.8318 44.1136 54.408 44.1136C53.8517 44.1136 53.3912 43.9929 53.0266 43.7514C52.6621 43.5099 52.4312 43.1572 52.3342 42.6932L53.1296 42.4943C53.2054 42.7879 53.3486 43.008 53.5593 43.1548C53.7724 43.3016 54.0505 43.375 54.3938 43.375C54.7844 43.375 55.0946 43.2921 55.3242 43.1264C55.5562 42.9583 55.6722 42.7571 55.6722 42.5227C55.6722 42.3333 55.6059 42.1747 55.4734 42.0469C55.3408 41.9167 55.1372 41.8196 54.8626 41.7557L53.9535 41.5426C53.454 41.4242 53.087 41.2408 52.8526 40.9922C52.6206 40.7412 52.5046 40.4276 52.5046 40.0511C52.5046 39.7434 52.591 39.4711 52.7638 39.2344C52.939 38.9976 53.177 38.8118 53.4776 38.6768C53.7807 38.5419 54.1239 38.4744 54.5075 38.4744C55.0472 38.4744 55.471 38.5928 55.7788 38.8295C56.0889 39.0663 56.3091 39.3788 56.4393 39.767ZM59.0502 43.0057L58.9934 43.3892C58.9532 43.6591 58.8916 43.9479 58.8088 44.2557C58.7283 44.5634 58.6442 44.8535 58.5566 45.1257C58.469 45.398 58.3968 45.6146 58.34 45.7756H57.7008C57.7316 45.6241 57.7718 45.424 57.8216 45.1754C57.8713 44.9268 57.921 44.6487 57.9707 44.3409C58.0228 44.0355 58.0654 43.723 58.0985 43.4034L58.1412 43.0057H59.0502ZM64.6513 44L62.9893 38.5455H63.87L65.049 42.7216H65.1058L66.2706 38.5455H67.1655L68.3161 42.7074H68.3729L69.5518 38.5455H70.4325L68.7706 44H67.9467L66.7536 39.8097H66.6683L65.4751 44H64.6513ZM73.6419 44.1136C73.1163 44.1136 72.6629 43.9976 72.2818 43.7656C71.903 43.5312 71.6106 43.2045 71.4047 42.7855C71.2011 42.3641 71.0993 41.8741 71.0993 41.3153C71.0993 40.7566 71.2011 40.2642 71.4047 39.8381C71.6106 39.4096 71.8971 39.0758 72.264 38.8366C72.6333 38.5952 73.0642 38.4744 73.5566 38.4744C73.8407 38.4744 74.1213 38.5218 74.3983 38.6165C74.6752 38.7112 74.9274 38.8651 75.1547 39.0781C75.3819 39.2888 75.563 39.5682 75.698 39.9162C75.8329 40.2642 75.9004 40.6927 75.9004 41.2017V41.5568H71.6958V40.8324H75.0481C75.0481 40.5246 74.9866 40.25 74.8635 40.0085C74.7427 39.767 74.5699 39.5765 74.345 39.4368C74.1225 39.2971 73.8597 39.2273 73.5566 39.2273C73.2228 39.2273 72.934 39.3101 72.6902 39.4759C72.4487 39.6392 72.2628 39.8523 72.1326 40.1151C72.0024 40.3778 71.9373 40.6596 71.9373 40.9602V41.4432C71.9373 41.8551 72.0083 42.2043 72.1504 42.4908C72.2948 42.7749 72.4949 42.9915 72.7505 43.1406C73.0062 43.2874 73.3033 43.3608 73.6419 43.3608C73.862 43.3608 74.0609 43.33 74.2385 43.2685C74.4184 43.2045 74.5734 43.1098 74.7037 42.9844C74.8339 42.8565 74.9345 42.6979 75.0055 42.5085L75.8152 42.7358C75.7299 43.0104 75.5867 43.2519 75.3855 43.4602C75.1842 43.6662 74.9357 43.8272 74.6397 43.9432C74.3438 44.0568 74.0112 44.1136 73.6419 44.1136ZM77.2889 44V36.7273H78.127V39.4119H78.198C78.2595 39.3172 78.3448 39.1965 78.4537 39.0497C78.5649 38.9006 78.7235 38.768 78.9295 38.652C79.1378 38.5336 79.4196 38.4744 79.7747 38.4744C80.234 38.4744 80.6388 38.5893 80.9892 38.8189C81.3395 39.0485 81.613 39.3741 81.8095 39.7955C82.006 40.2169 82.1042 40.714 82.1042 41.2869C82.1042 41.8646 82.006 42.3653 81.8095 42.7891C81.613 43.2105 81.3407 43.5372 80.9927 43.7692C80.6447 43.9988 80.2434 44.1136 79.7889 44.1136C79.4385 44.1136 79.158 44.0556 78.9473 43.9396C78.7366 43.8213 78.5744 43.6875 78.4608 43.5384C78.3471 43.3868 78.2595 43.2614 78.198 43.1619H78.0985V44H77.2889ZM78.1127 41.2727C78.1127 41.6847 78.1731 42.0481 78.2939 42.3629C78.4146 42.6754 78.591 42.9205 78.823 43.098C79.055 43.2732 79.3391 43.3608 79.6752 43.3608C80.0256 43.3608 80.318 43.2685 80.5524 43.0838C80.7891 42.8968 80.9667 42.6458 81.085 42.331C81.2058 42.0137 81.2662 41.661 81.2662 41.2727C81.2662 40.8892 81.207 40.5436 81.0886 40.2358C80.9726 39.9257 80.7962 39.6806 80.5595 39.5007C80.3251 39.3184 80.0304 39.2273 79.6752 39.2273C79.3343 39.2273 79.0479 39.3137 78.8159 39.4865C78.5839 39.657 78.4087 39.8961 78.2903 40.2038C78.1719 40.5092 78.1127 40.8655 78.1127 41.2727ZM87.2498 39.767L86.497 39.9801C86.4496 39.8546 86.3798 39.7327 86.2875 39.6143C86.1975 39.4936 86.0744 39.3942 85.9181 39.3161C85.7619 39.2379 85.5618 39.1989 85.318 39.1989C84.9842 39.1989 84.706 39.2758 84.4835 39.4297C84.2633 39.5812 84.1532 39.7741 84.1532 40.0085C84.1532 40.2169 84.229 40.3814 84.3805 40.5021C84.532 40.6229 84.7688 40.7235 85.0907 40.804L85.9004 41.0028C86.3881 41.1212 86.7515 41.3023 86.9906 41.5462C87.2297 41.7876 87.3493 42.099 87.3493 42.4801C87.3493 42.7926 87.2593 43.072 87.0794 43.3182C86.9018 43.5644 86.6532 43.7585 86.3336 43.9006C86.014 44.0426 85.6423 44.1136 85.2186 44.1136C84.6622 44.1136 84.2018 43.9929 83.8372 43.7514C83.4726 43.5099 83.2418 43.1572 83.1447 42.6932L83.9402 42.4943C84.0159 42.7879 84.1592 43.008 84.3699 43.1548C84.5829 43.3016 84.8611 43.375 85.2044 43.375C85.595 43.375 85.9051 43.2921 86.1348 43.1264C86.3668 42.9583 86.4828 42.7571 86.4828 42.5227C86.4828 42.3333 86.4165 42.1747 86.2839 42.0469C86.1513 41.9167 85.9477 41.8196 85.6731 41.7557L84.764 41.5426C84.2645 41.4242 83.8975 41.2408 83.6632 40.9922C83.4312 40.7412 83.3152 40.4276 83.3152 40.0511C83.3152 39.7434 83.4016 39.4711 83.5744 39.2344C83.7496 38.9976 83.9875 38.8118 84.2882 38.6768C84.5912 38.5419 84.9345 38.4744 85.318 38.4744C85.8578 38.4744 86.2815 38.5928 86.5893 38.8295C86.8994 39.0663 87.1196 39.3788 87.2498 39.767ZM88.6108 44V38.5455H89.4489V44H88.6108ZM89.0369 37.6364C88.8736 37.6364 88.7327 37.5807 88.6143 37.4695C88.4983 37.3582 88.4403 37.2244 88.4403 37.0682C88.4403 36.9119 88.4983 36.7782 88.6143 36.6669C88.7327 36.5556 88.8736 36.5 89.0369 36.5C89.2003 36.5 89.34 36.5556 89.456 36.6669C89.5743 36.7782 89.6335 36.9119 89.6335 37.0682C89.6335 37.2244 89.5743 37.3582 89.456 37.4695C89.34 37.5807 89.2003 37.6364 89.0369 37.6364ZM93.356 38.5455V39.2557H90.5293V38.5455H93.356ZM91.3532 37.2386H92.1912V42.4375C92.1912 42.6742 92.2256 42.8518 92.2942 42.9702C92.3652 43.0862 92.4552 43.1643 92.5641 43.2045C92.6754 43.2424 92.7926 43.2614 92.9157 43.2614C93.008 43.2614 93.0837 43.2566 93.1429 43.2472C93.2021 43.2353 93.2495 43.2259 93.285 43.2188L93.4554 43.9716C93.3986 43.9929 93.3193 44.0142 93.2175 44.0355C93.1157 44.0592 92.9867 44.071 92.8304 44.071C92.5937 44.071 92.3617 44.0201 92.1344 43.9183C91.9095 43.8165 91.7225 43.6615 91.5733 43.4531C91.4266 43.2448 91.3532 42.982 91.3532 42.6648V37.2386ZM96.845 44.1136C96.3194 44.1136 95.8661 43.9976 95.4849 43.7656C95.1061 43.5312 94.8137 43.2045 94.6078 42.7855C94.4042 42.3641 94.3024 41.8741 94.3024 41.3153C94.3024 40.7566 94.4042 40.2642 94.6078 39.8381C94.8137 39.4096 95.1002 39.0758 95.4672 38.8366C95.8365 38.5952 96.2673 38.4744 96.7598 38.4744C97.0439 38.4744 97.3244 38.5218 97.6014 38.6165C97.8784 38.7112 98.1305 38.8651 98.3578 39.0781C98.585 39.2888 98.7662 39.5682 98.9011 39.9162C99.036 40.2642 99.1035 40.6927 99.1035 41.2017V41.5568H94.899V40.8324H98.2512C98.2512 40.5246 98.1897 40.25 98.0666 40.0085C97.9458 39.767 97.773 39.5765 97.5481 39.4368C97.3256 39.2971 97.0628 39.2273 96.7598 39.2273C96.426 39.2273 96.1371 39.3101 95.8933 39.4759C95.6518 39.6392 95.466 39.8523 95.3358 40.1151C95.2056 40.3778 95.1404 40.6596 95.1404 40.9602V41.4432C95.1404 41.8551 95.2115 42.2043 95.3535 42.4908C95.4979 42.7749 95.698 42.9915 95.9537 43.1406C96.2093 43.2874 96.5065 43.3608 96.845 43.3608C97.0652 43.3608 97.264 43.33 97.4416 43.2685C97.6215 43.2045 97.7766 43.1098 97.9068 42.9844C98.037 42.8565 98.1376 42.6979 98.2086 42.5085L99.0183 42.7358C98.9331 43.0104 98.7898 43.2519 98.5886 43.4602C98.3874 43.6662 98.1388 43.8272 97.8429 43.9432C97.5469 44.0568 97.2143 44.1136 96.845 44.1136ZM106.628 41.7699V38.5455H107.466V44H106.628V43.0767H106.572C106.444 43.3537 106.245 43.5893 105.975 43.7834C105.705 43.9751 105.364 44.071 104.952 44.071C104.611 44.071 104.308 43.9964 104.043 43.8473C103.778 43.6958 103.57 43.4685 103.418 43.1655C103.267 42.8601 103.191 42.4754 103.191 42.0114V38.5455H104.029V41.9545C104.029 42.3523 104.14 42.6695 104.363 42.9062C104.588 43.143 104.874 43.2614 105.222 43.2614C105.43 43.2614 105.642 43.2081 105.858 43.1016C106.076 42.995 106.258 42.8317 106.405 42.6115C106.554 42.3913 106.628 42.1108 106.628 41.7699ZM109.839 40.7188V44H109.001V38.5455H109.811V39.3977H109.882C110.01 39.1207 110.204 38.8982 110.464 38.7301C110.725 38.5597 111.061 38.4744 111.473 38.4744C111.842 38.4744 112.165 38.5502 112.442 38.7017C112.719 38.8509 112.935 39.0781 113.089 39.3835C113.243 39.6866 113.32 40.0701 113.32 40.5341V44H112.482V40.5909C112.482 40.1624 112.37 39.8286 112.148 39.5895C111.925 39.348 111.62 39.2273 111.232 39.2273C110.964 39.2273 110.725 39.2853 110.514 39.4013C110.306 39.5173 110.141 39.6866 110.021 39.9091C109.9 40.1316 109.839 40.4015 109.839 40.7188ZM116.456 44.1278C116.11 44.1278 115.797 44.0627 115.515 43.9325C115.233 43.8 115.01 43.6094 114.844 43.3608C114.678 43.1098 114.595 42.8068 114.595 42.4517C114.595 42.1392 114.657 41.8859 114.78 41.6918C114.903 41.4953 115.068 41.3414 115.274 41.2301C115.48 41.1188 115.707 41.036 115.955 40.9815C116.206 40.9247 116.459 40.8797 116.712 40.8466C117.043 40.804 117.312 40.772 117.518 40.7507C117.726 40.727 117.878 40.688 117.972 40.6335C118.07 40.5791 118.118 40.4844 118.118 40.3494V40.321C118.118 39.9706 118.022 39.6984 117.83 39.5043C117.641 39.3101 117.353 39.2131 116.968 39.2131C116.567 39.2131 116.254 39.3007 116.026 39.4759C115.799 39.651 115.639 39.8381 115.547 40.0369L114.752 39.7528C114.894 39.4214 115.083 39.1634 115.32 38.9787C115.559 38.7917 115.819 38.6615 116.101 38.5881C116.385 38.5123 116.664 38.4744 116.939 38.4744C117.114 38.4744 117.316 38.4957 117.543 38.5384C117.772 38.5786 117.994 38.6626 118.207 38.7905C118.422 38.9183 118.601 39.1113 118.743 39.3693C118.885 39.6274 118.956 39.973 118.956 40.4062V44H118.118V43.2614H118.075C118.019 43.3797 117.924 43.5064 117.791 43.6413C117.659 43.7763 117.482 43.8911 117.262 43.9858C117.042 44.0805 116.773 44.1278 116.456 44.1278ZM116.584 43.375C116.915 43.375 117.195 43.3099 117.422 43.1797C117.652 43.0495 117.825 42.8814 117.941 42.6754C118.059 42.4695 118.118 42.2528 118.118 42.0256V41.2585C118.083 41.3011 118.004 41.3402 117.884 41.3757C117.765 41.4089 117.628 41.4384 117.472 41.4645C117.318 41.4882 117.168 41.5095 117.021 41.5284C116.876 41.545 116.759 41.5592 116.669 41.571C116.451 41.5994 116.248 41.6456 116.058 41.7095C115.871 41.7711 115.72 41.8646 115.604 41.9901C115.49 42.1132 115.433 42.2812 115.433 42.4943C115.433 42.7855 115.541 43.0057 115.757 43.1548C115.974 43.3016 116.25 43.375 116.584 43.375ZM124.751 38.5455L122.734 44H121.881L119.864 38.5455H120.773L122.279 42.892H122.336L123.842 38.5455H124.751ZM127.296 44.1278C126.95 44.1278 126.637 44.0627 126.355 43.9325C126.073 43.8 125.849 43.6094 125.684 43.3608C125.518 43.1098 125.435 42.8068 125.435 42.4517C125.435 42.1392 125.497 41.8859 125.62 41.6918C125.743 41.4953 125.907 41.3414 126.113 41.2301C126.319 41.1188 126.547 41.036 126.795 40.9815C127.046 40.9247 127.298 40.8797 127.552 40.8466C127.883 40.804 128.152 40.772 128.358 40.7507C128.566 40.727 128.718 40.688 128.812 40.6335C128.909 40.5791 128.958 40.4844 128.958 40.3494V40.321C128.958 39.9706 128.862 39.6984 128.67 39.5043C128.481 39.3101 128.193 39.2131 127.807 39.2131C127.407 39.2131 127.094 39.3007 126.866 39.4759C126.639 39.651 126.479 39.8381 126.387 40.0369L125.591 39.7528C125.733 39.4214 125.923 39.1634 126.16 38.9787C126.399 38.7917 126.659 38.6615 126.941 38.5881C127.225 38.5123 127.504 38.4744 127.779 38.4744C127.954 38.4744 128.155 38.4957 128.383 38.5384C128.612 38.5786 128.834 38.6626 129.047 38.7905C129.262 38.9183 129.441 39.1113 129.583 39.3693C129.725 39.6274 129.796 39.973 129.796 40.4062V44H128.958V43.2614H128.915C128.858 43.3797 128.764 43.5064 128.631 43.6413C128.499 43.7763 128.322 43.8911 128.102 43.9858C127.882 44.0805 127.613 44.1278 127.296 44.1278ZM127.424 43.375C127.755 43.375 128.035 43.3099 128.262 43.1797C128.492 43.0495 128.664 42.8814 128.78 42.6754C128.899 42.4695 128.958 42.2528 128.958 42.0256V41.2585C128.922 41.3011 128.844 41.3402 128.724 41.3757C128.605 41.4089 128.468 41.4384 128.312 41.4645C128.158 41.4882 128.007 41.5095 127.861 41.5284C127.716 41.545 127.599 41.5592 127.509 41.571C127.291 41.5994 127.088 41.6456 126.898 41.7095C126.711 41.7711 126.56 41.8646 126.444 41.9901C126.33 42.1132 126.273 42.2812 126.273 42.4943C126.273 42.7855 126.381 43.0057 126.596 43.1548C126.814 43.3016 127.09 43.375 127.424 43.375ZM131.326 44V38.5455H132.164V44H131.326ZM131.752 37.6364C131.588 37.6364 131.448 37.5807 131.329 37.4695C131.213 37.3582 131.155 37.2244 131.155 37.0682C131.155 36.9119 131.213 36.7782 131.329 36.6669C131.448 36.5556 131.588 36.5 131.752 36.5C131.915 36.5 132.055 36.5556 132.171 36.6669C132.289 36.7782 132.348 36.9119 132.348 37.0682C132.348 37.2244 132.289 37.3582 132.171 37.4695C132.055 37.5807 131.915 37.6364 131.752 37.6364ZM134.537 36.7273V44H133.699V36.7273H134.537ZM137.677 44.1278C137.331 44.1278 137.018 44.0627 136.736 43.9325C136.454 43.8 136.23 43.6094 136.065 43.3608C135.899 43.1098 135.816 42.8068 135.816 42.4517C135.816 42.1392 135.878 41.8859 136.001 41.6918C136.124 41.4953 136.288 41.3414 136.494 41.2301C136.7 41.1188 136.928 41.036 137.176 40.9815C137.427 40.9247 137.679 40.8797 137.933 40.8466C138.264 40.804 138.533 40.772 138.739 40.7507C138.947 40.727 139.098 40.688 139.193 40.6335C139.29 40.5791 139.339 40.4844 139.339 40.3494V40.321C139.339 39.9706 139.243 39.6984 139.051 39.5043C138.862 39.3101 138.574 39.2131 138.188 39.2131C137.788 39.2131 137.474 39.3007 137.247 39.4759C137.02 39.651 136.86 39.8381 136.768 40.0369L135.972 39.7528C136.114 39.4214 136.304 39.1634 136.54 38.9787C136.78 38.7917 137.04 38.6615 137.322 38.5881C137.606 38.5123 137.885 38.4744 138.16 38.4744C138.335 38.4744 138.536 38.4957 138.763 38.5384C138.993 38.5786 139.214 38.6626 139.428 38.7905C139.643 38.9183 139.822 39.1113 139.964 39.3693C140.106 39.6274 140.177 39.973 140.177 40.4062V44H139.339V43.2614H139.296C139.239 43.3797 139.145 43.5064 139.012 43.6413C138.879 43.7763 138.703 43.8911 138.483 43.9858C138.263 44.0805 137.994 44.1278 137.677 44.1278ZM137.805 43.375C138.136 43.375 138.415 43.3099 138.643 43.1797C138.872 43.0495 139.045 42.8814 139.161 42.6754C139.28 42.4695 139.339 42.2528 139.339 42.0256V41.2585C139.303 41.3011 139.225 41.3402 139.104 41.3757C138.986 41.4089 138.849 41.4384 138.692 41.4645C138.539 41.4882 138.388 41.5095 138.241 41.5284C138.097 41.545 137.98 41.5592 137.89 41.571C137.672 41.5994 137.469 41.6456 137.279 41.7095C137.092 41.7711 136.941 41.8646 136.825 41.9901C136.711 42.1132 136.654 42.2812 136.654 42.4943C136.654 42.7855 136.762 43.0057 136.977 43.1548C137.195 43.3016 137.471 43.375 137.805 43.375ZM141.82 44V36.7273H142.658V39.4119H142.729C142.791 39.3172 142.876 39.1965 142.985 39.0497C143.096 38.9006 143.255 38.768 143.461 38.652C143.669 38.5336 143.951 38.4744 144.306 38.4744C144.765 38.4744 145.17 38.5893 145.52 38.8189C145.871 39.0485 146.144 39.3741 146.341 39.7955C146.537 40.2169 146.635 40.714 146.635 41.2869C146.635 41.8646 146.537 42.3653 146.341 42.7891C146.144 43.2105 145.872 43.5372 145.524 43.7692C145.176 43.9988 144.775 44.1136 144.32 44.1136C143.97 44.1136 143.689 44.0556 143.479 43.9396C143.268 43.8213 143.106 43.6875 142.992 43.5384C142.878 43.3868 142.791 43.2614 142.729 43.1619H142.63V44H141.82ZM142.644 41.2727C142.644 41.6847 142.704 42.0481 142.825 42.3629C142.946 42.6754 143.122 42.9205 143.354 43.098C143.586 43.2732 143.87 43.3608 144.206 43.3608C144.557 43.3608 144.849 43.2685 145.084 43.0838C145.32 42.8968 145.498 42.6458 145.616 42.331C145.737 42.0137 145.797 41.661 145.797 41.2727C145.797 40.8892 145.738 40.5436 145.62 40.2358C145.504 39.9257 145.327 39.6806 145.091 39.5007C144.856 39.3184 144.562 39.2273 144.206 39.2273C143.866 39.2273 143.579 39.3137 143.347 39.4865C143.115 39.657 142.94 39.8961 142.822 40.2038C142.703 40.5092 142.644 40.8655 142.644 41.2727ZM148.756 36.7273V44H147.917V36.7273H148.756ZM152.577 44.1136C152.052 44.1136 151.598 43.9976 151.217 43.7656C150.839 43.5312 150.546 43.2045 150.34 42.7855C150.137 42.3641 150.035 41.8741 150.035 41.3153C150.035 40.7566 150.137 40.2642 150.34 39.8381C150.546 39.4096 150.833 39.0758 151.2 38.8366C151.569 38.5952 152 38.4744 152.492 38.4744C152.776 38.4744 153.057 38.5218 153.334 38.6165C153.611 38.7112 153.863 38.8651 154.09 39.0781C154.317 39.2888 154.499 39.5682 154.634 39.9162C154.768 40.2642 154.836 40.6927 154.836 41.2017V41.5568H150.631V40.8324H153.984C153.984 40.5246 153.922 40.25 153.799 40.0085C153.678 39.767 153.505 39.5765 153.281 39.4368C153.058 39.2971 152.795 39.2273 152.492 39.2273C152.158 39.2273 151.87 39.3101 151.626 39.4759C151.384 39.6392 151.198 39.8523 151.068 40.1151C150.938 40.3778 150.873 40.6596 150.873 40.9602V41.4432C150.873 41.8551 150.944 42.2043 151.086 42.4908C151.23 42.7749 151.43 42.9915 151.686 43.1406C151.942 43.2874 152.239 43.3608 152.577 43.3608C152.798 43.3608 152.996 43.33 153.174 43.2685C153.354 43.2045 153.509 43.1098 153.639 42.9844C153.769 42.8565 153.87 42.6979 153.941 42.5085L154.751 42.7358C154.665 43.0104 154.522 43.2519 154.321 43.4602C154.12 43.6662 153.871 43.8272 153.575 43.9432C153.279 44.0568 152.947 44.1136 152.577 44.1136ZM158.923 44V38.5455H159.761V44H158.923ZM159.349 37.6364C159.186 37.6364 159.045 37.5807 158.927 37.4695C158.811 37.3582 158.753 37.2244 158.753 37.0682C158.753 36.9119 158.811 36.7782 158.927 36.6669C159.045 36.5556 159.186 36.5 159.349 36.5C159.513 36.5 159.652 36.5556 159.768 36.6669C159.887 36.7782 159.946 36.9119 159.946 37.0682C159.946 37.2244 159.887 37.3582 159.768 37.4695C159.652 37.5807 159.513 37.6364 159.349 37.6364ZM162.134 40.7188V44H161.296V38.5455H162.106V39.3977H162.177C162.305 39.1207 162.499 38.8982 162.759 38.7301C163.02 38.5597 163.356 38.4744 163.768 38.4744C164.137 38.4744 164.46 38.5502 164.737 38.7017C165.014 38.8509 165.23 39.0781 165.384 39.3835C165.538 39.6866 165.615 40.0701 165.615 40.5341V44H164.776V40.5909C164.776 40.1624 164.665 39.8286 164.443 39.5895C164.22 39.348 163.915 39.2273 163.526 39.2273C163.259 39.2273 163.02 39.2853 162.809 39.4013C162.601 39.5173 162.436 39.6866 162.316 39.9091C162.195 40.1316 162.134 40.4015 162.134 40.7188ZM170.953 36.7273V44H170.072V36.7273H170.953ZM174.977 38.5455V39.2557H172.15V38.5455H174.977ZM172.974 37.2386H173.812V42.4375C173.812 42.6742 173.847 42.8518 173.915 42.9702C173.986 43.0862 174.076 43.1643 174.185 43.2045C174.296 43.2424 174.414 43.2614 174.537 43.2614C174.629 43.2614 174.705 43.2566 174.764 43.2472C174.823 43.2353 174.871 43.2259 174.906 43.2188L175.077 43.9716C175.02 43.9929 174.94 44.0142 174.839 44.0355C174.737 44.0592 174.608 44.071 174.452 44.071C174.215 44.071 173.983 44.0201 173.756 43.9183C173.531 43.8165 173.344 43.6615 173.194 43.4531C173.048 43.2448 172.974 42.982 172.974 42.6648V37.2386ZM177.843 44.1278C177.497 44.1278 177.184 44.0627 176.902 43.9325C176.62 43.8 176.396 43.6094 176.231 43.3608C176.065 43.1098 175.982 42.8068 175.982 42.4517C175.982 42.1392 176.044 41.8859 176.167 41.6918C176.29 41.4953 176.454 41.3414 176.66 41.2301C176.866 41.1188 177.094 41.036 177.342 40.9815C177.593 40.9247 177.845 40.8797 178.099 40.8466C178.43 40.804 178.699 40.772 178.905 40.7507C179.113 40.727 179.265 40.688 179.359 40.6335C179.456 40.5791 179.505 40.4844 179.505 40.3494V40.321C179.505 39.9706 179.409 39.6984 179.217 39.5043C179.028 39.3101 178.74 39.2131 178.354 39.2131C177.954 39.2131 177.64 39.3007 177.413 39.4759C177.186 39.651 177.026 39.8381 176.934 40.0369L176.138 39.7528C176.28 39.4214 176.47 39.1634 176.706 38.9787C176.946 38.7917 177.206 38.6615 177.488 38.5881C177.772 38.5123 178.051 38.4744 178.326 38.4744C178.501 38.4744 178.702 38.4957 178.93 38.5384C179.159 38.5786 179.381 38.6626 179.594 38.7905C179.809 38.9183 179.988 39.1113 180.13 39.3693C180.272 39.6274 180.343 39.973 180.343 40.4062V44H179.505V43.2614H179.462C179.405 43.3797 179.311 43.5064 179.178 43.6413C179.046 43.7763 178.869 43.8911 178.649 43.9858C178.429 44.0805 178.16 44.1278 177.843 44.1278ZM177.971 43.375C178.302 43.375 178.581 43.3099 178.809 43.1797C179.038 43.0495 179.211 42.8814 179.327 42.6754C179.446 42.4695 179.505 42.2528 179.505 42.0256V41.2585C179.469 41.3011 179.391 41.3402 179.27 41.3757C179.152 41.4089 179.015 41.4384 178.858 41.4645C178.705 41.4882 178.554 41.5095 178.407 41.5284C178.263 41.545 178.146 41.5592 178.056 41.571C177.838 41.5994 177.635 41.6456 177.445 41.7095C177.258 41.7711 177.107 41.8646 176.991 41.9901C176.877 42.1132 176.82 42.2812 176.82 42.4943C176.82 42.7855 176.928 43.0057 177.143 43.1548C177.361 43.3016 177.637 43.375 177.971 43.375ZM182.711 36.7273V44H181.873V36.7273H182.711ZM184.785 46.0455C184.643 46.0455 184.517 46.0336 184.405 46.0099C184.294 45.9886 184.217 45.9673 184.175 45.946L184.388 45.2074C184.591 45.2595 184.771 45.2784 184.927 45.2642C185.084 45.25 185.222 45.1802 185.343 45.0547C185.466 44.9316 185.578 44.7315 185.68 44.4545L185.836 44.0284L183.819 38.5455H184.729L186.234 42.892H186.291L187.797 38.5455H188.706L186.39 44.7955C186.286 45.0772 186.157 45.3104 186.003 45.495C185.849 45.6821 185.671 45.8205 185.467 45.9105C185.266 46.0005 185.039 46.0455 184.785 46.0455ZM190.72 43.0057L190.663 43.3892C190.623 43.6591 190.562 43.9479 190.479 44.2557C190.398 44.5634 190.314 44.8535 190.227 45.1257C190.139 45.398 190.067 45.6146 190.01 45.7756H189.371C189.402 45.6241 189.442 45.424 189.491 45.1754C189.541 44.9268 189.591 44.6487 189.641 44.3409C189.693 44.0355 189.735 43.723 189.768 43.4034L189.811 43.0057H190.72ZM195.199 44V36.7273H197.656C198.225 36.7273 198.691 36.8243 199.056 37.0185C199.42 37.2102 199.69 37.4742 199.865 37.8104C200.04 38.1465 200.128 38.5289 200.128 38.9574C200.128 39.3859 200.04 39.7659 199.865 40.0973C199.69 40.4287 199.421 40.6892 199.059 40.8786C198.697 41.0656 198.234 41.1591 197.671 41.1591H195.682V40.3636H197.642C198.03 40.3636 198.343 40.3068 198.58 40.1932C198.819 40.0795 198.992 39.9186 199.098 39.7102C199.207 39.4995 199.262 39.2486 199.262 38.9574C199.262 38.6662 199.207 38.4117 199.098 38.1939C198.989 37.9761 198.815 37.808 198.576 37.6896C198.337 37.5689 198.021 37.5085 197.628 37.5085H196.08V44H195.199ZM198.622 40.733L200.412 44H199.389L197.628 40.733H198.622ZM203.639 44.1136C203.147 44.1136 202.715 43.9964 202.343 43.7621C201.974 43.5277 201.685 43.1998 201.477 42.7784C201.271 42.357 201.168 41.8646 201.168 41.3011C201.168 40.733 201.271 40.237 201.477 39.8132C201.685 39.3894 201.974 39.0604 202.343 38.826C202.715 38.5916 203.147 38.4744 203.639 38.4744C204.132 38.4744 204.563 38.5916 204.932 38.826C205.304 39.0604 205.592 39.3894 205.798 39.8132C206.007 40.237 206.111 40.733 206.111 41.3011C206.111 41.8646 206.007 42.357 205.798 42.7784C205.592 43.1998 205.304 43.5277 204.932 43.7621C204.563 43.9964 204.132 44.1136 203.639 44.1136ZM203.639 43.3608C204.013 43.3608 204.321 43.2649 204.562 43.0732C204.804 42.8814 204.983 42.6293 205.099 42.3168C205.215 42.0043 205.273 41.6657 205.273 41.3011C205.273 40.9366 205.215 40.5968 205.099 40.282C204.983 39.9671 204.804 39.7126 204.562 39.5185C204.321 39.3243 204.013 39.2273 203.639 39.2273C203.265 39.2273 202.957 39.3243 202.716 39.5185C202.474 39.7126 202.296 39.9671 202.18 40.282C202.064 40.5968 202.006 40.9366 202.006 41.3011C202.006 41.6657 202.064 42.0043 202.18 42.3168C202.296 42.6293 202.474 42.8814 202.716 43.0732C202.957 43.2649 203.265 43.3608 203.639 43.3608ZM207.39 44V38.5455H208.2V39.3977H208.271C208.384 39.1065 208.568 38.8804 208.821 38.7195C209.075 38.5561 209.379 38.4744 209.734 38.4744C210.094 38.4744 210.393 38.5561 210.632 38.7195C210.874 38.8804 211.062 39.1065 211.197 39.3977H211.254C211.393 39.116 211.603 38.8923 211.882 38.7266C212.162 38.5585 212.497 38.4744 212.887 38.4744C213.375 38.4744 213.774 38.6271 214.084 38.9325C214.394 39.2356 214.549 39.7079 214.549 40.3494V44H213.711V40.3494C213.711 39.947 213.601 39.6593 213.381 39.4865C213.161 39.3137 212.901 39.2273 212.603 39.2273C212.22 39.2273 211.923 39.3433 211.712 39.5753C211.501 39.8049 211.396 40.0961 211.396 40.4489V44H210.544V40.2642C210.544 39.9541 210.443 39.7043 210.242 39.5149C210.04 39.3232 209.781 39.2273 209.464 39.2273C209.246 39.2273 209.043 39.2853 208.853 39.4013C208.666 39.5173 208.515 39.6783 208.399 39.8842C208.285 40.0878 208.228 40.3234 208.228 40.5909V44H207.39ZM218.368 44.1136C217.843 44.1136 217.39 43.9976 217.008 43.7656C216.63 43.5312 216.337 43.2045 216.131 42.7855C215.928 42.3641 215.826 41.8741 215.826 41.3153C215.826 40.7566 215.928 40.2642 216.131 39.8381C216.337 39.4096 216.624 39.0758 216.991 38.8366C217.36 38.5952 217.791 38.4744 218.283 38.4744C218.567 38.4744 218.848 38.5218 219.125 38.6165C219.402 38.7112 219.654 38.8651 219.881 39.0781C220.108 39.2888 220.29 39.5682 220.425 39.9162C220.559 40.2642 220.627 40.6927 220.627 41.2017V41.5568H216.422V40.8324H219.775C219.775 40.5246 219.713 40.25 219.59 40.0085C219.469 39.767 219.296 39.5765 219.072 39.4368C218.849 39.2971 218.586 39.2273 218.283 39.2273C217.949 39.2273 217.661 39.3101 217.417 39.4759C217.175 39.6392 216.989 39.8523 216.859 40.1151C216.729 40.3778 216.664 40.6596 216.664 40.9602V41.4432C216.664 41.8551 216.735 42.2043 216.877 42.4908C217.021 42.7749 217.221 42.9915 217.477 43.1406C217.733 43.2874 218.03 43.3608 218.368 43.3608C218.589 43.3608 218.787 43.33 218.965 43.2685C219.145 43.2045 219.3 43.1098 219.43 42.9844C219.56 42.8565 219.661 42.6979 219.732 42.5085L220.542 42.7358C220.456 43.0104 220.313 43.2519 220.112 43.4602C219.911 43.6662 219.662 43.8272 219.366 43.9432C219.07 44.0568 218.738 44.1136 218.368 44.1136ZM222.513 44.0568C222.337 44.0568 222.187 43.9941 222.062 43.8686C221.936 43.7431 221.873 43.5928 221.873 43.4176C221.873 43.2424 221.936 43.0921 222.062 42.9666C222.187 42.8411 222.337 42.7784 222.513 42.7784C222.688 42.7784 222.838 42.8411 222.964 42.9666C223.089 43.0921 223.152 43.2424 223.152 43.4176C223.152 43.5336 223.122 43.6402 223.063 43.7372C223.006 43.8343 222.929 43.9124 222.832 43.9716C222.738 44.0284 222.631 44.0568 222.513 44.0568ZM228.463 36.7273V44H227.582V36.7273H228.463ZM232.487 38.5455V39.2557H229.66V38.5455H232.487ZM230.484 37.2386H231.322V42.4375C231.322 42.6742 231.356 42.8518 231.425 42.9702C231.496 43.0862 231.586 43.1643 231.695 43.2045C231.806 43.2424 231.923 43.2614 232.047 43.2614C232.139 43.2614 232.215 43.2566 232.274 43.2472C232.333 43.2353 232.38 43.2259 232.416 43.2188L232.586 43.9716C232.529 43.9929 232.45 44.0142 232.348 44.0355C232.247 44.0592 232.118 44.071 231.961 44.071C231.725 44.071 231.493 44.0201 231.265 43.9183C231.04 43.8165 230.853 43.6615 230.704 43.4531C230.557 43.2448 230.484 42.982 230.484 42.6648V37.2386ZM240.424 39.767L239.671 39.9801C239.623 39.8546 239.554 39.7327 239.461 39.6143C239.371 39.4936 239.248 39.3942 239.092 39.3161C238.936 39.2379 238.736 39.1989 238.492 39.1989C238.158 39.1989 237.88 39.2758 237.657 39.4297C237.437 39.5812 237.327 39.7741 237.327 40.0085C237.327 40.2169 237.403 40.3814 237.554 40.5021C237.706 40.6229 237.943 40.7235 238.265 40.804L239.074 41.0028C239.562 41.1212 239.925 41.3023 240.164 41.5462C240.404 41.7876 240.523 42.099 240.523 42.4801C240.523 42.7926 240.433 43.072 240.253 43.3182C240.076 43.5644 239.827 43.7585 239.507 43.9006C239.188 44.0426 238.816 44.1136 238.392 44.1136C237.836 44.1136 237.376 43.9929 237.011 43.7514C236.646 43.5099 236.416 43.1572 236.319 42.6932L237.114 42.4943C237.19 42.7879 237.333 43.008 237.544 43.1548C237.757 43.3016 238.035 43.375 238.378 43.375C238.769 43.375 239.079 43.2921 239.309 43.1264C239.541 42.9583 239.657 42.7571 239.657 42.5227C239.657 42.3333 239.59 42.1747 239.458 42.0469C239.325 41.9167 239.122 41.8196 238.847 41.7557L237.938 41.5426C237.438 41.4242 237.071 41.2408 236.837 40.9922C236.605 40.7412 236.489 40.4276 236.489 40.0511C236.489 39.7434 236.575 39.4711 236.748 39.2344C236.923 38.9976 237.161 38.8118 237.462 38.6768C237.765 38.5419 238.108 38.4744 238.492 38.4744C239.032 38.4744 239.455 38.5928 239.763 38.8295C240.073 39.0663 240.293 39.3788 240.424 39.767ZM244.072 44.1136C243.546 44.1136 243.093 43.9976 242.711 43.7656C242.333 43.5312 242.04 43.2045 241.834 42.7855C241.631 42.3641 241.529 41.8741 241.529 41.3153C241.529 40.7566 241.631 40.2642 241.834 39.8381C242.04 39.4096 242.327 39.0758 242.694 38.8366C243.063 38.5952 243.494 38.4744 243.986 38.4744C244.27 38.4744 244.551 38.5218 244.828 38.6165C245.105 38.7112 245.357 38.8651 245.584 39.0781C245.812 39.2888 245.993 39.5682 246.128 39.9162C246.263 40.2642 246.33 40.6927 246.33 41.2017V41.5568H242.126V40.8324H245.478C245.478 40.5246 245.416 40.25 245.293 40.0085C245.172 39.767 245 39.5765 244.775 39.4368C244.552 39.2971 244.289 39.2273 243.986 39.2273C243.653 39.2273 243.364 39.3101 243.12 39.4759C242.878 39.6392 242.693 39.8523 242.562 40.1151C242.432 40.3778 242.367 40.6596 242.367 40.9602V41.4432C242.367 41.8551 242.438 42.2043 242.58 42.4908C242.724 42.7749 242.925 42.9915 243.18 43.1406C243.436 43.2874 243.733 43.3608 244.072 43.3608C244.292 43.3608 244.491 43.33 244.668 43.2685C244.848 43.2045 245.003 43.1098 245.133 42.9844C245.264 42.8565 245.364 42.6979 245.435 42.5085L246.245 42.7358C246.16 43.0104 246.016 43.2519 245.815 43.4602C245.614 43.6662 245.365 43.8272 245.069 43.9432C244.773 44.0568 244.441 44.1136 244.072 44.1136ZM249.892 44.1136C249.366 44.1136 248.913 43.9976 248.532 43.7656C248.153 43.5312 247.861 43.2045 247.655 42.7855C247.451 42.3641 247.349 41.8741 247.349 41.3153C247.349 40.7566 247.451 40.2642 247.655 39.8381C247.861 39.4096 248.147 39.0758 248.514 38.8366C248.883 38.5952 249.314 38.4744 249.807 38.4744C250.091 38.4744 250.371 38.5218 250.648 38.6165C250.925 38.7112 251.177 38.8651 251.405 39.0781C251.632 39.2888 251.813 39.5682 251.948 39.9162C252.083 40.2642 252.15 40.6927 252.15 41.2017V41.5568H247.946V40.8324H251.298C251.298 40.5246 251.237 40.25 251.113 40.0085C250.993 39.767 250.82 39.5765 250.595 39.4368C250.372 39.2971 250.11 39.2273 249.807 39.2273C249.473 39.2273 249.184 39.3101 248.94 39.4759C248.699 39.6392 248.513 39.8523 248.383 40.1151C248.252 40.3778 248.187 40.6596 248.187 40.9602V41.4432C248.187 41.8551 248.258 42.2043 248.4 42.4908C248.545 42.7749 248.745 42.9915 249.001 43.1406C249.256 43.2874 249.553 43.3608 249.892 43.3608C250.112 43.3608 250.311 43.33 250.488 43.2685C250.668 43.2045 250.823 43.1098 250.954 42.9844C251.084 42.8565 251.184 42.6979 251.256 42.5085L252.065 42.7358C251.98 43.0104 251.837 43.2519 251.635 43.4602C251.434 43.6662 251.186 43.8272 250.89 43.9432C250.594 44.0568 250.261 44.1136 249.892 44.1136ZM253.425 44V38.5455H254.235V39.3977H254.306C254.42 39.1065 254.603 38.8804 254.856 38.7195C255.11 38.5561 255.414 38.4744 255.769 38.4744C256.129 38.4744 256.428 38.5561 256.667 38.7195C256.909 38.8804 257.097 39.1065 257.232 39.3977H257.289C257.429 39.116 257.638 38.8923 257.917 38.7266C258.197 38.5585 258.532 38.4744 258.922 38.4744C259.41 38.4744 259.809 38.6271 260.119 38.9325C260.429 39.2356 260.584 39.7079 260.584 40.3494V44H259.746V40.3494C259.746 39.947 259.636 39.6593 259.416 39.4865C259.196 39.3137 258.937 39.2273 258.638 39.2273C258.255 39.2273 257.958 39.3433 257.747 39.5753C257.536 39.8049 257.431 40.0961 257.431 40.4489V44H256.579V40.2642C256.579 39.9541 256.478 39.7043 256.277 39.5149C256.076 39.3232 255.816 39.2273 255.499 39.2273C255.281 39.2273 255.078 39.2853 254.888 39.4013C254.701 39.5173 254.55 39.6783 254.434 39.8842C254.32 40.0878 254.263 40.3234 254.263 40.5909V44H253.425ZM265.98 39.767L265.227 39.9801C265.18 39.8546 265.11 39.7327 265.018 39.6143C264.928 39.4936 264.805 39.3942 264.649 39.3161C264.492 39.2379 264.292 39.1989 264.048 39.1989C263.715 39.1989 263.436 39.2758 263.214 39.4297C262.994 39.5812 262.884 39.7741 262.884 40.0085C262.884 40.2169 262.959 40.3814 263.111 40.5021C263.262 40.6229 263.499 40.7235 263.821 40.804L264.631 41.0028C265.119 41.1212 265.482 41.3023 265.721 41.5462C265.96 41.7876 266.08 42.099 266.08 42.4801C266.08 42.7926 265.99 43.072 265.81 43.3182C265.632 43.5644 265.384 43.7585 265.064 43.9006C264.744 44.0426 264.373 44.1136 263.949 44.1136C263.393 44.1136 262.932 43.9929 262.568 43.7514C262.203 43.5099 261.972 43.1572 261.875 42.6932L262.671 42.4943C262.746 42.7879 262.89 43.008 263.1 43.1548C263.313 43.3016 263.592 43.375 263.935 43.375C264.325 43.375 264.636 43.2921 264.865 43.1264C265.097 42.9583 265.213 42.7571 265.213 42.5227C265.213 42.3333 265.147 42.1747 265.014 42.0469C264.882 41.9167 264.678 41.8196 264.404 41.7557L263.494 41.5426C262.995 41.4242 262.628 41.2408 262.394 40.9922C262.162 40.7412 262.046 40.4276 262.046 40.0511C262.046 39.7434 262.132 39.4711 262.305 39.2344C262.48 38.9976 262.718 38.8118 263.019 38.6768C263.322 38.5419 263.665 38.4744 264.048 38.4744C264.588 38.4744 265.012 38.5928 265.32 38.8295C265.63 39.0663 265.85 39.3788 265.98 39.767ZM35.8267 56.1136C35.3722 56.1136 34.9709 55.9988 34.6229 55.7692C34.2749 55.5372 34.0026 55.2105 33.8061 54.7891C33.6096 54.3653 33.5114 53.8646 33.5114 53.2869C33.5114 52.714 33.6096 52.2169 33.8061 51.7955C34.0026 51.3741 34.276 51.0485 34.6264 50.8189C34.9768 50.5893 35.3816 50.4744 35.8409 50.4744C36.196 50.4744 36.4766 50.5336 36.6825 50.652C36.8909 50.768 37.0495 50.9006 37.1584 51.0497C37.2696 51.1965 37.3561 51.3172 37.4176 51.4119H37.4886V48.7273H38.3267V56H37.517V55.1619H37.4176C37.3561 55.2614 37.2685 55.3868 37.1548 55.5384C37.0412 55.6875 36.879 55.8213 36.6683 55.9396C36.4576 56.0556 36.1771 56.1136 35.8267 56.1136ZM35.9403 55.3608C36.2765 55.3608 36.5606 55.2732 36.7926 55.098C37.0246 54.9205 37.201 54.6754 37.3217 54.3629C37.4425 54.0481 37.5028 53.6847 37.5028 53.2727C37.5028 52.8655 37.4437 52.5092 37.3253 52.2038C37.2069 51.8961 37.0317 51.657 36.7997 51.4865C36.5677 51.3137 36.2813 51.2273 35.9403 51.2273C35.5852 51.2273 35.2893 51.3184 35.0526 51.5007C34.8182 51.6806 34.6418 51.9257 34.5234 52.2358C34.4074 52.5436 34.3494 52.8892 34.3494 53.2727C34.3494 53.661 34.4086 54.0137 34.527 54.331C34.6477 54.6458 34.8253 54.8968 35.0597 55.0838C35.2964 55.2685 35.59 55.3608 35.9403 55.3608ZM43.4155 53.7699V50.5455H44.2536V56H43.4155V55.0767H43.3587C43.2308 55.3537 43.032 55.5893 42.7621 55.7834C42.4922 55.9751 42.1513 56.071 41.7393 56.071C41.3984 56.071 41.0954 55.9964 40.8303 55.8473C40.5651 55.6958 40.3568 55.4685 40.2053 55.1655C40.0537 54.8601 39.978 54.4754 39.978 54.0114V50.5455H40.8161V53.9545C40.8161 54.3523 40.9273 54.6695 41.1499 54.9062C41.3748 55.143 41.6612 55.2614 42.0092 55.2614C42.2176 55.2614 42.4295 55.2081 42.6449 55.1016C42.8627 54.995 43.045 54.8317 43.1918 54.6115C43.3409 54.3913 43.4155 54.1108 43.4155 53.7699ZM48.0755 56.1136C47.5499 56.1136 47.0965 55.9976 46.7154 55.7656C46.3366 55.5312 46.0442 55.2045 45.8382 54.7855C45.6346 54.3641 45.5328 53.8741 45.5328 53.3153C45.5328 52.7566 45.6346 52.2642 45.8382 51.8381C46.0442 51.4096 46.3307 51.0758 46.6976 50.8366C47.0669 50.5952 47.4978 50.4744 47.9902 50.4744C48.2743 50.4744 48.5549 50.5218 48.8319 50.6165C49.1088 50.7112 49.361 50.8651 49.5882 51.0781C49.8155 51.2888 49.9966 51.5682 50.1316 51.9162C50.2665 52.2642 50.334 52.6927 50.334 53.2017V53.5568H46.1294V52.8324H49.4817C49.4817 52.5246 49.4202 52.25 49.2971 52.0085C49.1763 51.767 49.0035 51.5765 48.7786 51.4368C48.556 51.2971 48.2933 51.2273 47.9902 51.2273C47.6564 51.2273 47.3676 51.3101 47.1238 51.4759C46.8823 51.6392 46.6964 51.8523 46.5662 52.1151C46.436 52.3778 46.3709 52.6596 46.3709 52.9602V53.4432C46.3709 53.8551 46.4419 54.2043 46.584 54.4908C46.7284 54.7749 46.9284 54.9915 47.1841 55.1406C47.4398 55.2874 47.7369 55.3608 48.0755 55.3608C48.2956 55.3608 48.4945 55.33 48.6721 55.2685C48.852 55.2045 49.007 55.1098 49.1373 54.9844C49.2675 54.8565 49.3681 54.6979 49.4391 54.5085L50.2488 54.7358C50.1635 55.0104 50.0203 55.2519 49.8191 55.4602C49.6178 55.6662 49.3693 55.8272 49.0733 55.9432C48.7774 56.0568 48.4448 56.1136 48.0755 56.1136ZM56.7935 50.5455V51.2557H53.9668V50.5455H56.7935ZM54.7907 49.2386H55.6287V54.4375C55.6287 54.6742 55.6631 54.8518 55.7317 54.9702C55.8027 55.0862 55.8927 55.1643 56.0016 55.2045C56.1129 55.2424 56.2301 55.2614 56.3532 55.2614C56.4455 55.2614 56.5212 55.2566 56.5804 55.2472C56.6396 55.2353 56.687 55.2259 56.7225 55.2188L56.8929 55.9716C56.8361 55.9929 56.7568 56.0142 56.655 56.0355C56.5532 56.0592 56.4242 56.071 56.2679 56.071C56.0312 56.071 55.7992 56.0201 55.5719 55.9183C55.347 55.8165 55.16 55.6615 55.0108 55.4531C54.8641 55.2448 54.7907 54.982 54.7907 54.6648V49.2386ZM60.2115 56.1136C59.719 56.1136 59.287 55.9964 58.9153 55.7621C58.546 55.5277 58.2572 55.1998 58.0488 54.7784C57.8429 54.357 57.7399 53.8646 57.7399 53.3011C57.7399 52.733 57.8429 52.237 58.0488 51.8132C58.2572 51.3894 58.546 51.0604 58.9153 50.826C59.287 50.5916 59.719 50.4744 60.2115 50.4744C60.7039 50.4744 61.1348 50.5916 61.5041 50.826C61.8758 51.0604 62.1646 51.3894 62.3706 51.8132C62.5789 52.237 62.6831 52.733 62.6831 53.3011C62.6831 53.8646 62.5789 54.357 62.3706 54.7784C62.1646 55.1998 61.8758 55.5277 61.5041 55.7621C61.1348 55.9964 60.7039 56.1136 60.2115 56.1136ZM60.2115 55.3608C60.5855 55.3608 60.8933 55.2649 61.1348 55.0732C61.3762 54.8814 61.555 54.6293 61.671 54.3168C61.787 54.0043 61.845 53.6657 61.845 53.3011C61.845 52.9366 61.787 52.5968 61.671 52.282C61.555 51.9671 61.3762 51.7126 61.1348 51.5185C60.8933 51.3243 60.5855 51.2273 60.2115 51.2273C59.8374 51.2273 59.5297 51.3243 59.2882 51.5185C59.0467 51.7126 58.868 51.9671 58.752 52.282C58.6359 52.5968 58.5779 52.9366 58.5779 53.3011C58.5779 53.6657 58.6359 54.0043 58.752 54.3168C58.868 54.6293 59.0467 54.8814 59.2882 55.0732C59.5297 55.2649 59.8374 55.3608 60.2115 55.3608ZM70.6385 51.767L69.8857 51.9801C69.8383 51.8546 69.7685 51.7327 69.6761 51.6143C69.5862 51.4936 69.4631 51.3942 69.3068 51.3161C69.1506 51.2379 68.9505 51.1989 68.7067 51.1989C68.3729 51.1989 68.0947 51.2758 67.8722 51.4297C67.652 51.5812 67.5419 51.7741 67.5419 52.0085C67.5419 52.2169 67.6177 52.3814 67.7692 52.5021C67.9207 52.6229 68.1574 52.7235 68.4794 52.804L69.2891 53.0028C69.7768 53.1212 70.1402 53.3023 70.3793 53.5462C70.6184 53.7876 70.7379 54.099 70.7379 54.4801C70.7379 54.7926 70.648 55.072 70.468 55.3182C70.2905 55.5644 70.0419 55.7585 69.7223 55.9006C69.4027 56.0426 69.031 56.1136 68.6072 56.1136C68.0509 56.1136 67.5904 55.9929 67.2259 55.7514C66.8613 55.5099 66.6304 55.1572 66.5334 54.6932L67.3288 54.4943C67.4046 54.7879 67.5478 55.008 67.7585 55.1548C67.9716 55.3016 68.2498 55.375 68.593 55.375C68.9837 55.375 69.2938 55.2921 69.5234 55.1264C69.7554 54.9583 69.8714 54.7571 69.8714 54.5227C69.8714 54.3333 69.8052 54.1747 69.6726 54.0469C69.54 53.9167 69.3364 53.8196 69.0618 53.7557L68.1527 53.5426C67.6532 53.4242 67.2862 53.2408 67.0518 52.9922C66.8198 52.7412 66.7038 52.4276 66.7038 52.0511C66.7038 51.7434 66.7902 51.4711 66.9631 51.2344C67.1383 50.9976 67.3762 50.8118 67.6768 50.6768C67.9799 50.5419 68.3232 50.4744 68.7067 50.4744C69.2464 50.4744 69.6702 50.5928 69.978 50.8295C70.2881 51.0663 70.5083 51.3788 70.6385 51.767ZM74.2154 56.1136C73.723 56.1136 73.2909 55.9964 72.9192 55.7621C72.5499 55.5277 72.2611 55.1998 72.0527 54.7784C71.8468 54.357 71.7438 53.8646 71.7438 53.3011C71.7438 52.733 71.8468 52.237 72.0527 51.8132C72.2611 51.3894 72.5499 51.0604 72.9192 50.826C73.2909 50.5916 73.723 50.4744 74.2154 50.4744C74.7078 50.4744 75.1387 50.5916 75.508 50.826C75.8797 51.0604 76.1685 51.3894 76.3745 51.8132C76.5828 52.237 76.687 52.733 76.687 53.3011C76.687 53.8646 76.5828 54.357 76.3745 54.7784C76.1685 55.1998 75.8797 55.5277 75.508 55.7621C75.1387 55.9964 74.7078 56.1136 74.2154 56.1136ZM74.2154 55.3608C74.5894 55.3608 74.8972 55.2649 75.1387 55.0732C75.3801 54.8814 75.5589 54.6293 75.6749 54.3168C75.7909 54.0043 75.8489 53.6657 75.8489 53.3011C75.8489 52.9366 75.7909 52.5968 75.6749 52.282C75.5589 51.9671 75.3801 51.7126 75.1387 51.5185C74.8972 51.3243 74.5894 51.2273 74.2154 51.2273C73.8413 51.2273 73.5336 51.3243 73.2921 51.5185C73.0506 51.7126 72.8719 51.9671 72.7559 52.282C72.6399 52.5968 72.5819 52.9366 72.5819 53.3011C72.5819 53.6657 72.6399 54.0043 72.7559 54.3168C72.8719 54.6293 73.0506 54.8814 73.2921 55.0732C73.5336 55.2649 73.8413 55.3608 74.2154 55.3608ZM77.9663 56V50.5455H78.7759V51.3977H78.8469C78.9606 51.1065 79.1441 50.8804 79.3974 50.7195C79.6507 50.5561 79.9549 50.4744 80.31 50.4744C80.6699 50.4744 80.9693 50.5561 81.2085 50.7195C81.4499 50.8804 81.6381 51.1065 81.7731 51.3977H81.8299C81.9696 51.116 82.1791 50.8923 82.4585 50.7266C82.7378 50.5585 83.0728 50.4744 83.4634 50.4744C83.9511 50.4744 84.35 50.6271 84.6602 50.9325C84.9703 51.2356 85.1254 51.7079 85.1254 52.3494V56H84.2873V52.3494C84.2873 51.947 84.1772 51.6593 83.957 51.4865C83.7369 51.3137 83.4776 51.2273 83.1793 51.2273C82.7958 51.2273 82.4987 51.3433 82.288 51.5753C82.0773 51.8049 81.9719 52.0961 81.9719 52.4489V56H81.1197V52.2642C81.1197 51.9541 81.0191 51.7043 80.8178 51.5149C80.6166 51.3232 80.3574 51.2273 80.0401 51.2273C79.8223 51.2273 79.6187 51.2853 79.4293 51.4013C79.2423 51.5173 79.0908 51.6783 78.9748 51.8842C78.8612 52.0878 78.8043 52.3234 78.8043 52.5909V56H77.9663ZM88.9446 56.1136C88.419 56.1136 87.9657 55.9976 87.5845 55.7656C87.2057 55.5312 86.9134 55.2045 86.7074 54.7855C86.5038 54.3641 86.402 53.8741 86.402 53.3153C86.402 52.7566 86.5038 52.2642 86.7074 51.8381C86.9134 51.4096 87.1998 51.0758 87.5668 50.8366C87.9361 50.5952 88.367 50.4744 88.8594 50.4744C89.1435 50.4744 89.424 50.5218 89.701 50.6165C89.978 50.7112 90.2301 50.8651 90.4574 51.0781C90.6847 51.2888 90.8658 51.5682 91.0007 51.9162C91.1357 52.2642 91.2031 52.6927 91.2031 53.2017V53.5568H86.9986V52.8324H90.3509C90.3509 52.5246 90.2893 52.25 90.1662 52.0085C90.0455 51.767 89.8726 51.5765 89.6477 51.4368C89.4252 51.2971 89.1624 51.2273 88.8594 51.2273C88.5256 51.2273 88.2367 51.3101 87.9929 51.4759C87.7514 51.6392 87.5656 51.8523 87.4354 52.1151C87.3052 52.3778 87.2401 52.6596 87.2401 52.9602V53.4432C87.2401 53.8551 87.3111 54.2043 87.4531 54.4908C87.5975 54.7749 87.7976 54.9915 88.0533 55.1406C88.3089 55.2874 88.6061 55.3608 88.9446 55.3608C89.1648 55.3608 89.3636 55.33 89.5412 55.2685C89.7211 55.2045 89.8762 55.1098 90.0064 54.9844C90.1366 54.8565 90.2372 54.6979 90.3082 54.5085L91.1179 54.7358C91.0327 55.0104 90.8894 55.2519 90.6882 55.4602C90.487 55.6662 90.2384 55.8272 89.9425 55.9432C89.6465 56.0568 89.3139 56.1136 88.9446 56.1136ZM96.1286 48.7273V56H95.2905V48.7273H96.1286ZM99.9505 56.1136C99.4249 56.1136 98.9715 55.9976 98.5904 55.7656C98.2116 55.5312 97.9192 55.2045 97.7132 54.7855C97.5096 54.3641 97.4078 53.8741 97.4078 53.3153C97.4078 52.7566 97.5096 52.2642 97.7132 51.8381C97.9192 51.4096 98.2057 51.0758 98.5726 50.8366C98.9419 50.5952 99.3728 50.4744 99.8652 50.4744C100.149 50.4744 100.43 50.5218 100.707 50.6165C100.984 50.7112 101.236 50.8651 101.463 51.0781C101.691 51.2888 101.872 51.5682 102.007 51.9162C102.142 52.2642 102.209 52.6927 102.209 53.2017V53.5568H98.0044V52.8324H101.357C101.357 52.5246 101.295 52.25 101.172 52.0085C101.051 51.767 100.878 51.5765 100.654 51.4368C100.431 51.2971 100.168 51.2273 99.8652 51.2273C99.5314 51.2273 99.2426 51.3101 98.9988 51.4759C98.7573 51.6392 98.5714 51.8523 98.4412 52.1151C98.311 52.3778 98.2459 52.6596 98.2459 52.9602V53.4432C98.2459 53.8551 98.3169 54.2043 98.459 54.4908C98.6034 54.7749 98.8034 54.9915 99.0591 55.1406C99.3148 55.2874 99.6119 55.3608 99.9505 55.3608C100.171 55.3608 100.369 55.33 100.547 55.2685C100.727 55.2045 100.882 55.1098 101.012 54.9844C101.142 54.8565 101.243 54.6979 101.314 54.5085L102.124 54.7358C102.039 55.0104 101.895 55.2519 101.694 55.4602C101.493 55.6662 101.244 55.8272 100.948 55.9432C100.652 56.0568 100.32 56.1136 99.9505 56.1136ZM105.686 58.1591C105.281 58.1591 104.933 58.107 104.642 58.0028C104.35 57.901 104.108 57.7661 103.914 57.598C103.722 57.4323 103.569 57.2547 103.455 57.0653L104.123 56.5966C104.199 56.696 104.295 56.8097 104.411 56.9375C104.527 57.0677 104.685 57.1802 104.887 57.2749C105.09 57.3719 105.356 57.4205 105.686 57.4205C106.126 57.4205 106.489 57.3139 106.776 57.1009C107.062 56.8878 107.205 56.554 107.205 56.0994V54.9915H107.134C107.073 55.0909 106.985 55.214 106.872 55.3608C106.76 55.5052 106.599 55.6342 106.389 55.7479C106.18 55.8591 105.899 55.9148 105.544 55.9148C105.103 55.9148 104.708 55.8106 104.357 55.6023C104.009 55.3939 103.734 55.0909 103.53 54.6932C103.329 54.2955 103.228 53.8125 103.228 53.2443C103.228 52.6856 103.326 52.1991 103.523 51.7848C103.719 51.3681 103.993 51.0462 104.343 50.8189C104.694 50.5893 105.098 50.4744 105.558 50.4744C105.913 50.4744 106.195 50.5336 106.403 50.652C106.614 50.768 106.775 50.9006 106.886 51.0497C106.999 51.1965 107.087 51.3172 107.149 51.4119H107.234V50.5455H108.044V56.1562C108.044 56.625 107.937 57.0062 107.724 57.2997C107.513 57.5956 107.229 57.8123 106.872 57.9496C106.517 58.0893 106.121 58.1591 105.686 58.1591ZM105.657 55.1619C105.993 55.1619 106.277 55.085 106.509 54.9311C106.741 54.7772 106.918 54.5559 107.039 54.267C107.159 53.9782 107.22 53.6326 107.22 53.2301C107.22 52.8371 107.16 52.4903 107.042 52.1896C106.924 51.889 106.749 51.6534 106.517 51.483C106.285 51.3125 105.998 51.2273 105.657 51.2273C105.302 51.2273 105.006 51.3172 104.769 51.4972C104.535 51.6771 104.359 51.9186 104.24 52.2216C104.124 52.5246 104.066 52.8608 104.066 53.2301C104.066 53.6089 104.125 53.9439 104.244 54.2351C104.365 54.5239 104.542 54.7512 104.776 54.9169C105.013 55.0803 105.307 55.1619 105.657 55.1619ZM111.183 56.1278C110.837 56.1278 110.523 56.0627 110.242 55.9325C109.96 55.8 109.736 55.6094 109.57 55.3608C109.405 55.1098 109.322 54.8068 109.322 54.4517C109.322 54.1392 109.383 53.8859 109.507 53.6918C109.63 53.4953 109.794 53.3414 110 53.2301C110.206 53.1188 110.433 53.036 110.682 52.9815C110.933 52.9247 111.185 52.8797 111.438 52.8466C111.77 52.804 112.039 52.772 112.244 52.7507C112.453 52.727 112.604 52.688 112.699 52.6335C112.796 52.5791 112.845 52.4844 112.845 52.3494V52.321C112.845 51.9706 112.749 51.6984 112.557 51.5043C112.368 51.3101 112.08 51.2131 111.694 51.2131C111.294 51.2131 110.98 51.3007 110.753 51.4759C110.526 51.651 110.366 51.8381 110.274 52.0369L109.478 51.7528C109.62 51.4214 109.81 51.1634 110.046 50.9787C110.285 50.7917 110.546 50.6615 110.828 50.5881C111.112 50.5123 111.391 50.4744 111.666 50.4744C111.841 50.4744 112.042 50.4957 112.269 50.5384C112.499 50.5786 112.72 50.6626 112.933 50.7905C113.149 50.9183 113.328 51.1113 113.47 51.3693C113.612 51.6274 113.683 51.973 113.683 52.4062V56H112.845V55.2614H112.802C112.745 55.3797 112.651 55.5064 112.518 55.6413C112.385 55.7763 112.209 55.8911 111.989 55.9858C111.769 56.0805 111.5 56.1278 111.183 56.1278ZM111.311 55.375C111.642 55.375 111.921 55.3099 112.149 55.1797C112.378 55.0495 112.551 54.8814 112.667 54.6754C112.785 54.4695 112.845 54.2528 112.845 54.0256V53.2585C112.809 53.3011 112.731 53.3402 112.61 53.3757C112.492 53.4089 112.355 53.4384 112.198 53.4645C112.044 53.4882 111.894 53.5095 111.747 53.5284C111.603 53.545 111.486 53.5592 111.396 53.571C111.178 53.5994 110.974 53.6456 110.785 53.7095C110.598 53.7711 110.446 53.8646 110.33 53.9901C110.217 54.1132 110.16 54.2812 110.16 54.4943C110.16 54.7855 110.268 55.0057 110.483 55.1548C110.701 55.3016 110.977 55.375 111.311 55.375ZM116.05 48.7273V56H115.212V48.7273H116.05ZM120.512 56V48.7273H121.35V51.4119H121.421C121.482 51.3172 121.567 51.1965 121.676 51.0497C121.788 50.9006 121.946 50.768 122.152 50.652C122.36 50.5336 122.642 50.4744 122.997 50.4744C123.457 50.4744 123.861 50.5893 124.212 50.8189C124.562 51.0485 124.836 51.3741 125.032 51.7955C125.229 52.2169 125.327 52.714 125.327 53.2869C125.327 53.8646 125.229 54.3653 125.032 54.7891C124.836 55.2105 124.563 55.5372 124.215 55.7692C123.867 55.9988 123.466 56.1136 123.012 56.1136C122.661 56.1136 122.381 56.0556 122.17 55.9396C121.959 55.8213 121.797 55.6875 121.683 55.5384C121.57 55.3868 121.482 55.2614 121.421 55.1619H121.321V56H120.512ZM121.335 53.2727C121.335 53.6847 121.396 54.0481 121.517 54.3629C121.637 54.6754 121.814 54.9205 122.046 55.098C122.278 55.2732 122.562 55.3608 122.898 55.3608C123.248 55.3608 123.541 55.2685 123.775 55.0838C124.012 54.8968 124.189 54.6458 124.308 54.331C124.428 54.0137 124.489 53.661 124.489 53.2727C124.489 52.8892 124.43 52.5436 124.311 52.2358C124.195 51.9257 124.019 51.6806 123.782 51.5007C123.548 51.3184 123.253 51.2273 122.898 51.2273C122.557 51.2273 122.271 51.3137 122.039 51.4865C121.807 51.657 121.631 51.8961 121.513 52.2038C121.395 52.5092 121.335 52.8655 121.335 53.2727ZM127.447 48.7273V56H126.609V48.7273H127.447ZM131.198 56.1136C130.705 56.1136 130.273 55.9964 129.902 55.7621C129.532 55.5277 129.243 55.1998 129.035 54.7784C128.829 54.357 128.726 53.8646 128.726 53.3011C128.726 52.733 128.829 52.237 129.035 51.8132C129.243 51.3894 129.532 51.0604 129.902 50.826C130.273 50.5916 130.705 50.4744 131.198 50.4744C131.69 50.4744 132.121 50.5916 132.49 50.826C132.862 51.0604 133.151 51.3894 133.357 51.8132C133.565 52.237 133.669 52.733 133.669 53.3011C133.669 53.8646 133.565 54.357 133.357 54.7784C133.151 55.1998 132.862 55.5277 132.49 55.7621C132.121 55.9964 131.69 56.1136 131.198 56.1136ZM131.198 55.3608C131.572 55.3608 131.88 55.2649 132.121 55.0732C132.363 54.8814 132.541 54.6293 132.657 54.3168C132.773 54.0043 132.831 53.6657 132.831 53.3011C132.831 52.9366 132.773 52.5968 132.657 52.282C132.541 51.9671 132.363 51.7126 132.121 51.5185C131.88 51.3243 131.572 51.2273 131.198 51.2273C130.824 51.2273 130.516 51.3243 130.275 51.5185C130.033 51.7126 129.854 51.9671 129.738 52.282C129.622 52.5968 129.564 52.9366 129.564 53.3011C129.564 53.6657 129.622 54.0043 129.738 54.3168C129.854 54.6293 130.033 54.8814 130.275 55.0732C130.516 55.2649 130.824 55.3608 131.198 55.3608ZM137.165 56.1136C136.653 56.1136 136.213 55.9929 135.844 55.7514C135.474 55.5099 135.19 55.1773 134.991 54.7536C134.792 54.3298 134.693 53.8456 134.693 53.3011C134.693 52.7472 134.795 52.2583 134.998 51.8345C135.204 51.4084 135.491 51.0758 135.858 50.8366C136.227 50.5952 136.658 50.4744 137.15 50.4744C137.534 50.4744 137.88 50.5455 138.187 50.6875C138.495 50.8295 138.747 51.0284 138.944 51.2841C139.14 51.5398 139.262 51.8381 139.309 52.179H138.471C138.407 51.9304 138.265 51.7102 138.045 51.5185C137.827 51.3243 137.534 51.2273 137.165 51.2273C136.838 51.2273 136.551 51.3125 136.305 51.483C136.061 51.651 135.871 51.889 135.733 52.1967C135.599 52.5021 135.531 52.8608 135.531 53.2727C135.531 53.6941 135.597 54.0611 135.73 54.3736C135.865 54.6861 136.054 54.9287 136.298 55.1016C136.544 55.2744 136.833 55.3608 137.165 55.3608C137.382 55.3608 137.58 55.3229 137.758 55.2472C137.935 55.1714 138.086 55.0625 138.209 54.9205C138.332 54.7784 138.419 54.608 138.471 54.4091H139.309C139.262 54.7311 139.145 55.0211 138.958 55.2791C138.773 55.5348 138.528 55.7384 138.223 55.8899C137.92 56.0391 137.567 56.1136 137.165 56.1136ZM141.316 54.0114L141.302 52.9744H141.472L143.858 50.5455H144.895L142.353 53.1165H142.282L141.316 54.0114ZM140.535 56V48.7273H141.373V56H140.535ZM144.001 56L141.87 53.3011L142.466 52.7188L145.066 56H144.001ZM145.974 56V50.5455H146.812V56H145.974ZM146.4 49.6364C146.237 49.6364 146.096 49.5807 145.978 49.4695C145.862 49.3582 145.804 49.2244 145.804 49.0682C145.804 48.9119 145.862 48.7782 145.978 48.6669C146.096 48.5556 146.237 48.5 146.4 48.5C146.564 48.5 146.703 48.5556 146.819 48.6669C146.938 48.7782 146.997 48.9119 146.997 49.0682C146.997 49.2244 146.938 49.3582 146.819 49.4695C146.703 49.5807 146.564 49.6364 146.4 49.6364ZM149.185 52.7188V56H148.347V50.5455H149.157V51.3977H149.228C149.356 51.1207 149.55 50.8982 149.81 50.7301C150.071 50.5597 150.407 50.4744 150.819 50.4744C151.188 50.4744 151.511 50.5502 151.788 50.7017C152.065 50.8509 152.281 51.0781 152.434 51.3835C152.588 51.6866 152.665 52.0701 152.665 52.5341V56H151.827V52.5909C151.827 52.1624 151.716 51.8286 151.493 51.5895C151.271 51.348 150.965 51.2273 150.577 51.2273C150.31 51.2273 150.071 51.2853 149.86 51.4013C149.652 51.5173 149.487 51.6866 149.366 51.9091C149.246 52.1316 149.185 52.4015 149.185 52.7188ZM156.398 58.1591C155.994 58.1591 155.646 58.107 155.354 58.0028C155.063 57.901 154.821 57.7661 154.626 57.598C154.435 57.4323 154.282 57.2547 154.168 57.0653L154.836 56.5966C154.912 56.696 155.008 56.8097 155.124 56.9375C155.24 57.0677 155.398 57.1802 155.599 57.2749C155.803 57.3719 156.069 57.4205 156.398 57.4205C156.839 57.4205 157.202 57.3139 157.489 57.1009C157.775 56.8878 157.918 56.554 157.918 56.0994V54.9915H157.847C157.786 55.0909 157.698 55.214 157.585 55.3608C157.473 55.5052 157.312 55.6342 157.102 55.7479C156.893 55.8591 156.612 55.9148 156.256 55.9148C155.816 55.9148 155.421 55.8106 155.07 55.6023C154.722 55.3939 154.446 55.0909 154.243 54.6932C154.042 54.2955 153.941 53.8125 153.941 53.2443C153.941 52.6856 154.039 52.1991 154.236 51.7848C154.432 51.3681 154.706 51.0462 155.056 50.8189C155.406 50.5893 155.811 50.4744 156.271 50.4744C156.626 50.4744 156.907 50.5336 157.116 50.652C157.326 50.768 157.487 50.9006 157.599 51.0497C157.712 51.1965 157.8 51.3172 157.862 51.4119H157.947V50.5455H158.756V56.1562C158.756 56.625 158.65 57.0062 158.437 57.2997C158.226 57.5956 157.942 57.8123 157.585 57.9496C157.229 58.0893 156.834 58.1591 156.398 58.1591ZM156.37 55.1619C156.706 55.1619 156.99 55.085 157.222 54.9311C157.454 54.7772 157.631 54.5559 157.751 54.267C157.872 53.9782 157.933 53.6326 157.933 53.2301C157.933 52.8371 157.873 52.4903 157.755 52.1896C157.637 51.889 157.461 51.6534 157.229 51.483C156.997 51.3125 156.711 51.2273 156.37 51.2273C156.015 51.2273 155.719 51.3172 155.482 51.4972C155.248 51.6771 155.071 51.9186 154.953 52.2216C154.837 52.5246 154.779 52.8608 154.779 53.2301C154.779 53.6089 154.838 53.9439 154.957 54.2351C155.077 54.5239 155.255 54.7512 155.489 54.9169C155.726 55.0803 156.02 55.1619 156.37 55.1619ZM164.154 51.767L163.401 51.9801C163.354 51.8546 163.284 51.7327 163.192 51.6143C163.102 51.4936 162.979 51.3942 162.822 51.3161C162.666 51.2379 162.466 51.1989 162.222 51.1989C161.888 51.1989 161.61 51.2758 161.388 51.4297C161.168 51.5812 161.058 51.7741 161.058 52.0085C161.058 52.2169 161.133 52.3814 161.285 52.5021C161.436 52.6229 161.673 52.7235 161.995 52.804L162.805 53.0028C163.292 53.1212 163.656 53.3023 163.895 53.5462C164.134 53.7876 164.254 54.099 164.254 54.4801C164.254 54.7926 164.164 55.072 163.984 55.3182C163.806 55.5644 163.558 55.7585 163.238 55.9006C162.918 56.0426 162.547 56.1136 162.123 56.1136C161.567 56.1136 161.106 55.9929 160.741 55.7514C160.377 55.5099 160.146 55.1572 160.049 54.6932L160.844 54.4943C160.92 54.7879 161.063 55.008 161.274 55.1548C161.487 55.3016 161.765 55.375 162.109 55.375C162.499 55.375 162.809 55.2921 163.039 55.1264C163.271 54.9583 163.387 54.7571 163.387 54.5227C163.387 54.3333 163.321 54.1747 163.188 54.0469C163.056 53.9167 162.852 53.8196 162.577 53.7557L161.668 53.5426C161.169 53.4242 160.802 53.2408 160.567 52.9922C160.335 52.7412 160.219 52.4276 160.219 52.0511C160.219 51.7434 160.306 51.4711 160.479 51.2344C160.654 50.9976 160.892 50.8118 161.192 50.6768C161.496 50.5419 161.839 50.4744 162.222 50.4744C162.762 50.4744 163.186 50.5928 163.494 50.8295C163.804 51.0663 164.024 51.3788 164.154 51.767ZM166.126 56.0568C165.951 56.0568 165.8 55.9941 165.675 55.8686C165.549 55.7431 165.487 55.5928 165.487 55.4176C165.487 55.2424 165.549 55.0921 165.675 54.9666C165.8 54.8411 165.951 54.7784 166.126 54.7784C166.301 54.7784 166.451 54.8411 166.577 54.9666C166.702 55.0921 166.765 55.2424 166.765 55.4176C166.765 55.5336 166.735 55.6402 166.676 55.7372C166.619 55.8343 166.543 55.9124 166.445 55.9716C166.351 56.0284 166.244 56.0568 166.126 56.0568ZM171.195 56V48.7273H172.076V55.2188H175.456V56H171.195ZM178.993 56.1136C178.468 56.1136 178.015 55.9976 177.633 55.7656C177.255 55.5312 176.962 55.2045 176.756 54.7855C176.553 54.3641 176.451 53.8741 176.451 53.3153C176.451 52.7566 176.553 52.2642 176.756 51.8381C176.962 51.4096 177.249 51.0758 177.616 50.8366C177.985 50.5952 178.416 50.4744 178.908 50.4744C179.192 50.4744 179.473 50.5218 179.75 50.6165C180.027 50.7112 180.279 50.8651 180.506 51.0781C180.733 51.2888 180.915 51.5682 181.05 51.9162C181.184 52.2642 181.252 52.6927 181.252 53.2017V53.5568H177.047V52.8324H180.4C180.4 52.5246 180.338 52.25 180.215 52.0085C180.094 51.767 179.921 51.5765 179.697 51.4368C179.474 51.2971 179.211 51.2273 178.908 51.2273C178.574 51.2273 178.286 51.3101 178.042 51.4759C177.8 51.6392 177.614 51.8523 177.484 52.1151C177.354 52.3778 177.289 52.6596 177.289 52.9602V53.4432C177.289 53.8551 177.36 54.2043 177.502 54.4908C177.646 54.7749 177.846 54.9915 178.102 55.1406C178.358 55.2874 178.655 55.3608 178.993 55.3608C179.214 55.3608 179.412 55.33 179.59 55.2685C179.77 55.2045 179.925 55.1098 180.055 54.9844C180.185 54.8565 180.286 54.6979 180.357 54.5085L181.167 54.7358C181.081 55.0104 180.938 55.2519 180.737 55.4602C180.536 55.6662 180.287 55.8272 179.991 55.9432C179.695 56.0568 179.363 56.1136 178.993 56.1136ZM184.899 50.5455V51.2557H182.072V50.5455H184.899ZM182.896 49.2386H183.734V54.4375C183.734 54.6742 183.769 54.8518 183.837 54.9702C183.908 55.0862 183.998 55.1643 184.107 55.2045C184.218 55.2424 184.336 55.2614 184.459 55.2614C184.551 55.2614 184.627 55.2566 184.686 55.2472C184.745 55.2353 184.792 55.2259 184.828 55.2188L184.998 55.9716C184.942 55.9929 184.862 56.0142 184.76 56.0355C184.659 56.0592 184.53 56.071 184.373 56.071C184.137 56.071 183.905 56.0201 183.677 55.9183C183.452 55.8165 183.265 55.6615 183.116 55.4531C182.97 55.2448 182.896 54.982 182.896 54.6648V49.2386ZM187.181 48.7273V49.3665C187.181 49.5606 187.146 49.7678 187.075 49.9879C187.006 50.2057 186.904 50.4176 186.77 50.6236C186.637 50.8272 186.476 51.0047 186.287 51.1562L185.832 50.7869C185.981 50.5739 186.11 50.3525 186.219 50.1229C186.33 49.8909 186.386 49.6435 186.386 49.3807V48.7273H187.181ZM191.381 51.767L190.628 51.9801C190.58 51.8546 190.511 51.7327 190.418 51.6143C190.328 51.4936 190.205 51.3942 190.049 51.3161C189.893 51.2379 189.693 51.1989 189.449 51.1989C189.115 51.1989 188.837 51.2758 188.614 51.4297C188.394 51.5812 188.284 51.7741 188.284 52.0085C188.284 52.2169 188.36 52.3814 188.511 52.5021C188.663 52.6229 188.9 52.7235 189.222 52.804L190.031 53.0028C190.519 53.1212 190.882 53.3023 191.121 53.5462C191.361 53.7876 191.48 54.099 191.48 54.4801C191.48 54.7926 191.39 55.072 191.21 55.3182C191.033 55.5644 190.784 55.7585 190.464 55.9006C190.145 56.0426 189.773 56.1136 189.349 56.1136C188.793 56.1136 188.333 55.9929 187.968 55.7514C187.603 55.5099 187.373 55.1572 187.276 54.6932L188.071 54.4943C188.147 54.7879 188.29 55.008 188.501 55.1548C188.714 55.3016 188.992 55.375 189.335 55.375C189.726 55.375 190.036 55.2921 190.266 55.1264C190.498 54.9583 190.614 54.7571 190.614 54.5227C190.614 54.3333 190.547 54.1747 190.415 54.0469C190.282 53.9167 190.079 53.8196 189.804 53.7557L188.895 53.5426C188.395 53.4242 188.028 53.2408 187.794 52.9922C187.562 52.7412 187.446 52.4276 187.446 52.0511C187.446 51.7434 187.532 51.4711 187.705 51.2344C187.88 50.9976 188.118 50.8118 188.419 50.6768C188.722 50.5419 189.065 50.4744 189.449 50.4744C189.989 50.4744 190.412 50.5928 190.72 50.8295C191.03 51.0663 191.25 51.3788 191.381 51.767ZM195.554 56V50.5455H196.364V51.3693H196.421C196.52 51.0994 196.7 50.8804 196.96 50.7124C197.221 50.5443 197.514 50.4602 197.841 50.4602C197.903 50.4602 197.98 50.4614 198.072 50.4638C198.164 50.4661 198.234 50.4697 198.281 50.4744V51.3267C198.253 51.3196 198.188 51.3089 198.086 51.2947C197.987 51.2782 197.881 51.2699 197.77 51.2699C197.505 51.2699 197.268 51.3255 197.06 51.4368C196.854 51.5457 196.691 51.6972 196.57 51.8913C196.451 52.0831 196.392 52.3021 196.392 52.5483V56H195.554ZM201.396 56.1136C200.87 56.1136 200.417 55.9976 200.036 55.7656C199.657 55.5312 199.365 55.2045 199.159 54.7855C198.955 54.3641 198.853 53.8741 198.853 53.3153C198.853 52.7566 198.955 52.2642 199.159 51.8381C199.365 51.4096 199.651 51.0758 200.018 50.8366C200.387 50.5952 200.818 50.4744 201.311 50.4744C201.595 50.4744 201.875 50.5218 202.152 50.6165C202.429 50.7112 202.681 50.8651 202.909 51.0781C203.136 51.2888 203.317 51.5682 203.452 51.9162C203.587 52.2642 203.654 52.6927 203.654 53.2017V53.5568H199.45V52.8324H202.802C202.802 52.5246 202.74 52.25 202.617 52.0085C202.497 51.767 202.324 51.5765 202.099 51.4368C201.876 51.2971 201.614 51.2273 201.311 51.2273C200.977 51.2273 200.688 51.3101 200.444 51.4759C200.203 51.6392 200.017 51.8523 199.887 52.1151C199.756 52.3778 199.691 52.6596 199.691 52.9602V53.4432C199.691 53.8551 199.762 54.2043 199.904 54.4908C200.049 54.7749 200.249 54.9915 200.504 55.1406C200.76 55.2874 201.057 55.3608 201.396 55.3608C201.616 55.3608 201.815 55.33 201.992 55.2685C202.172 55.2045 202.327 55.1098 202.458 54.9844C202.588 54.8565 202.688 54.6979 202.759 54.5085L203.569 54.7358C203.484 55.0104 203.341 55.2519 203.139 55.4602C202.938 55.6662 202.69 55.8272 202.394 55.9432C202.098 56.0568 201.765 56.1136 201.396 56.1136ZM208.793 51.767L208.04 51.9801C207.993 51.8546 207.923 51.7327 207.83 51.6143C207.74 51.4936 207.617 51.3942 207.461 51.3161C207.305 51.2379 207.105 51.1989 206.861 51.1989C206.527 51.1989 206.249 51.2758 206.026 51.4297C205.806 51.5812 205.696 51.7741 205.696 52.0085C205.696 52.2169 205.772 52.3814 205.923 52.5021C206.075 52.6229 206.312 52.7235 206.634 52.804L207.443 53.0028C207.931 53.1212 208.294 53.3023 208.534 53.5462C208.773 53.7876 208.892 54.099 208.892 54.4801C208.892 54.7926 208.802 55.072 208.622 55.3182C208.445 55.5644 208.196 55.7585 207.877 55.9006C207.557 56.0426 207.185 56.1136 206.762 56.1136C206.205 56.1136 205.745 55.9929 205.38 55.7514C205.016 55.5099 204.785 55.1572 204.688 54.6932L205.483 54.4943C205.559 54.7879 205.702 55.008 205.913 55.1548C206.126 55.3016 206.404 55.375 206.747 55.375C207.138 55.375 207.448 55.2921 207.678 55.1264C207.91 54.9583 208.026 54.7571 208.026 54.5227C208.026 54.3333 207.959 54.1747 207.827 54.0469C207.694 53.9167 207.491 53.8196 207.216 53.7557L206.307 53.5426C205.807 53.4242 205.441 53.2408 205.206 52.9922C204.974 52.7412 204.858 52.4276 204.858 52.0511C204.858 51.7434 204.945 51.4711 205.117 51.2344C205.293 50.9976 205.53 50.8118 205.831 50.6768C206.134 50.5419 206.477 50.4744 206.861 50.4744C207.401 50.4744 207.825 50.5928 208.132 50.8295C208.442 51.0663 208.663 51.3788 208.793 51.767ZM212.441 56.1136C211.915 56.1136 211.462 55.9976 211.081 55.7656C210.702 55.5312 210.409 55.2045 210.203 54.7855C210 54.3641 209.898 53.8741 209.898 53.3153C209.898 52.7566 210 52.2642 210.203 51.8381C210.409 51.4096 210.696 51.0758 211.063 50.8366C211.432 50.5952 211.863 50.4744 212.355 50.4744C212.64 50.4744 212.92 50.5218 213.197 50.6165C213.474 50.7112 213.726 50.8651 213.953 51.0781C214.181 51.2888 214.362 51.5682 214.497 51.9162C214.632 52.2642 214.699 52.6927 214.699 53.2017V53.5568H210.495V52.8324H213.847C213.847 52.5246 213.785 52.25 213.662 52.0085C213.542 51.767 213.369 51.5765 213.144 51.4368C212.921 51.2971 212.658 51.2273 212.355 51.2273C212.022 51.2273 211.733 51.3101 211.489 51.4759C211.248 51.6392 211.062 51.8523 210.931 52.1151C210.801 52.3778 210.736 52.6596 210.736 52.9602V53.4432C210.736 53.8551 210.807 54.2043 210.949 54.4908C211.094 54.7749 211.294 54.9915 211.549 55.1406C211.805 55.2874 212.102 55.3608 212.441 55.3608C212.661 55.3608 212.86 55.33 213.037 55.2685C213.217 55.2045 213.372 55.1098 213.502 54.9844C213.633 54.8565 213.733 54.6979 213.804 54.5085L214.614 54.7358C214.529 55.0104 214.386 55.2519 214.184 55.4602C213.983 55.6662 213.734 55.8272 213.439 55.9432C213.143 56.0568 212.81 56.1136 212.441 56.1136ZM217.579 56.1278C217.234 56.1278 216.92 56.0627 216.638 55.9325C216.356 55.8 216.133 55.6094 215.967 55.3608C215.801 55.1098 215.718 54.8068 215.718 54.4517C215.718 54.1392 215.78 53.8859 215.903 53.6918C216.026 53.4953 216.191 53.3414 216.397 53.2301C216.603 53.1188 216.83 53.036 217.078 52.9815C217.329 52.9247 217.582 52.8797 217.835 52.8466C218.166 52.804 218.435 52.772 218.641 52.7507C218.849 52.727 219.001 52.688 219.096 52.6335C219.193 52.5791 219.241 52.4844 219.241 52.3494V52.321C219.241 51.9706 219.145 51.6984 218.953 51.5043C218.764 51.3101 218.476 51.2131 218.091 51.2131C217.69 51.2131 217.377 51.3007 217.15 51.4759C216.922 51.651 216.762 51.8381 216.67 52.0369L215.875 51.7528C216.017 51.4214 216.206 51.1634 216.443 50.9787C216.682 50.7917 216.942 50.6615 217.224 50.5881C217.508 50.5123 217.788 50.4744 218.062 50.4744C218.237 50.4744 218.439 50.4957 218.666 50.5384C218.895 50.5786 219.117 50.6626 219.33 50.7905C219.545 50.9183 219.724 51.1113 219.866 51.3693C220.008 51.6274 220.079 51.973 220.079 52.4062V56H219.241V55.2614H219.199C219.142 55.3797 219.047 55.5064 218.914 55.6413C218.782 55.7763 218.605 55.8911 218.385 55.9858C218.165 56.0805 217.896 56.1278 217.579 56.1278ZM217.707 55.375C218.038 55.375 218.318 55.3099 218.545 55.1797C218.775 55.0495 218.948 54.8814 219.064 54.6754C219.182 54.4695 219.241 54.2528 219.241 54.0256V53.2585C219.206 53.3011 219.127 53.3402 219.007 53.3757C218.888 53.4089 218.751 53.4384 218.595 53.4645C218.441 53.4882 218.291 53.5095 218.144 53.5284C217.999 53.545 217.882 53.5592 217.792 53.571C217.574 53.5994 217.371 53.6456 217.181 53.7095C216.994 53.7711 216.843 53.8646 216.727 53.9901C216.613 54.1132 216.556 54.2812 216.556 54.4943C216.556 54.7855 216.664 55.0057 216.88 55.1548C217.097 55.3016 217.373 55.375 217.707 55.375ZM221.609 56V50.5455H222.419V51.3693H222.475C222.575 51.0994 222.755 50.8804 223.015 50.7124C223.276 50.5443 223.569 50.4602 223.896 50.4602C223.957 50.4602 224.034 50.4614 224.127 50.4638C224.219 50.4661 224.289 50.4697 224.336 50.4744V51.3267C224.308 51.3196 224.243 51.3089 224.141 51.2947C224.041 51.2782 223.936 51.2699 223.825 51.2699C223.56 51.2699 223.323 51.3255 223.115 51.4368C222.909 51.5457 222.745 51.6972 222.624 51.8913C222.506 52.0831 222.447 52.3021 222.447 52.5483V56H221.609ZM227.379 56.1136C226.868 56.1136 226.428 55.9929 226.058 55.7514C225.689 55.5099 225.405 55.1773 225.206 54.7536C225.007 54.3298 224.908 53.8456 224.908 53.3011C224.908 52.7472 225.01 52.2583 225.213 51.8345C225.419 51.4084 225.706 51.0758 226.073 50.8366C226.442 50.5952 226.873 50.4744 227.365 50.4744C227.749 50.4744 228.094 50.5455 228.402 50.6875C228.71 50.8295 228.962 51.0284 229.159 51.2841C229.355 51.5398 229.477 51.8381 229.524 52.179H228.686C228.622 51.9304 228.48 51.7102 228.26 51.5185C228.042 51.3243 227.749 51.2273 227.379 51.2273C227.053 51.2273 226.766 51.3125 226.52 51.483C226.276 51.651 226.086 51.889 225.948 52.1967C225.813 52.5021 225.746 52.8608 225.746 53.2727C225.746 53.6941 225.812 54.0611 225.945 54.3736C226.08 54.6861 226.269 54.9287 226.513 55.1016C226.759 55.2744 227.048 55.3608 227.379 55.3608C227.597 55.3608 227.795 55.3229 227.972 55.2472C228.15 55.1714 228.3 55.0625 228.423 54.9205C228.547 54.7784 228.634 54.608 228.686 54.4091H229.524C229.477 54.7311 229.36 55.0211 229.173 55.2791C228.988 55.5348 228.743 55.7384 228.438 55.8899C228.135 56.0391 227.782 56.1136 227.379 56.1136ZM231.588 52.7188V56H230.749V48.7273H231.588V51.3977H231.659C231.786 51.116 231.978 50.8923 232.234 50.7266C232.492 50.5585 232.835 50.4744 233.264 50.4744C233.635 50.4744 233.961 50.549 234.24 50.6982C234.52 50.8449 234.736 51.071 234.89 51.3764C235.046 51.6795 235.124 52.0653 235.124 52.5341V56H234.286V52.5909C234.286 52.1577 234.174 51.8227 233.949 51.5859C233.727 51.3468 233.418 51.2273 233.022 51.2273C232.748 51.2273 232.501 51.2853 232.284 51.4013C232.068 51.5173 231.898 51.6866 231.772 51.9091C231.649 52.1316 231.588 52.4015 231.588 52.7188Z" fill="black"/>
<path d="M25 35H16C14.8954 35 14 35.8954 14 37V46C14 47.1046 14.8954 48 16 48H25C26.1046 48 27 47.1046 27 46V37C27 35.8954 26.1046 35 25 35Z" fill="#DF484A"/>
</g>
<defs>
<filter id="filter0_d_339_655" x="0" y="0" width="323" height="76" filterUnits="userSpaceOnUse" color-interpolation-filters="sRGB">
<feFlood flood-opacity="0" result="BackgroundImageFix"/>
<feColorMatrix in="SourceAlpha" type="matrix" values="0 0 0 0 0 0 0 0 0 0 0 0 0 0 0 0 0 0 127 0" result="hardAlpha"/>
<feOffset dy="4"/>
<feGaussianBlur stdDeviation="2"/>
<feComposite in2="hardAlpha" operator="out"/>
<feColorMatrix type="matrix" values="0 0 0 0 0 0 0 0 0 0 0 0 0 0 0 0 0 0 0.25 0"/>
<feBlend mode="normal" in2="BackgroundImageFix" result="effect1_dropShadow_339_655"/>
<feBlend mode="normal" in="SourceGraphic" in2="effect1_dropShadow_339_655" result="shape"/>
</filter>
<clipPath id="clip0_339_655">
<rect width="15" height="15" fill="white" transform="translate(13 10)"/>
</clipPath>
</defs>
</svg>
