<svg width="512" height="512" viewBox="0 0 512 512" fill="none" xmlns="http://www.w3.org/2000/svg">
<g clip-path="url(#clip0_30_2321)">
<path d="M82.2058 377.93L183.795 439.725L255.795 395.936V289.647C255.795 286.388 254.718 284.423 252.034 282.793L245.32 278.705C147.052 338.482 180.473 318.153 82.2058 377.93Z" fill="url(#paint0_linear_30_2321)"/>
<path d="M101.6 353.07V204.127C101.6 187.709 109.321 173.624 122.809 165.414L0 153.169V405.132C0.35915 427.973 11.2733 447.534 30.1287 459.002L91.1243 496.107L192.714 434.301L122.809 391.773C109.321 383.574 101.6 369.478 101.6 353.07Z" fill="url(#paint1_linear_30_2321)"/>
<path d="M122.809 165.414C169.339 137.108 246.616 90.1018 293.146 61.7952L191.557 0L30.1287 98.1849C10.974 109.842 0 129.866 0 153.169V276.759C0.00997639 253.445 10.984 233.432 30.1387 221.775L122.809 165.414Z" fill="url(#paint2_linear_30_2321)"/>
<path d="M101.599 204.127C101.599 187.709 109.321 173.624 122.809 165.415L30.1379 221.776C10.9832 233.432 0.00927734 253.446 0.00927734 276.76V310.595C0.00927734 287.281 10.9832 267.257 30.1379 255.601L101.599 212.137V204.127Z" fill="#020C6A"/>
<path d="M139.96 391.553C129.784 383.312 124.925 370.909 126.621 357.497L127.519 350.37C120.695 354.522 112.684 359.389 103.097 365.222C105.95 376.343 112.794 385.688 122.81 391.774L192.715 434.302L139.96 391.553Z" fill="#021B8D"/>
<path d="M430.111 133.881L328.511 72.0854L256.212 116.064V222.353C256.212 225.612 257.29 227.577 259.973 229.206L266.677 233.295C364.945 173.518 331.843 193.658 430.111 133.881Z" fill="url(#paint3_linear_30_2321)"/>
<path d="M410.406 158.929V307.872C410.406 324.291 402.684 338.376 389.196 346.585L511.996 358.82V106.867C511.646 84.0262 500.722 64.465 481.867 52.9973L420.881 15.8928L319.282 77.6985L389.196 120.227C402.684 128.425 410.406 142.521 410.406 158.929Z" fill="url(#paint4_linear_30_2321)"/>
<path d="M389.201 346.586C342.671 374.892 265.384 421.898 218.854 450.205L320.453 512L481.871 413.815C501.036 402.158 512 382.134 512 358.82V235.23C511.99 258.544 501.026 278.568 481.861 290.225L389.201 346.586Z" fill="url(#paint5_linear_30_2321)"/>
<path d="M410.41 307.873C410.41 324.291 402.689 338.376 389.2 346.585L481.861 290.225C501.026 278.568 511.99 258.544 511.99 235.23V201.405C511.99 224.719 501.026 244.732 481.861 256.389L410.41 299.863V307.873Z" fill="#020C6A"/>
<path d="M372.037 120.448C382.213 128.688 387.071 141.092 385.385 154.504L384.487 161.63C391.301 157.478 399.322 152.612 408.9 146.778C406.046 135.657 399.212 126.313 389.196 120.227L319.282 77.6985L372.037 120.448Z" fill="#021B8D"/>
</g>
<defs>
<linearGradient id="paint0_linear_30_2321" x1="97.4697" y1="425.409" x2="259.802" y2="342.741" gradientUnits="userSpaceOnUse">
<stop stop-color="#0049E7"/>
<stop offset="1" stop-color="#66E5FB"/>
</linearGradient>
<linearGradient id="paint1_linear_30_2321" x1="96.352" y1="211.127" x2="96.352" y2="451.581" gradientUnits="userSpaceOnUse">
<stop stop-color="#021B8D"/>
<stop offset="1" stop-color="#2C39FF"/>
</linearGradient>
<linearGradient id="paint2_linear_30_2321" x1="-28.2432" y1="213.923" x2="305.435" y2="30.397" gradientUnits="userSpaceOnUse">
<stop stop-color="#2C39FF"/>
<stop offset="1" stop-color="#0D6EFD"/>
</linearGradient>
<linearGradient id="paint3_linear_30_2321" x1="395.692" y1="91.2263" x2="233.835" y2="184.89" gradientUnits="userSpaceOnUse">
<stop stop-color="#0131B9"/>
<stop offset="0.505208" stop-color="#0059FF"/>
<stop offset="1" stop-color="#3A5BFF"/>
</linearGradient>
<linearGradient id="paint4_linear_30_2321" x1="415.634" y1="300.872" x2="415.634" y2="60.4181" gradientUnits="userSpaceOnUse">
<stop stop-color="#021B8D"/>
<stop offset="1" stop-color="#1E5CFB"/>
</linearGradient>
<linearGradient id="paint5_linear_30_2321" x1="540.253" y1="298.076" x2="206.565" y2="481.603" gradientUnits="userSpaceOnUse">
<stop stop-color="#0049E7"/>
<stop offset="1" stop-color="#0D6EFD"/>
</linearGradient>
<clipPath id="clip0_30_2321">
<rect width="512" height="512" fill="white"/>
</clipPath>
</defs>
</svg>
