<svg width="323" height="66" viewBox="0 0 323 66" fill="none" xmlns="http://www.w3.org/2000/svg">
<g filter="url(#filter0_d_339_654)">
<rect x="4.5" y="0.5" width="314" height="57" rx="4.5" fill="white" stroke="#F6F6F6"/>
<g clip-path="url(#clip0_339_654)">
<path fill-rule="evenodd" clip-rule="evenodd" d="M15.3166 20.6107C15.6819 20.6097 16.032 20.464 16.2903 20.2056C16.5485 19.9472 16.6939 19.597 16.6947 19.2316V17.8535H15.3166C14.9514 17.8542 14.6013 17.9995 14.3429 18.2576C14.0845 18.5156 13.9387 18.8655 13.9375 19.2307C13.9384 19.991 14.5553 20.6079 15.3156 20.6088L15.3166 20.6107ZM18.7684 17.8525C18.4031 17.8535 18.053 17.9992 17.7947 18.2576C17.5365 18.516 17.3911 18.8662 17.3903 19.2316V22.6844C17.3922 23.4447 18.0091 24.0607 18.7684 24.0625C19.1336 24.0615 19.4836 23.916 19.7418 23.6578C20.0001 23.3996 20.1456 23.0496 20.1466 22.6844V19.2307C20.1456 18.8655 20.0001 18.5155 19.7418 18.2573C19.4836 17.999 19.1336 17.8535 18.7684 17.8525Z" fill="#E01E5A"/>
<path fill-rule="evenodd" clip-rule="evenodd" d="M17.3903 12.3166C17.3913 13.0769 18.0081 13.6937 18.7684 13.6947H20.1466V12.3166C20.1458 11.9514 20.0005 11.6013 19.7425 11.3429C19.4844 11.0845 19.1346 10.9387 18.7694 10.9375C18.4042 10.9385 18.0542 11.084 17.796 11.3422C17.5378 11.6005 17.3922 11.9504 17.3913 12.3156L17.3903 12.3166ZM20.1466 15.7684C20.1456 15.4032 20.0001 15.0533 19.7418 14.795C19.4836 14.5368 19.1336 14.3913 18.7684 14.3903H15.3156C14.9504 14.3913 14.6005 14.5368 14.3422 14.795C14.084 15.0533 13.9385 15.4032 13.9375 15.7684C13.9394 16.5297 14.5563 17.1456 15.3156 17.1466H18.7694C19.1346 17.1456 19.4845 17.0001 19.7428 16.7418C20.001 16.4836 20.1456 16.1336 20.1466 15.7684Z" fill="#36C5F0"/>
<path fill-rule="evenodd" clip-rule="evenodd" d="M22.2327 17.1475C22.5979 17.1465 22.9478 17.001 23.206 16.7428C23.4643 16.4845 23.6098 16.1346 23.6108 15.7694V12.3156C23.6098 11.9506 23.4644 11.6008 23.2064 11.3426C22.9483 11.0844 22.5986 10.9387 22.2336 10.9375C21.8684 10.9385 21.5184 11.084 21.2602 11.3422C21.002 11.6005 20.8565 11.9504 20.8555 12.3156V15.7694C20.8573 16.5288 21.4723 17.1456 22.2327 17.1475ZM25.6845 14.3903C25.3193 14.3913 24.9694 14.5368 24.7111 14.795C24.4529 15.0533 24.3074 15.4032 24.3064 15.7684V17.1466H25.6845C26.0497 17.1458 26.3998 17.0005 26.6582 16.7425C26.9166 16.4844 27.0624 16.1346 27.0636 15.7694C27.0626 15.4042 26.9171 15.0542 26.6589 14.796C26.4006 14.5378 26.0507 14.3922 25.6855 14.3913L25.6845 14.3903Z" fill="#2EB67D"/>
<path fill-rule="evenodd" clip-rule="evenodd" d="M20.8516 19.2317C20.8534 19.992 21.4694 20.6089 22.2297 20.6098H25.6825C26.0475 20.6088 26.3974 20.4634 26.6556 20.2054C26.9138 19.9474 27.0594 19.5977 27.0606 19.2326C27.0596 18.8674 26.9141 18.5175 26.6559 18.2592C26.3977 18.001 26.0477 17.8555 25.6825 17.8545H22.2297C21.8645 17.8555 21.5145 18.001 21.2563 18.2592C20.9981 18.5175 20.8526 18.8665 20.8516 19.2317ZM23.6078 22.6836C23.6068 22.3184 23.4613 21.9684 23.2031 21.7102C22.9448 21.4519 22.5949 21.3064 22.2297 21.3054H20.8516V22.6836C20.8534 23.4448 21.4694 24.0607 22.2297 24.0617C22.5949 24.0607 22.9448 23.9152 23.2031 23.6569C23.4613 23.3987 23.6068 23.0488 23.6078 22.6836Z" fill="#ECB22E"/>
</g>
<path d="M37.858 15.5455C37.8153 15.1856 37.6425 14.9062 37.3395 14.7074C37.0365 14.5085 36.6648 14.4091 36.2244 14.4091C35.9025 14.4091 35.6207 14.4612 35.3793 14.5653C35.1402 14.6695 34.9531 14.8127 34.8182 14.995C34.6856 15.1773 34.6193 15.3845 34.6193 15.6165C34.6193 15.8106 34.6655 15.9775 34.7578 16.1172C34.8525 16.2545 34.9732 16.3693 35.12 16.4616C35.2668 16.5516 35.4207 16.6262 35.5817 16.6854C35.7427 16.7422 35.8906 16.7884 36.0256 16.8239L36.7642 17.0227C36.9536 17.0724 37.1643 17.1411 37.3963 17.2287C37.6307 17.3163 37.8544 17.4358 38.0675 17.5874C38.2829 17.7365 38.4605 17.9283 38.6001 18.1626C38.7398 18.397 38.8097 18.6847 38.8097 19.0256C38.8097 19.4186 38.7067 19.7737 38.5007 20.0909C38.2971 20.4081 37.9988 20.6603 37.6058 20.8473C37.2152 21.0343 36.7405 21.1278 36.1818 21.1278C35.661 21.1278 35.21 21.0438 34.8288 20.8757C34.45 20.7076 34.1518 20.4732 33.9339 20.1726C33.7185 19.8719 33.5966 19.5227 33.5682 19.125H34.4773C34.5009 19.3996 34.5933 19.6269 34.7543 19.8068C34.9176 19.9844 35.1236 20.117 35.3722 20.2045C35.6231 20.2898 35.893 20.3324 36.1818 20.3324C36.518 20.3324 36.8198 20.2779 37.0874 20.169C37.3549 20.0578 37.5668 19.9039 37.723 19.7074C37.8793 19.5085 37.9574 19.2765 37.9574 19.0114C37.9574 18.7699 37.8899 18.5734 37.755 18.4219C37.62 18.2704 37.4425 18.1473 37.2223 18.0526C37.0021 17.9579 36.7642 17.875 36.5085 17.804L35.6136 17.5483C35.0455 17.3849 34.5956 17.1518 34.2642 16.8487C33.9328 16.5457 33.767 16.1491 33.767 15.6591C33.767 15.2519 33.8771 14.8968 34.0973 14.5938C34.3198 14.2884 34.6181 14.0516 34.9922 13.8835C35.3686 13.7131 35.7888 13.6278 36.2528 13.6278C36.7216 13.6278 37.1383 13.7119 37.5028 13.88C37.8674 14.0457 38.1563 14.273 38.3693 14.5618C38.5848 14.8506 38.6984 15.1785 38.7102 15.5455H37.858ZM40.2576 21V13.7273H41.1383V20.2188H44.519V21H40.2576ZM46.6399 21H45.7166L48.3871 13.7273H49.2962L51.9666 21H51.0433L48.87 14.8778H48.8132L46.6399 21ZM46.9808 18.1591H50.7024V18.9403H46.9808V18.1591ZM58.6099 16H57.7292C57.6771 15.7467 57.586 15.5241 57.4558 15.3324C57.3279 15.1406 57.1717 14.9796 56.987 14.8494C56.8047 14.7169 56.6023 14.6174 56.3798 14.5511C56.1573 14.4848 55.9252 14.4517 55.6838 14.4517C55.2434 14.4517 54.8445 14.563 54.487 14.7855C54.1319 15.008 53.849 15.3359 53.6383 15.7692C53.43 16.2024 53.3258 16.7339 53.3258 17.3636C53.3258 17.9934 53.43 18.5249 53.6383 18.9581C53.849 19.3913 54.1319 19.7192 54.487 19.9418C54.8445 20.1643 55.2434 20.2756 55.6838 20.2756C55.9252 20.2756 56.1573 20.2424 56.3798 20.1761C56.6023 20.1098 56.8047 20.0116 56.987 19.8814C57.1717 19.7488 57.3279 19.5866 57.4558 19.3949C57.586 19.2008 57.6771 18.9782 57.7292 18.7273H58.6099C58.5436 19.099 58.4229 19.4316 58.2477 19.7251C58.0725 20.0187 57.8547 20.2685 57.5943 20.4744C57.3339 20.678 57.0415 20.8331 56.7172 20.9396C56.3952 21.0462 56.0507 21.0994 55.6838 21.0994C55.0635 21.0994 54.5119 20.9479 54.0289 20.6449C53.546 20.3419 53.166 19.911 52.889 19.3523C52.612 18.7936 52.4735 18.1307 52.4735 17.3636C52.4735 16.5966 52.612 15.9337 52.889 15.375C53.166 14.8163 53.546 14.3854 54.0289 14.0824C54.5119 13.7794 55.0635 13.6278 55.6838 13.6278C56.0507 13.6278 56.3952 13.6811 56.7172 13.7876C57.0415 13.8942 57.3339 14.0504 57.5943 14.2564C57.8547 14.46 58.0725 14.7086 58.2477 15.0021C58.4229 15.2933 58.5436 15.6259 58.6099 16ZM60.033 21V13.7273H60.9137V17.3352H60.9989L64.266 13.7273H65.4165L62.3626 17.0085L65.4165 21H64.3512L61.8228 17.6193L60.9137 18.642V21H60.033ZM69.5536 17.3636C69.5536 16.4687 69.6696 15.6461 69.9016 14.8956C70.136 14.1428 70.4698 13.4503 70.9031 12.8182H71.6417C71.4712 13.0526 71.3114 13.3414 71.1623 13.6847C71.0155 14.0256 70.8865 14.4008 70.7752 14.8104C70.6639 15.2176 70.5763 15.639 70.5124 16.0746C70.4509 16.5102 70.4201 16.9399 70.4201 17.3636C70.4201 17.9271 70.4746 18.4988 70.5835 19.0788C70.6924 19.6589 70.8391 20.1974 71.0238 20.6946C71.2085 21.1918 71.4144 21.5966 71.6417 21.9091H70.9031C70.4698 21.277 70.136 20.5857 69.9016 19.8352C69.6696 19.0824 69.5536 18.2585 69.5536 17.3636ZM75.2363 21H72.992V13.7273H75.3358C76.0413 13.7273 76.6449 13.8729 77.1468 14.1641C77.6487 14.4529 78.0334 14.8684 78.301 15.4105C78.5685 15.9503 78.7022 16.5966 78.7022 17.3494C78.7022 18.107 78.5673 18.7592 78.2974 19.3061C78.0275 19.8506 77.6345 20.2696 77.1184 20.5632C76.6023 20.8544 75.975 21 75.2363 21ZM73.8727 20.2188H75.1795C75.7808 20.2188 76.2792 20.1027 76.6745 19.8707C77.0699 19.6387 77.3646 19.3085 77.5588 18.88C77.7529 18.4515 77.85 17.9413 77.85 17.3494C77.85 16.7623 77.7541 16.2569 77.5623 15.8331C77.3706 15.407 77.0841 15.0803 76.7029 14.853C76.3218 14.6233 75.8471 14.5085 75.2789 14.5085H73.8727V20.2188ZM80.136 21H79.2127L81.8832 13.7273H82.7923L85.4627 21H84.5394L82.3661 14.8778H82.3093L80.136 21ZM80.4769 18.1591H84.1985V18.9403H80.4769V18.1591ZM85.3482 14.5085V13.7273H90.8027V14.5085H88.5158V21H87.6351V14.5085H85.3482ZM91.6106 21H90.6873L93.3578 13.7273H94.2669L96.9373 21H96.014L93.8407 14.8778H93.7839L91.6106 21ZM91.9515 18.1591H95.6731V18.9403H91.9515V18.1591ZM107.019 17.3636C107.019 18.1307 106.881 18.7936 106.604 19.3523C106.327 19.911 105.947 20.3419 105.464 20.6449C104.981 20.9479 104.429 21.0994 103.809 21.0994C103.189 21.0994 102.637 20.9479 102.154 20.6449C101.671 20.3419 101.291 19.911 101.014 19.3523C100.737 18.7936 100.599 18.1307 100.599 17.3636C100.599 16.5966 100.737 15.9337 101.014 15.375C101.291 14.8163 101.671 14.3854 102.154 14.0824C102.637 13.7794 103.189 13.6278 103.809 13.6278C104.429 13.6278 104.981 13.7794 105.464 14.0824C105.947 14.3854 106.327 14.8163 106.604 15.375C106.881 15.9337 107.019 16.5966 107.019 17.3636ZM106.167 17.3636C106.167 16.7339 106.061 16.2024 105.851 15.7692C105.642 15.3359 105.359 15.008 105.002 14.7855C104.647 14.563 104.249 14.4517 103.809 14.4517C103.368 14.4517 102.97 14.563 102.612 14.7855C102.257 15.008 101.974 15.3359 101.763 15.7692C101.555 16.2024 101.451 16.7339 101.451 17.3636C101.451 17.9934 101.555 18.5249 101.763 18.9581C101.974 19.3913 102.257 19.7192 102.612 19.9418C102.97 20.1643 103.368 20.2756 103.809 20.2756C104.249 20.2756 104.647 20.1643 105.002 19.9418C105.359 19.7192 105.642 19.3913 105.851 18.9581C106.061 18.5249 106.167 17.9934 106.167 17.3636ZM108.809 13.7273L110.684 16.7528H110.741L112.616 13.7273H113.653L111.366 17.3636L113.653 21H112.616L110.741 18.0312H110.684L108.809 21H107.772L110.116 17.3636L107.772 13.7273H108.809ZM116.475 17.3636C116.475 18.2585 116.358 19.0824 116.123 19.8352C115.891 20.5857 115.559 21.277 115.125 21.9091H114.387C114.557 21.6747 114.716 21.3859 114.863 21.0426C115.012 20.7017 115.142 20.3277 115.253 19.9205C115.364 19.5109 115.451 19.0883 115.512 18.6527C115.576 18.2147 115.608 17.785 115.608 17.3636C115.608 16.8002 115.554 16.2285 115.445 15.6484C115.336 15.0684 115.189 14.5298 115.005 14.0327C114.82 13.5355 114.614 13.1307 114.387 12.8182H115.125C115.559 13.4503 115.891 14.1428 116.123 14.8956C116.358 15.6461 116.475 16.4687 116.475 17.3636Z" fill="#8B8B8B"/>
<path d="M37.858 15.5455C37.8153 15.1856 37.6425 14.9062 37.3395 14.7074C37.0365 14.5085 36.6648 14.4091 36.2244 14.4091C35.9025 14.4091 35.6207 14.4612 35.3793 14.5653C35.1402 14.6695 34.9531 14.8127 34.8182 14.995C34.6856 15.1773 34.6193 15.3845 34.6193 15.6165C34.6193 15.8106 34.6655 15.9775 34.7578 16.1172C34.8525 16.2545 34.9732 16.3693 35.12 16.4616C35.2668 16.5516 35.4207 16.6262 35.5817 16.6854C35.7427 16.7422 35.8906 16.7884 36.0256 16.8239L36.7642 17.0227C36.9536 17.0724 37.1643 17.1411 37.3963 17.2287C37.6307 17.3163 37.8544 17.4358 38.0675 17.5874C38.2829 17.7365 38.4605 17.9283 38.6001 18.1626C38.7398 18.397 38.8097 18.6847 38.8097 19.0256C38.8097 19.4186 38.7067 19.7737 38.5007 20.0909C38.2971 20.4081 37.9988 20.6603 37.6058 20.8473C37.2152 21.0343 36.7405 21.1278 36.1818 21.1278C35.661 21.1278 35.21 21.0438 34.8288 20.8757C34.45 20.7076 34.1518 20.4732 33.9339 20.1726C33.7185 19.8719 33.5966 19.5227 33.5682 19.125H34.4773C34.5009 19.3996 34.5933 19.6269 34.7543 19.8068C34.9176 19.9844 35.1236 20.117 35.3722 20.2045C35.6231 20.2898 35.893 20.3324 36.1818 20.3324C36.518 20.3324 36.8198 20.2779 37.0874 20.169C37.3549 20.0578 37.5668 19.9039 37.723 19.7074C37.8793 19.5085 37.9574 19.2765 37.9574 19.0114C37.9574 18.7699 37.8899 18.5734 37.755 18.4219C37.62 18.2704 37.4425 18.1473 37.2223 18.0526C37.0021 17.9579 36.7642 17.875 36.5085 17.804L35.6136 17.5483C35.0455 17.3849 34.5956 17.1518 34.2642 16.8487C33.9328 16.5457 33.767 16.1491 33.767 15.6591C33.767 15.2519 33.8771 14.8968 34.0973 14.5938C34.3198 14.2884 34.6181 14.0516 34.9922 13.8835C35.3686 13.7131 35.7888 13.6278 36.2528 13.6278C36.7216 13.6278 37.1383 13.7119 37.5028 13.88C37.8674 14.0457 38.1563 14.273 38.3693 14.5618C38.5848 14.8506 38.6984 15.1785 38.7102 15.5455H37.858ZM40.2576 21V13.7273H41.1383V20.2188H44.519V21H40.2576ZM46.6399 21H45.7166L48.3871 13.7273H49.2962L51.9666 21H51.0433L48.87 14.8778H48.8132L46.6399 21ZM46.9808 18.1591H50.7024V18.9403H46.9808V18.1591ZM58.6099 16H57.7292C57.6771 15.7467 57.586 15.5241 57.4558 15.3324C57.3279 15.1406 57.1717 14.9796 56.987 14.8494C56.8047 14.7169 56.6023 14.6174 56.3798 14.5511C56.1573 14.4848 55.9252 14.4517 55.6838 14.4517C55.2434 14.4517 54.8445 14.563 54.487 14.7855C54.1319 15.008 53.849 15.3359 53.6383 15.7692C53.43 16.2024 53.3258 16.7339 53.3258 17.3636C53.3258 17.9934 53.43 18.5249 53.6383 18.9581C53.849 19.3913 54.1319 19.7192 54.487 19.9418C54.8445 20.1643 55.2434 20.2756 55.6838 20.2756C55.9252 20.2756 56.1573 20.2424 56.3798 20.1761C56.6023 20.1098 56.8047 20.0116 56.987 19.8814C57.1717 19.7488 57.3279 19.5866 57.4558 19.3949C57.586 19.2008 57.6771 18.9782 57.7292 18.7273H58.6099C58.5436 19.099 58.4229 19.4316 58.2477 19.7251C58.0725 20.0187 57.8547 20.2685 57.5943 20.4744C57.3339 20.678 57.0415 20.8331 56.7172 20.9396C56.3952 21.0462 56.0507 21.0994 55.6838 21.0994C55.0635 21.0994 54.5119 20.9479 54.0289 20.6449C53.546 20.3419 53.166 19.911 52.889 19.3523C52.612 18.7936 52.4735 18.1307 52.4735 17.3636C52.4735 16.5966 52.612 15.9337 52.889 15.375C53.166 14.8163 53.546 14.3854 54.0289 14.0824C54.5119 13.7794 55.0635 13.6278 55.6838 13.6278C56.0507 13.6278 56.3952 13.6811 56.7172 13.7876C57.0415 13.8942 57.3339 14.0504 57.5943 14.2564C57.8547 14.46 58.0725 14.7086 58.2477 15.0021C58.4229 15.2933 58.5436 15.6259 58.6099 16ZM60.033 21V13.7273H60.9137V17.3352H60.9989L64.266 13.7273H65.4165L62.3626 17.0085L65.4165 21H64.3512L61.8228 17.6193L60.9137 18.642V21H60.033ZM69.5536 17.3636C69.5536 16.4687 69.6696 15.6461 69.9016 14.8956C70.136 14.1428 70.4698 13.4503 70.9031 12.8182H71.6417C71.4712 13.0526 71.3114 13.3414 71.1623 13.6847C71.0155 14.0256 70.8865 14.4008 70.7752 14.8104C70.6639 15.2176 70.5763 15.639 70.5124 16.0746C70.4509 16.5102 70.4201 16.9399 70.4201 17.3636C70.4201 17.9271 70.4746 18.4988 70.5835 19.0788C70.6924 19.6589 70.8391 20.1974 71.0238 20.6946C71.2085 21.1918 71.4144 21.5966 71.6417 21.9091H70.9031C70.4698 21.277 70.136 20.5857 69.9016 19.8352C69.6696 19.0824 69.5536 18.2585 69.5536 17.3636ZM75.2363 21H72.992V13.7273H75.3358C76.0413 13.7273 76.6449 13.8729 77.1468 14.1641C77.6487 14.4529 78.0334 14.8684 78.301 15.4105C78.5685 15.9503 78.7022 16.5966 78.7022 17.3494C78.7022 18.107 78.5673 18.7592 78.2974 19.3061C78.0275 19.8506 77.6345 20.2696 77.1184 20.5632C76.6023 20.8544 75.975 21 75.2363 21ZM73.8727 20.2188H75.1795C75.7808 20.2188 76.2792 20.1027 76.6745 19.8707C77.0699 19.6387 77.3646 19.3085 77.5588 18.88C77.7529 18.4515 77.85 17.9413 77.85 17.3494C77.85 16.7623 77.7541 16.2569 77.5623 15.8331C77.3706 15.407 77.0841 15.0803 76.7029 14.853C76.3218 14.6233 75.8471 14.5085 75.2789 14.5085H73.8727V20.2188ZM80.136 21H79.2127L81.8832 13.7273H82.7923L85.4627 21H84.5394L82.3661 14.8778H82.3093L80.136 21ZM80.4769 18.1591H84.1985V18.9403H80.4769V18.1591ZM85.3482 14.5085V13.7273H90.8027V14.5085H88.5158V21H87.6351V14.5085H85.3482ZM91.6106 21H90.6873L93.3578 13.7273H94.2669L96.9373 21H96.014L93.8407 14.8778H93.7839L91.6106 21ZM91.9515 18.1591H95.6731V18.9403H91.9515V18.1591ZM107.019 17.3636C107.019 18.1307 106.881 18.7936 106.604 19.3523C106.327 19.911 105.947 20.3419 105.464 20.6449C104.981 20.9479 104.429 21.0994 103.809 21.0994C103.189 21.0994 102.637 20.9479 102.154 20.6449C101.671 20.3419 101.291 19.911 101.014 19.3523C100.737 18.7936 100.599 18.1307 100.599 17.3636C100.599 16.5966 100.737 15.9337 101.014 15.375C101.291 14.8163 101.671 14.3854 102.154 14.0824C102.637 13.7794 103.189 13.6278 103.809 13.6278C104.429 13.6278 104.981 13.7794 105.464 14.0824C105.947 14.3854 106.327 14.8163 106.604 15.375C106.881 15.9337 107.019 16.5966 107.019 17.3636ZM106.167 17.3636C106.167 16.7339 106.061 16.2024 105.851 15.7692C105.642 15.3359 105.359 15.008 105.002 14.7855C104.647 14.563 104.249 14.4517 103.809 14.4517C103.368 14.4517 102.97 14.563 102.612 14.7855C102.257 15.008 101.974 15.3359 101.763 15.7692C101.555 16.2024 101.451 16.7339 101.451 17.3636C101.451 17.9934 101.555 18.5249 101.763 18.9581C101.974 19.3913 102.257 19.7192 102.612 19.9418C102.97 20.1643 103.368 20.2756 103.809 20.2756C104.249 20.2756 104.647 20.1643 105.002 19.9418C105.359 19.7192 105.642 19.3913 105.851 18.9581C106.061 18.5249 106.167 17.9934 106.167 17.3636ZM108.809 13.7273L110.684 16.7528H110.741L112.616 13.7273H113.653L111.366 17.3636L113.653 21H112.616L110.741 18.0312H110.684L108.809 21H107.772L110.116 17.3636L107.772 13.7273H108.809ZM116.475 17.3636C116.475 18.2585 116.358 19.0824 116.123 19.8352C115.891 20.5857 115.559 21.277 115.125 21.9091H114.387C114.557 21.6747 114.716 21.3859 114.863 21.0426C115.012 20.7017 115.142 20.3277 115.253 19.9205C115.364 19.5109 115.451 19.0883 115.512 18.6527C115.576 18.2147 115.608 17.785 115.608 17.3636C115.608 16.8002 115.554 16.2285 115.445 15.6484C115.336 15.0684 115.189 14.5298 115.005 14.0327C114.82 13.5355 114.614 13.1307 114.387 12.8182H115.125C115.559 13.4503 115.891 14.1428 116.123 14.8956C116.358 15.6461 116.475 16.4687 116.475 17.3636Z" fill="#8B8B8B"/>
<path d="M289.648 12.7273V20H288.795L284.832 14.2898H284.761V20H283.881V12.7273H284.733L288.71 18.4517H288.781V12.7273H289.648ZM293.512 20.1136C293.02 20.1136 292.588 19.9964 292.216 19.7621C291.847 19.5277 291.558 19.1998 291.35 18.7784C291.144 18.357 291.041 17.8646 291.041 17.3011C291.041 16.733 291.144 16.237 291.35 15.8132C291.558 15.3894 291.847 15.0604 292.216 14.826C292.588 14.5916 293.02 14.4744 293.512 14.4744C294.005 14.4744 294.436 14.5916 294.805 14.826C295.177 15.0604 295.465 15.3894 295.671 15.8132C295.88 16.237 295.984 16.733 295.984 17.3011C295.984 17.8646 295.88 18.357 295.671 18.7784C295.465 19.1998 295.177 19.5277 294.805 19.7621C294.436 19.9964 294.005 20.1136 293.512 20.1136ZM293.512 19.3608C293.886 19.3608 294.194 19.2649 294.436 19.0732C294.677 18.8814 294.856 18.6293 294.972 18.3168C295.088 18.0043 295.146 17.6657 295.146 17.3011C295.146 16.9366 295.088 16.5968 294.972 16.282C294.856 15.9671 294.677 15.7126 294.436 15.5185C294.194 15.3243 293.886 15.2273 293.512 15.2273C293.138 15.2273 292.83 15.3243 292.589 15.5185C292.347 15.7126 292.169 15.9671 292.053 16.282C291.937 16.5968 291.879 16.9366 291.879 17.3011C291.879 17.6657 291.937 18.0043 292.053 18.3168C292.169 18.6293 292.347 18.8814 292.589 19.0732C292.83 19.2649 293.138 19.3608 293.512 19.3608ZM298.313 20L296.651 14.5455H297.532L298.711 18.7216H298.768L299.933 14.5455H300.828L301.978 18.7074H302.035L303.214 14.5455H304.095L302.433 20H301.609L300.416 15.8097H300.33L299.137 20H298.313Z" fill="#8B8B8B"/>
<path d="M38.8523 40C38.7741 39.7609 38.6712 39.5466 38.5433 39.3572C38.4179 39.1655 38.2675 39.0021 38.0923 38.8672C37.9195 38.7322 37.723 38.6293 37.5028 38.5582C37.2827 38.4872 37.0412 38.4517 36.7784 38.4517C36.3475 38.4517 35.9557 38.563 35.603 38.7855C35.2502 39.008 34.9697 39.3359 34.7614 39.7692C34.553 40.2024 34.4489 40.7339 34.4489 41.3636C34.4489 41.9934 34.5542 42.5249 34.7649 42.9581C34.9756 43.3913 35.2609 43.7192 35.6207 43.9418C35.9806 44.1643 36.3854 44.2756 36.8352 44.2756C37.2519 44.2756 37.6188 44.1868 37.9361 44.0092C38.2557 43.8293 38.5043 43.576 38.6818 43.2493C38.8617 42.9202 38.9517 42.5331 38.9517 42.0881L39.2216 42.1449H37.0341V41.3636H39.804V42.1449C39.804 42.7438 39.6761 43.2647 39.4205 43.7074C39.1671 44.1501 38.8168 44.4934 38.3693 44.7372C37.9242 44.9787 37.4129 45.0994 36.8352 45.0994C36.1913 45.0994 35.6255 44.9479 35.1378 44.6449C34.6525 44.3419 34.2737 43.911 34.0014 43.3523C33.7315 42.7936 33.5966 42.1307 33.5966 41.3636C33.5966 40.7884 33.6735 40.2711 33.8274 39.8118C33.9837 39.3501 34.2038 38.9571 34.4879 38.6328C34.772 38.3085 35.1082 38.0599 35.4964 37.8871C35.8847 37.7143 36.312 37.6278 36.7784 37.6278C37.1619 37.6278 37.5194 37.6858 37.8509 37.8018C38.1847 37.9155 38.4818 38.0777 38.7422 38.2884C39.005 38.4967 39.224 38.7464 39.3991 39.0376C39.5743 39.3265 39.6951 39.6473 39.7614 40H38.8523ZM44.6362 42.7699V39.5455H45.4743V45H44.6362V44.0767H44.5794C44.4515 44.3537 44.2527 44.5893 43.9828 44.7834C43.7129 44.9751 43.372 45.071 42.96 45.071C42.6191 45.071 42.3161 44.9964 42.051 44.8473C41.7858 44.6958 41.5775 44.4685 41.426 44.1655C41.2744 43.8601 41.1987 43.4754 41.1987 43.0114V39.5455H42.0368V42.9545C42.0368 43.3523 42.148 43.6695 42.3706 43.9062C42.5955 44.143 42.8819 44.2614 43.2299 44.2614C43.4383 44.2614 43.6502 44.2081 43.8656 44.1016C44.0834 43.995 44.2657 43.8317 44.4125 43.6115C44.5616 43.3913 44.6362 43.1108 44.6362 42.7699ZM47.549 47.0455C47.407 47.0455 47.2803 47.0336 47.169 47.0099C47.0578 46.9886 46.9808 46.9673 46.9382 46.946L47.1513 46.2074C47.3549 46.2595 47.5348 46.2784 47.6911 46.2642C47.8473 46.25 47.9858 46.1802 48.1065 46.0547C48.2296 45.9316 48.3421 45.7315 48.4439 45.4545L48.6001 45.0284L46.5831 39.5455H47.4922L48.9979 43.892H49.0547L50.5604 39.5455H51.4695L49.1541 45.7955C49.05 46.0772 48.9209 46.3104 48.767 46.495C48.6132 46.6821 48.4344 46.8205 48.2308 46.9105C48.0296 47.0005 47.8023 47.0455 47.549 47.0455ZM56.4393 40.767L55.6864 40.9801C55.6391 40.8546 55.5692 40.7327 55.4769 40.6143C55.387 40.4936 55.2638 40.3942 55.1076 40.3161C54.9513 40.2379 54.7513 40.1989 54.5075 40.1989C54.1737 40.1989 53.8955 40.2758 53.6729 40.4297C53.4528 40.5812 53.3427 40.7741 53.3427 41.0085C53.3427 41.2169 53.4184 41.3814 53.57 41.5021C53.7215 41.6229 53.9582 41.7235 54.2802 41.804L55.0898 42.0028C55.5775 42.1212 55.9409 42.3023 56.18 42.5462C56.4192 42.7876 56.5387 43.099 56.5387 43.4801C56.5387 43.7926 56.4487 44.072 56.2688 44.3182C56.0913 44.5644 55.8427 44.7585 55.5231 44.9006C55.2035 45.0426 54.8318 45.1136 54.408 45.1136C53.8517 45.1136 53.3912 44.9929 53.0266 44.7514C52.6621 44.5099 52.4312 44.1572 52.3342 43.6932L53.1296 43.4943C53.2054 43.7879 53.3486 44.008 53.5593 44.1548C53.7724 44.3016 54.0505 44.375 54.3938 44.375C54.7844 44.375 55.0946 44.2921 55.3242 44.1264C55.5562 43.9583 55.6722 43.7571 55.6722 43.5227C55.6722 43.3333 55.6059 43.1747 55.4734 43.0469C55.3408 42.9167 55.1372 42.8196 54.8626 42.7557L53.9535 42.5426C53.454 42.4242 53.087 42.2408 52.8526 41.9922C52.6206 41.7412 52.5046 41.4276 52.5046 41.0511C52.5046 40.7434 52.591 40.4711 52.7638 40.2344C52.939 39.9976 53.177 39.8118 53.4776 39.6768C53.7807 39.5419 54.1239 39.4744 54.5075 39.4744C55.0472 39.4744 55.471 39.5928 55.7788 39.8295C56.0889 40.0663 56.3091 40.3788 56.4393 40.767ZM59.0502 44.0057L58.9934 44.3892C58.9532 44.6591 58.8916 44.9479 58.8088 45.2557C58.7283 45.5634 58.6442 45.8535 58.5566 46.1257C58.469 46.398 58.3968 46.6146 58.34 46.7756H57.7008C57.7316 46.6241 57.7718 46.424 57.8216 46.1754C57.8713 45.9268 57.921 45.6487 57.9707 45.3409C58.0228 45.0355 58.0654 44.723 58.0985 44.4034L58.1412 44.0057H59.0502ZM64.6513 45L62.9893 39.5455H63.87L65.049 43.7216H65.1058L66.2706 39.5455H67.1655L68.3161 43.7074H68.3729L69.5518 39.5455H70.4325L68.7706 45H67.9467L66.7536 40.8097H66.6683L65.4751 45H64.6513ZM73.6419 45.1136C73.1163 45.1136 72.6629 44.9976 72.2818 44.7656C71.903 44.5312 71.6106 44.2045 71.4047 43.7855C71.2011 43.3641 71.0993 42.8741 71.0993 42.3153C71.0993 41.7566 71.2011 41.2642 71.4047 40.8381C71.6106 40.4096 71.8971 40.0758 72.264 39.8366C72.6333 39.5952 73.0642 39.4744 73.5566 39.4744C73.8407 39.4744 74.1213 39.5218 74.3983 39.6165C74.6752 39.7112 74.9274 39.8651 75.1547 40.0781C75.3819 40.2888 75.563 40.5682 75.698 40.9162C75.8329 41.2642 75.9004 41.6927 75.9004 42.2017V42.5568H71.6958V41.8324H75.0481C75.0481 41.5246 74.9866 41.25 74.8635 41.0085C74.7427 40.767 74.5699 40.5765 74.345 40.4368C74.1225 40.2971 73.8597 40.2273 73.5566 40.2273C73.2228 40.2273 72.934 40.3101 72.6902 40.4759C72.4487 40.6392 72.2628 40.8523 72.1326 41.1151C72.0024 41.3778 71.9373 41.6596 71.9373 41.9602V42.4432C71.9373 42.8551 72.0083 43.2043 72.1504 43.4908C72.2948 43.7749 72.4949 43.9915 72.7505 44.1406C73.0062 44.2874 73.3033 44.3608 73.6419 44.3608C73.862 44.3608 74.0609 44.33 74.2385 44.2685C74.4184 44.2045 74.5734 44.1098 74.7037 43.9844C74.8339 43.8565 74.9345 43.6979 75.0055 43.5085L75.8152 43.7358C75.7299 44.0104 75.5867 44.2519 75.3855 44.4602C75.1842 44.6662 74.9357 44.8272 74.6397 44.9432C74.3438 45.0568 74.0112 45.1136 73.6419 45.1136ZM77.2889 45V37.7273H78.127V40.4119H78.198C78.2595 40.3172 78.3448 40.1965 78.4537 40.0497C78.5649 39.9006 78.7235 39.768 78.9295 39.652C79.1378 39.5336 79.4196 39.4744 79.7747 39.4744C80.234 39.4744 80.6388 39.5893 80.9892 39.8189C81.3395 40.0485 81.613 40.3741 81.8095 40.7955C82.006 41.2169 82.1042 41.714 82.1042 42.2869C82.1042 42.8646 82.006 43.3653 81.8095 43.7891C81.613 44.2105 81.3407 44.5372 80.9927 44.7692C80.6447 44.9988 80.2434 45.1136 79.7889 45.1136C79.4385 45.1136 79.158 45.0556 78.9473 44.9396C78.7366 44.8213 78.5744 44.6875 78.4608 44.5384C78.3471 44.3868 78.2595 44.2614 78.198 44.1619H78.0985V45H77.2889ZM78.1127 42.2727C78.1127 42.6847 78.1731 43.0481 78.2939 43.3629C78.4146 43.6754 78.591 43.9205 78.823 44.098C79.055 44.2732 79.3391 44.3608 79.6752 44.3608C80.0256 44.3608 80.318 44.2685 80.5524 44.0838C80.7891 43.8968 80.9667 43.6458 81.085 43.331C81.2058 43.0137 81.2662 42.661 81.2662 42.2727C81.2662 41.8892 81.207 41.5436 81.0886 41.2358C80.9726 40.9257 80.7962 40.6806 80.5595 40.5007C80.3251 40.3184 80.0304 40.2273 79.6752 40.2273C79.3343 40.2273 79.0479 40.3137 78.8159 40.4865C78.5839 40.657 78.4087 40.8961 78.2903 41.2038C78.1719 41.5092 78.1127 41.8655 78.1127 42.2727ZM87.2498 40.767L86.497 40.9801C86.4496 40.8546 86.3798 40.7327 86.2875 40.6143C86.1975 40.4936 86.0744 40.3942 85.9181 40.3161C85.7619 40.2379 85.5618 40.1989 85.318 40.1989C84.9842 40.1989 84.706 40.2758 84.4835 40.4297C84.2633 40.5812 84.1532 40.7741 84.1532 41.0085C84.1532 41.2169 84.229 41.3814 84.3805 41.5021C84.532 41.6229 84.7688 41.7235 85.0907 41.804L85.9004 42.0028C86.3881 42.1212 86.7515 42.3023 86.9906 42.5462C87.2297 42.7876 87.3493 43.099 87.3493 43.4801C87.3493 43.7926 87.2593 44.072 87.0794 44.3182C86.9018 44.5644 86.6532 44.7585 86.3336 44.9006C86.014 45.0426 85.6423 45.1136 85.2186 45.1136C84.6622 45.1136 84.2018 44.9929 83.8372 44.7514C83.4726 44.5099 83.2418 44.1572 83.1447 43.6932L83.9402 43.4943C84.0159 43.7879 84.1592 44.008 84.3699 44.1548C84.5829 44.3016 84.8611 44.375 85.2044 44.375C85.595 44.375 85.9051 44.2921 86.1348 44.1264C86.3668 43.9583 86.4828 43.7571 86.4828 43.5227C86.4828 43.3333 86.4165 43.1747 86.2839 43.0469C86.1513 42.9167 85.9477 42.8196 85.6731 42.7557L84.764 42.5426C84.2645 42.4242 83.8975 42.2408 83.6632 41.9922C83.4312 41.7412 83.3152 41.4276 83.3152 41.0511C83.3152 40.7434 83.4016 40.4711 83.5744 40.2344C83.7496 39.9976 83.9875 39.8118 84.2882 39.6768C84.5912 39.5419 84.9345 39.4744 85.318 39.4744C85.8578 39.4744 86.2815 39.5928 86.5893 39.8295C86.8994 40.0663 87.1196 40.3788 87.2498 40.767ZM88.6108 45V39.5455H89.4489V45H88.6108ZM89.0369 38.6364C88.8736 38.6364 88.7327 38.5807 88.6143 38.4695C88.4983 38.3582 88.4403 38.2244 88.4403 38.0682C88.4403 37.9119 88.4983 37.7782 88.6143 37.6669C88.7327 37.5556 88.8736 37.5 89.0369 37.5C89.2003 37.5 89.34 37.5556 89.456 37.6669C89.5743 37.7782 89.6335 37.9119 89.6335 38.0682C89.6335 38.2244 89.5743 38.3582 89.456 38.4695C89.34 38.5807 89.2003 38.6364 89.0369 38.6364ZM93.356 39.5455V40.2557H90.5293V39.5455H93.356ZM91.3532 38.2386H92.1912V43.4375C92.1912 43.6742 92.2256 43.8518 92.2942 43.9702C92.3652 44.0862 92.4552 44.1643 92.5641 44.2045C92.6754 44.2424 92.7926 44.2614 92.9157 44.2614C93.008 44.2614 93.0837 44.2566 93.1429 44.2472C93.2021 44.2353 93.2495 44.2259 93.285 44.2188L93.4554 44.9716C93.3986 44.9929 93.3193 45.0142 93.2175 45.0355C93.1157 45.0592 92.9867 45.071 92.8304 45.071C92.5937 45.071 92.3617 45.0201 92.1344 44.9183C91.9095 44.8165 91.7225 44.6615 91.5733 44.4531C91.4266 44.2448 91.3532 43.982 91.3532 43.6648V38.2386ZM96.845 45.1136C96.3194 45.1136 95.8661 44.9976 95.4849 44.7656C95.1061 44.5312 94.8137 44.2045 94.6078 43.7855C94.4042 43.3641 94.3024 42.8741 94.3024 42.3153C94.3024 41.7566 94.4042 41.2642 94.6078 40.8381C94.8137 40.4096 95.1002 40.0758 95.4672 39.8366C95.8365 39.5952 96.2673 39.4744 96.7598 39.4744C97.0439 39.4744 97.3244 39.5218 97.6014 39.6165C97.8784 39.7112 98.1305 39.8651 98.3578 40.0781C98.585 40.2888 98.7662 40.5682 98.9011 40.9162C99.036 41.2642 99.1035 41.6927 99.1035 42.2017V42.5568H94.899V41.8324H98.2512C98.2512 41.5246 98.1897 41.25 98.0666 41.0085C97.9458 40.767 97.773 40.5765 97.5481 40.4368C97.3256 40.2971 97.0628 40.2273 96.7598 40.2273C96.426 40.2273 96.1371 40.3101 95.8933 40.4759C95.6518 40.6392 95.466 40.8523 95.3358 41.1151C95.2056 41.3778 95.1404 41.6596 95.1404 41.9602V42.4432C95.1404 42.8551 95.2115 43.2043 95.3535 43.4908C95.4979 43.7749 95.698 43.9915 95.9537 44.1406C96.2093 44.2874 96.5065 44.3608 96.845 44.3608C97.0652 44.3608 97.264 44.33 97.4416 44.2685C97.6215 44.2045 97.7766 44.1098 97.9068 43.9844C98.037 43.8565 98.1376 43.6979 98.2086 43.5085L99.0183 43.7358C98.9331 44.0104 98.7898 44.2519 98.5886 44.4602C98.3874 44.6662 98.1388 44.8272 97.8429 44.9432C97.5469 45.0568 97.2143 45.1136 96.845 45.1136ZM106.628 42.7699V39.5455H107.466V45H106.628V44.0767H106.572C106.444 44.3537 106.245 44.5893 105.975 44.7834C105.705 44.9751 105.364 45.071 104.952 45.071C104.611 45.071 104.308 44.9964 104.043 44.8473C103.778 44.6958 103.57 44.4685 103.418 44.1655C103.267 43.8601 103.191 43.4754 103.191 43.0114V39.5455H104.029V42.9545C104.029 43.3523 104.14 43.6695 104.363 43.9062C104.588 44.143 104.874 44.2614 105.222 44.2614C105.43 44.2614 105.642 44.2081 105.858 44.1016C106.076 43.995 106.258 43.8317 106.405 43.6115C106.554 43.3913 106.628 43.1108 106.628 42.7699ZM109.839 41.7188V45H109.001V39.5455H109.811V40.3977H109.882C110.01 40.1207 110.204 39.8982 110.464 39.7301C110.725 39.5597 111.061 39.4744 111.473 39.4744C111.842 39.4744 112.165 39.5502 112.442 39.7017C112.719 39.8509 112.935 40.0781 113.089 40.3835C113.243 40.6866 113.32 41.0701 113.32 41.5341V45H112.482V41.5909C112.482 41.1624 112.37 40.8286 112.148 40.5895C111.925 40.348 111.62 40.2273 111.232 40.2273C110.964 40.2273 110.725 40.2853 110.514 40.4013C110.306 40.5173 110.141 40.6866 110.021 40.9091C109.9 41.1316 109.839 41.4015 109.839 41.7188ZM116.456 45.1278C116.11 45.1278 115.797 45.0627 115.515 44.9325C115.233 44.8 115.01 44.6094 114.844 44.3608C114.678 44.1098 114.595 43.8068 114.595 43.4517C114.595 43.1392 114.657 42.8859 114.78 42.6918C114.903 42.4953 115.068 42.3414 115.274 42.2301C115.48 42.1188 115.707 42.036 115.955 41.9815C116.206 41.9247 116.459 41.8797 116.712 41.8466C117.043 41.804 117.312 41.772 117.518 41.7507C117.726 41.727 117.878 41.688 117.972 41.6335C118.07 41.5791 118.118 41.4844 118.118 41.3494V41.321C118.118 40.9706 118.022 40.6984 117.83 40.5043C117.641 40.3101 117.353 40.2131 116.968 40.2131C116.567 40.2131 116.254 40.3007 116.026 40.4759C115.799 40.651 115.639 40.8381 115.547 41.0369L114.752 40.7528C114.894 40.4214 115.083 40.1634 115.32 39.9787C115.559 39.7917 115.819 39.6615 116.101 39.5881C116.385 39.5123 116.664 39.4744 116.939 39.4744C117.114 39.4744 117.316 39.4957 117.543 39.5384C117.772 39.5786 117.994 39.6626 118.207 39.7905C118.422 39.9183 118.601 40.1113 118.743 40.3693C118.885 40.6274 118.956 40.973 118.956 41.4062V45H118.118V44.2614H118.075C118.019 44.3797 117.924 44.5064 117.791 44.6413C117.659 44.7763 117.482 44.8911 117.262 44.9858C117.042 45.0805 116.773 45.1278 116.456 45.1278ZM116.584 44.375C116.915 44.375 117.195 44.3099 117.422 44.1797C117.652 44.0495 117.825 43.8814 117.941 43.6754C118.059 43.4695 118.118 43.2528 118.118 43.0256V42.2585C118.083 42.3011 118.004 42.3402 117.884 42.3757C117.765 42.4089 117.628 42.4384 117.472 42.4645C117.318 42.4882 117.168 42.5095 117.021 42.5284C116.876 42.545 116.759 42.5592 116.669 42.571C116.451 42.5994 116.248 42.6456 116.058 42.7095C115.871 42.7711 115.72 42.8646 115.604 42.9901C115.49 43.1132 115.433 43.2812 115.433 43.4943C115.433 43.7855 115.541 44.0057 115.757 44.1548C115.974 44.3016 116.25 44.375 116.584 44.375ZM124.751 39.5455L122.734 45H121.881L119.864 39.5455H120.773L122.279 43.892H122.336L123.842 39.5455H124.751ZM127.296 45.1278C126.95 45.1278 126.637 45.0627 126.355 44.9325C126.073 44.8 125.849 44.6094 125.684 44.3608C125.518 44.1098 125.435 43.8068 125.435 43.4517C125.435 43.1392 125.497 42.8859 125.62 42.6918C125.743 42.4953 125.907 42.3414 126.113 42.2301C126.319 42.1188 126.547 42.036 126.795 41.9815C127.046 41.9247 127.298 41.8797 127.552 41.8466C127.883 41.804 128.152 41.772 128.358 41.7507C128.566 41.727 128.718 41.688 128.812 41.6335C128.909 41.5791 128.958 41.4844 128.958 41.3494V41.321C128.958 40.9706 128.862 40.6984 128.67 40.5043C128.481 40.3101 128.193 40.2131 127.807 40.2131C127.407 40.2131 127.094 40.3007 126.866 40.4759C126.639 40.651 126.479 40.8381 126.387 41.0369L125.591 40.7528C125.733 40.4214 125.923 40.1634 126.16 39.9787C126.399 39.7917 126.659 39.6615 126.941 39.5881C127.225 39.5123 127.504 39.4744 127.779 39.4744C127.954 39.4744 128.155 39.4957 128.383 39.5384C128.612 39.5786 128.834 39.6626 129.047 39.7905C129.262 39.9183 129.441 40.1113 129.583 40.3693C129.725 40.6274 129.796 40.973 129.796 41.4062V45H128.958V44.2614H128.915C128.858 44.3797 128.764 44.5064 128.631 44.6413C128.499 44.7763 128.322 44.8911 128.102 44.9858C127.882 45.0805 127.613 45.1278 127.296 45.1278ZM127.424 44.375C127.755 44.375 128.035 44.3099 128.262 44.1797C128.492 44.0495 128.664 43.8814 128.78 43.6754C128.899 43.4695 128.958 43.2528 128.958 43.0256V42.2585C128.922 42.3011 128.844 42.3402 128.724 42.3757C128.605 42.4089 128.468 42.4384 128.312 42.4645C128.158 42.4882 128.007 42.5095 127.861 42.5284C127.716 42.545 127.599 42.5592 127.509 42.571C127.291 42.5994 127.088 42.6456 126.898 42.7095C126.711 42.7711 126.56 42.8646 126.444 42.9901C126.33 43.1132 126.273 43.2812 126.273 43.4943C126.273 43.7855 126.381 44.0057 126.596 44.1548C126.814 44.3016 127.09 44.375 127.424 44.375ZM131.326 45V39.5455H132.164V45H131.326ZM131.752 38.6364C131.588 38.6364 131.448 38.5807 131.329 38.4695C131.213 38.3582 131.155 38.2244 131.155 38.0682C131.155 37.9119 131.213 37.7782 131.329 37.6669C131.448 37.5556 131.588 37.5 131.752 37.5C131.915 37.5 132.055 37.5556 132.171 37.6669C132.289 37.7782 132.348 37.9119 132.348 38.0682C132.348 38.2244 132.289 38.3582 132.171 38.4695C132.055 38.5807 131.915 38.6364 131.752 38.6364ZM134.537 37.7273V45H133.699V37.7273H134.537ZM137.677 45.1278C137.331 45.1278 137.018 45.0627 136.736 44.9325C136.454 44.8 136.23 44.6094 136.065 44.3608C135.899 44.1098 135.816 43.8068 135.816 43.4517C135.816 43.1392 135.878 42.8859 136.001 42.6918C136.124 42.4953 136.288 42.3414 136.494 42.2301C136.7 42.1188 136.928 42.036 137.176 41.9815C137.427 41.9247 137.679 41.8797 137.933 41.8466C138.264 41.804 138.533 41.772 138.739 41.7507C138.947 41.727 139.098 41.688 139.193 41.6335C139.29 41.5791 139.339 41.4844 139.339 41.3494V41.321C139.339 40.9706 139.243 40.6984 139.051 40.5043C138.862 40.3101 138.574 40.2131 138.188 40.2131C137.788 40.2131 137.474 40.3007 137.247 40.4759C137.02 40.651 136.86 40.8381 136.768 41.0369L135.972 40.7528C136.114 40.4214 136.304 40.1634 136.54 39.9787C136.78 39.7917 137.04 39.6615 137.322 39.5881C137.606 39.5123 137.885 39.4744 138.16 39.4744C138.335 39.4744 138.536 39.4957 138.763 39.5384C138.993 39.5786 139.214 39.6626 139.428 39.7905C139.643 39.9183 139.822 40.1113 139.964 40.3693C140.106 40.6274 140.177 40.973 140.177 41.4062V45H139.339V44.2614H139.296C139.239 44.3797 139.145 44.5064 139.012 44.6413C138.879 44.7763 138.703 44.8911 138.483 44.9858C138.263 45.0805 137.994 45.1278 137.677 45.1278ZM137.805 44.375C138.136 44.375 138.415 44.3099 138.643 44.1797C138.872 44.0495 139.045 43.8814 139.161 43.6754C139.28 43.4695 139.339 43.2528 139.339 43.0256V42.2585C139.303 42.3011 139.225 42.3402 139.104 42.3757C138.986 42.4089 138.849 42.4384 138.692 42.4645C138.539 42.4882 138.388 42.5095 138.241 42.5284C138.097 42.545 137.98 42.5592 137.89 42.571C137.672 42.5994 137.469 42.6456 137.279 42.7095C137.092 42.7711 136.941 42.8646 136.825 42.9901C136.711 43.1132 136.654 43.2812 136.654 43.4943C136.654 43.7855 136.762 44.0057 136.977 44.1548C137.195 44.3016 137.471 44.375 137.805 44.375ZM141.82 45V37.7273H142.658V40.4119H142.729C142.791 40.3172 142.876 40.1965 142.985 40.0497C143.096 39.9006 143.255 39.768 143.461 39.652C143.669 39.5336 143.951 39.4744 144.306 39.4744C144.765 39.4744 145.17 39.5893 145.52 39.8189C145.871 40.0485 146.144 40.3741 146.341 40.7955C146.537 41.2169 146.635 41.714 146.635 42.2869C146.635 42.8646 146.537 43.3653 146.341 43.7891C146.144 44.2105 145.872 44.5372 145.524 44.7692C145.176 44.9988 144.775 45.1136 144.32 45.1136C143.97 45.1136 143.689 45.0556 143.479 44.9396C143.268 44.8213 143.106 44.6875 142.992 44.5384C142.878 44.3868 142.791 44.2614 142.729 44.1619H142.63V45H141.82ZM142.644 42.2727C142.644 42.6847 142.704 43.0481 142.825 43.3629C142.946 43.6754 143.122 43.9205 143.354 44.098C143.586 44.2732 143.87 44.3608 144.206 44.3608C144.557 44.3608 144.849 44.2685 145.084 44.0838C145.32 43.8968 145.498 43.6458 145.616 43.331C145.737 43.0137 145.797 42.661 145.797 42.2727C145.797 41.8892 145.738 41.5436 145.62 41.2358C145.504 40.9257 145.327 40.6806 145.091 40.5007C144.856 40.3184 144.562 40.2273 144.206 40.2273C143.866 40.2273 143.579 40.3137 143.347 40.4865C143.115 40.657 142.94 40.8961 142.822 41.2038C142.703 41.5092 142.644 41.8655 142.644 42.2727ZM148.756 37.7273V45H147.917V37.7273H148.756ZM152.577 45.1136C152.052 45.1136 151.598 44.9976 151.217 44.7656C150.839 44.5312 150.546 44.2045 150.34 43.7855C150.137 43.3641 150.035 42.8741 150.035 42.3153C150.035 41.7566 150.137 41.2642 150.34 40.8381C150.546 40.4096 150.833 40.0758 151.2 39.8366C151.569 39.5952 152 39.4744 152.492 39.4744C152.776 39.4744 153.057 39.5218 153.334 39.6165C153.611 39.7112 153.863 39.8651 154.09 40.0781C154.317 40.2888 154.499 40.5682 154.634 40.9162C154.768 41.2642 154.836 41.6927 154.836 42.2017V42.5568H150.631V41.8324H153.984C153.984 41.5246 153.922 41.25 153.799 41.0085C153.678 40.767 153.505 40.5765 153.281 40.4368C153.058 40.2971 152.795 40.2273 152.492 40.2273C152.158 40.2273 151.87 40.3101 151.626 40.4759C151.384 40.6392 151.198 40.8523 151.068 41.1151C150.938 41.3778 150.873 41.6596 150.873 41.9602V42.4432C150.873 42.8551 150.944 43.2043 151.086 43.4908C151.23 43.7749 151.43 43.9915 151.686 44.1406C151.942 44.2874 152.239 44.3608 152.577 44.3608C152.798 44.3608 152.996 44.33 153.174 44.2685C153.354 44.2045 153.509 44.1098 153.639 43.9844C153.769 43.8565 153.87 43.6979 153.941 43.5085L154.751 43.7358C154.665 44.0104 154.522 44.2519 154.321 44.4602C154.12 44.6662 153.871 44.8272 153.575 44.9432C153.279 45.0568 152.947 45.1136 152.577 45.1136ZM158.923 45V39.5455H159.761V45H158.923ZM159.349 38.6364C159.186 38.6364 159.045 38.5807 158.927 38.4695C158.811 38.3582 158.753 38.2244 158.753 38.0682C158.753 37.9119 158.811 37.7782 158.927 37.6669C159.045 37.5556 159.186 37.5 159.349 37.5C159.513 37.5 159.652 37.5556 159.768 37.6669C159.887 37.7782 159.946 37.9119 159.946 38.0682C159.946 38.2244 159.887 38.3582 159.768 38.4695C159.652 38.5807 159.513 38.6364 159.349 38.6364ZM162.134 41.7188V45H161.296V39.5455H162.106V40.3977H162.177C162.305 40.1207 162.499 39.8982 162.759 39.7301C163.02 39.5597 163.356 39.4744 163.768 39.4744C164.137 39.4744 164.46 39.5502 164.737 39.7017C165.014 39.8509 165.23 40.0781 165.384 40.3835C165.538 40.6866 165.615 41.0701 165.615 41.5341V45H164.776V41.5909C164.776 41.1624 164.665 40.8286 164.443 40.5895C164.22 40.348 163.915 40.2273 163.526 40.2273C163.259 40.2273 163.02 40.2853 162.809 40.4013C162.601 40.5173 162.436 40.6866 162.316 40.9091C162.195 41.1316 162.134 41.4015 162.134 41.7188ZM174.845 37.7273H175.725V42.5426C175.725 43.0398 175.608 43.4837 175.374 43.8743C175.142 44.2625 174.814 44.5691 174.39 44.794C173.967 45.0166 173.469 45.1278 172.899 45.1278C172.328 45.1278 171.831 45.0166 171.407 44.794C170.984 44.5691 170.654 44.2625 170.42 43.8743C170.188 43.4837 170.072 43.0398 170.072 42.5426V37.7273H170.953V42.4716C170.953 42.8267 171.031 43.1428 171.187 43.4197C171.343 43.6944 171.566 43.911 171.855 44.0696C172.146 44.2259 172.494 44.304 172.899 44.304C173.304 44.304 173.652 44.2259 173.943 44.0696C174.234 43.911 174.457 43.6944 174.61 43.4197C174.767 43.1428 174.845 42.8267 174.845 42.4716V37.7273ZM181.461 39.5455C181.419 39.1856 181.246 38.9062 180.943 38.7074C180.64 38.5085 180.268 38.4091 179.828 38.4091C179.506 38.4091 179.224 38.4612 178.983 38.5653C178.744 38.6695 178.557 38.8127 178.422 38.995C178.289 39.1773 178.223 39.3845 178.223 39.6165C178.223 39.8106 178.269 39.9775 178.361 40.1172C178.456 40.2545 178.577 40.3693 178.724 40.4616C178.87 40.5516 179.024 40.6262 179.185 40.6854C179.346 40.7422 179.494 40.7884 179.629 40.8239L180.368 41.0227C180.557 41.0724 180.768 41.1411 181 41.2287C181.234 41.3163 181.458 41.4358 181.671 41.5874C181.886 41.7365 182.064 41.9283 182.204 42.1626C182.343 42.397 182.413 42.6847 182.413 43.0256C182.413 43.4186 182.31 43.7737 182.104 44.0909C181.901 44.4081 181.602 44.6603 181.209 44.8473C180.819 45.0343 180.344 45.1278 179.785 45.1278C179.265 45.1278 178.814 45.0438 178.432 44.8757C178.054 44.7076 177.755 44.4732 177.537 44.1726C177.322 43.8719 177.2 43.5227 177.172 43.125H178.081C178.104 43.3996 178.197 43.6269 178.358 43.8068C178.521 43.9844 178.727 44.117 178.976 44.2045C179.227 44.2898 179.497 44.3324 179.785 44.3324C180.122 44.3324 180.423 44.2779 180.691 44.169C180.958 44.0578 181.17 43.9039 181.327 43.7074C181.483 43.5085 181.561 43.2765 181.561 43.0114C181.561 42.7699 181.493 42.5734 181.358 42.4219C181.224 42.2704 181.046 42.1473 180.826 42.0526C180.606 41.9579 180.368 41.875 180.112 41.804L179.217 41.5483C178.649 41.3849 178.199 41.1518 177.868 40.8487C177.536 40.5457 177.371 40.1491 177.371 39.6591C177.371 39.2519 177.481 38.8968 177.701 38.5938C177.923 38.2884 178.222 38.0516 178.596 37.8835C178.972 37.7131 179.392 37.6278 179.856 37.6278C180.325 37.6278 180.742 37.7119 181.106 37.88C181.471 38.0457 181.76 38.273 181.973 38.5618C182.188 38.8506 182.302 39.1785 182.314 39.5455H181.461ZM184.159 45H183.236L185.907 37.7273H186.816L189.486 45H188.563L186.39 38.8778H186.333L184.159 45ZM184.5 42.1591H188.222V42.9403H184.5V42.1591ZM191.755 44.0057L191.699 44.3892C191.658 44.6591 191.597 44.9479 191.514 45.2557C191.433 45.5634 191.349 45.8535 191.262 46.1257C191.174 46.398 191.102 46.6146 191.045 46.7756H190.406C190.437 46.6241 190.477 46.424 190.527 46.1754C190.576 45.9268 190.626 45.6487 190.676 45.3409C190.728 45.0355 190.77 44.723 190.804 44.4034L190.846 44.0057H191.755ZM202.086 40H201.206C201.154 39.7467 201.063 39.5241 200.932 39.3324C200.805 39.1406 200.648 38.9796 200.464 38.8494C200.281 38.7169 200.079 38.6174 199.856 38.5511C199.634 38.4848 199.402 38.4517 199.16 38.4517C198.72 38.4517 198.321 38.563 197.964 38.7855C197.608 39.008 197.326 39.3359 197.115 39.7692C196.907 40.2024 196.802 40.7339 196.802 41.3636C196.802 41.9934 196.907 42.5249 197.115 42.9581C197.326 43.3913 197.608 43.7192 197.964 43.9418C198.321 44.1643 198.72 44.2756 199.16 44.2756C199.402 44.2756 199.634 44.2424 199.856 44.1761C200.079 44.1098 200.281 44.0116 200.464 43.8814C200.648 43.7488 200.805 43.5866 200.932 43.3949C201.063 43.2008 201.154 42.9782 201.206 42.7273H202.086C202.02 43.099 201.899 43.4316 201.724 43.7251C201.549 44.0187 201.331 44.2685 201.071 44.4744C200.81 44.678 200.518 44.8331 200.194 44.9396C199.872 45.0462 199.527 45.0994 199.16 45.0994C198.54 45.0994 197.988 44.9479 197.506 44.6449C197.023 44.3419 196.643 43.911 196.366 43.3523C196.089 42.7936 195.95 42.1307 195.95 41.3636C195.95 40.5966 196.089 39.9337 196.366 39.375C196.643 38.8163 197.023 38.3854 197.506 38.0824C197.988 37.7794 198.54 37.6278 199.16 37.6278C199.527 37.6278 199.872 37.6811 200.194 37.7876C200.518 37.8942 200.81 38.0504 201.071 38.2564C201.331 38.46 201.549 38.7086 201.724 39.0021C201.899 39.2933 202.02 39.6259 202.086 40ZM204.234 41.7188V45H203.396V37.7273H204.234V40.3977H204.305C204.433 40.116 204.625 39.8923 204.88 39.7266C205.138 39.5585 205.482 39.4744 205.91 39.4744C206.282 39.4744 206.607 39.549 206.887 39.6982C207.166 39.8449 207.383 40.071 207.537 40.3764C207.693 40.6795 207.771 41.0653 207.771 41.5341V45H206.933V41.5909C206.933 41.1577 206.82 40.8227 206.596 40.5859C206.373 40.3468 206.064 40.2273 205.669 40.2273C205.394 40.2273 205.148 40.2853 204.93 40.4013C204.715 40.5173 204.544 40.6866 204.419 40.9091C204.296 41.1316 204.234 41.4015 204.234 41.7188ZM209.304 45V39.5455H210.142V45H209.304ZM209.73 38.6364C209.567 38.6364 209.426 38.5807 209.308 38.4695C209.192 38.3582 209.134 38.2244 209.134 38.0682C209.134 37.9119 209.192 37.7782 209.308 37.6669C209.426 37.5556 209.567 37.5 209.73 37.5C209.894 37.5 210.033 37.5556 210.149 37.6669C210.268 37.7782 210.327 37.9119 210.327 38.0682C210.327 38.2244 210.268 38.3582 210.149 38.4695C210.033 38.5807 209.894 38.6364 209.73 38.6364ZM213.893 45.1136C213.382 45.1136 212.941 44.9929 212.572 44.7514C212.203 44.5099 211.919 44.1773 211.72 43.7536C211.521 43.3298 211.422 42.8456 211.422 42.3011C211.422 41.7472 211.523 41.2583 211.727 40.8345C211.933 40.4084 212.219 40.0758 212.586 39.8366C212.956 39.5952 213.386 39.4744 213.879 39.4744C214.262 39.4744 214.608 39.5455 214.916 39.6875C215.224 39.8295 215.476 40.0284 215.672 40.2841C215.869 40.5398 215.991 40.8381 216.038 41.179H215.2C215.136 40.9304 214.994 40.7102 214.774 40.5185C214.556 40.3243 214.262 40.2273 213.893 40.2273C213.566 40.2273 213.28 40.3125 213.034 40.483C212.79 40.651 212.599 40.889 212.462 41.1967C212.327 41.5021 212.26 41.8608 212.26 42.2727C212.26 42.6941 212.326 43.0611 212.458 43.3736C212.593 43.6861 212.783 43.9287 213.027 44.1016C213.273 44.2744 213.562 44.3608 213.893 44.3608C214.111 44.3608 214.309 44.3229 214.486 44.2472C214.664 44.1714 214.814 44.0625 214.937 43.9205C215.06 43.7784 215.148 43.608 215.2 43.4091H216.038C215.991 43.7311 215.873 44.0211 215.686 44.2791C215.502 44.5348 215.257 44.7384 214.951 44.8899C214.648 45.0391 214.296 45.1136 213.893 45.1136ZM218.868 45.1278C218.523 45.1278 218.209 45.0627 217.927 44.9325C217.645 44.8 217.422 44.6094 217.256 44.3608C217.09 44.1098 217.007 43.8068 217.007 43.4517C217.007 43.1392 217.069 42.8859 217.192 42.6918C217.315 42.4953 217.48 42.3414 217.686 42.2301C217.892 42.1188 218.119 42.036 218.368 41.9815C218.618 41.9247 218.871 41.8797 219.124 41.8466C219.455 41.804 219.724 41.772 219.93 41.7507C220.138 41.727 220.29 41.688 220.385 41.6335C220.482 41.5791 220.53 41.4844 220.53 41.3494V41.321C220.53 40.9706 220.434 40.6984 220.243 40.5043C220.053 40.3101 219.766 40.2131 219.38 40.2131C218.98 40.2131 218.666 40.3007 218.439 40.4759C218.211 40.651 218.051 40.8381 217.959 41.0369L217.164 40.7528C217.306 40.4214 217.495 40.1634 217.732 39.9787C217.971 39.7917 218.231 39.6615 218.513 39.5881C218.797 39.5123 219.077 39.4744 219.351 39.4744C219.526 39.4744 219.728 39.4957 219.955 39.5384C220.185 39.5786 220.406 39.6626 220.619 39.7905C220.834 39.9183 221.013 40.1113 221.155 40.3693C221.297 40.6274 221.368 40.973 221.368 41.4062V45H220.53V44.2614H220.488C220.431 44.3797 220.336 44.5064 220.203 44.6413C220.071 44.7763 219.895 44.8911 219.674 44.9858C219.454 45.0805 219.185 45.1278 218.868 45.1278ZM218.996 44.375C219.328 44.375 219.607 44.3099 219.834 44.1797C220.064 44.0495 220.237 43.8814 220.353 43.6754C220.471 43.4695 220.53 43.2528 220.53 43.0256V42.2585C220.495 42.3011 220.417 42.3402 220.296 42.3757C220.177 42.4089 220.04 42.4384 219.884 42.4645C219.73 42.4882 219.58 42.5095 219.433 42.5284C219.288 42.545 219.171 42.5592 219.081 42.571C218.864 42.5994 218.66 42.6456 218.471 42.7095C218.283 42.7711 218.132 42.8646 218.016 42.9901C217.902 43.1132 217.846 43.2812 217.846 43.4943C217.846 43.7855 217.953 44.0057 218.169 44.1548C218.386 44.3016 218.662 44.375 218.996 44.375ZM225.1 47.1591C224.695 47.1591 224.347 47.107 224.056 47.0028C223.764 46.901 223.522 46.7661 223.328 46.598C223.136 46.4323 222.983 46.2547 222.869 46.0653L223.537 45.5966C223.613 45.696 223.709 45.8097 223.825 45.9375C223.941 46.0677 224.099 46.1802 224.301 46.2749C224.504 46.3719 224.771 46.4205 225.1 46.4205C225.54 46.4205 225.903 46.3139 226.19 46.1009C226.476 45.8878 226.619 45.554 226.619 45.0994V43.9915H226.548C226.487 44.0909 226.399 44.214 226.286 44.3608C226.174 44.5052 226.013 44.6342 225.803 44.7479C225.594 44.8591 225.313 44.9148 224.958 44.9148C224.517 44.9148 224.122 44.8106 223.771 44.6023C223.423 44.3939 223.148 44.0909 222.944 43.6932C222.743 43.2955 222.642 42.8125 222.642 42.2443C222.642 41.6856 222.74 41.1991 222.937 40.7848C223.133 40.3681 223.407 40.0462 223.757 39.8189C224.108 39.5893 224.512 39.4744 224.972 39.4744C225.327 39.4744 225.609 39.5336 225.817 39.652C226.028 39.768 226.189 39.9006 226.3 40.0497C226.414 40.1965 226.501 40.3172 226.563 40.4119H226.648V39.5455H227.458V45.1562C227.458 45.625 227.351 46.0062 227.138 46.2997C226.927 46.5956 226.643 46.8123 226.286 46.9496C225.931 47.0893 225.535 47.1591 225.1 47.1591ZM225.071 44.1619C225.407 44.1619 225.691 44.085 225.923 43.9311C226.155 43.7772 226.332 43.5559 226.453 43.267C226.573 42.9782 226.634 42.6326 226.634 42.2301C226.634 41.8371 226.575 41.4903 226.456 41.1896C226.338 40.889 226.163 40.6534 225.931 40.483C225.699 40.3125 225.412 40.2273 225.071 40.2273C224.716 40.2273 224.42 40.3172 224.183 40.4972C223.949 40.6771 223.773 40.9186 223.654 41.2216C223.538 41.5246 223.48 41.8608 223.48 42.2301C223.48 42.6089 223.539 42.9439 223.658 43.2351C223.779 43.5239 223.956 43.7512 224.191 43.9169C224.427 44.0803 224.721 44.1619 225.071 44.1619ZM231.208 45.1136C230.715 45.1136 230.283 44.9964 229.911 44.7621C229.542 44.5277 229.253 44.1998 229.045 43.7784C228.839 43.357 228.736 42.8646 228.736 42.3011C228.736 41.733 228.839 41.237 229.045 40.8132C229.253 40.3894 229.542 40.0604 229.911 39.826C230.283 39.5916 230.715 39.4744 231.208 39.4744C231.7 39.4744 232.131 39.5916 232.5 39.826C232.872 40.0604 233.161 40.3894 233.367 40.8132C233.575 41.237 233.679 41.733 233.679 42.3011C233.679 42.8646 233.575 43.357 233.367 43.7784C233.161 44.1998 232.872 44.5277 232.5 44.7621C232.131 44.9964 231.7 45.1136 231.208 45.1136ZM231.208 44.3608C231.582 44.3608 231.889 44.2649 232.131 44.0732C232.372 43.8814 232.551 43.6293 232.667 43.3168C232.783 43.0043 232.841 42.6657 232.841 42.3011C232.841 41.9366 232.783 41.5968 232.667 41.282C232.551 40.9671 232.372 40.7126 232.131 40.5185C231.889 40.3243 231.582 40.2273 231.208 40.2273C230.834 40.2273 230.526 40.3243 230.284 40.5185C230.043 40.7126 229.864 40.9671 229.748 41.282C229.632 41.5968 229.574 41.9366 229.574 42.3011C229.574 42.6657 229.632 43.0043 229.748 43.3168C229.864 43.6293 230.043 43.8814 230.284 44.0732C230.526 44.2649 230.834 44.3608 231.208 44.3608ZM235.569 45.0568C235.394 45.0568 235.244 44.9941 235.118 44.8686C234.993 44.7431 234.93 44.5928 234.93 44.4176C234.93 44.2424 234.993 44.0921 235.118 43.9666C235.244 43.8411 235.394 43.7784 235.569 43.7784C235.744 43.7784 235.895 43.8411 236.02 43.9666C236.146 44.0921 236.208 44.2424 236.208 44.4176C236.208 44.5336 236.179 44.6402 236.12 44.7372C236.063 44.8343 235.986 44.9124 235.889 44.9716C235.794 45.0284 235.688 45.0568 235.569 45.0568ZM240.638 45V37.7273H241.519V44.2188H244.9V45H240.638ZM248.437 45.1136C247.911 45.1136 247.458 44.9976 247.077 44.7656C246.698 44.5312 246.406 44.2045 246.2 43.7855C245.996 43.3641 245.894 42.8741 245.894 42.3153C245.894 41.7566 245.996 41.2642 246.2 40.8381C246.406 40.4096 246.692 40.0758 247.059 39.8366C247.428 39.5952 247.859 39.4744 248.352 39.4744C248.636 39.4744 248.916 39.5218 249.193 39.6165C249.47 39.7112 249.722 39.8651 249.95 40.0781C250.177 40.2888 250.358 40.5682 250.493 40.9162C250.628 41.2642 250.695 41.6927 250.695 42.2017V42.5568H246.491V41.8324H249.843C249.843 41.5246 249.781 41.25 249.658 41.0085C249.538 40.767 249.365 40.5765 249.14 40.4368C248.917 40.2971 248.655 40.2273 248.352 40.2273C248.018 40.2273 247.729 40.3101 247.485 40.4759C247.244 40.6392 247.058 40.8523 246.928 41.1151C246.797 41.3778 246.732 41.6596 246.732 41.9602V42.4432C246.732 42.8551 246.803 43.2043 246.945 43.4908C247.09 43.7749 247.29 43.9915 247.545 44.1406C247.801 44.2874 248.098 44.3608 248.437 44.3608C248.657 44.3608 248.856 44.33 249.033 44.2685C249.213 44.2045 249.368 44.1098 249.499 43.9844C249.629 43.8565 249.729 43.6979 249.8 43.5085L250.61 43.7358C250.525 44.0104 250.382 44.2519 250.18 44.4602C249.979 44.6662 249.731 44.8272 249.435 44.9432C249.139 45.0568 248.806 45.1136 248.437 45.1136ZM254.342 39.5455V40.2557H251.516V39.5455H254.342ZM252.339 38.2386H253.178V43.4375C253.178 43.6742 253.212 43.8518 253.281 43.9702C253.352 44.0862 253.442 44.1643 253.55 44.2045C253.662 44.2424 253.779 44.2614 253.902 44.2614C253.994 44.2614 254.07 44.2566 254.129 44.2472C254.188 44.2353 254.236 44.2259 254.271 44.2188L254.442 44.9716C254.385 44.9929 254.306 45.0142 254.204 45.0355C254.102 45.0592 253.973 45.071 253.817 45.071C253.58 45.071 253.348 45.0201 253.121 44.9183C252.896 44.8165 252.709 44.6615 252.56 44.4531C252.413 44.2448 252.339 43.982 252.339 43.6648V38.2386ZM256.625 37.7273V38.3665C256.625 38.5606 256.589 38.7678 256.518 38.9879C256.45 39.2057 256.348 39.4176 256.213 39.6236C256.08 39.8272 255.919 40.0047 255.73 40.1562L255.275 39.7869C255.425 39.5739 255.554 39.3525 255.662 39.1229C255.774 38.8909 255.829 38.6435 255.829 38.3807V37.7273H256.625ZM260.824 40.767L260.071 40.9801C260.024 40.8546 259.954 40.7327 259.862 40.6143C259.772 40.4936 259.649 40.3942 259.492 40.3161C259.336 40.2379 259.136 40.1989 258.892 40.1989C258.558 40.1989 258.28 40.2758 258.058 40.4297C257.838 40.5812 257.727 40.7741 257.727 41.0085C257.727 41.2169 257.803 41.3814 257.955 41.5021C258.106 41.6229 258.343 41.7235 258.665 41.804L259.475 42.0028C259.962 42.1212 260.326 42.3023 260.565 42.5462C260.804 42.7876 260.923 43.099 260.923 43.4801C260.923 43.7926 260.834 44.072 260.654 44.3182C260.476 44.5644 260.227 44.7585 259.908 44.9006C259.588 45.0426 259.217 45.1136 258.793 45.1136C258.236 45.1136 257.776 44.9929 257.411 44.7514C257.047 44.5099 256.816 44.1572 256.719 43.6932L257.514 43.4943C257.59 43.7879 257.733 44.008 257.944 44.1548C258.157 44.3016 258.435 44.375 258.779 44.375C259.169 44.375 259.479 44.2921 259.709 44.1264C259.941 43.9583 260.057 43.7571 260.057 43.5227C260.057 43.3333 259.991 43.1747 259.858 43.0469C259.726 42.9167 259.522 42.8196 259.247 42.7557L258.338 42.5426C257.839 42.4242 257.472 42.2408 257.237 41.9922C257.005 41.7412 256.889 41.4276 256.889 41.0511C256.889 40.7434 256.976 40.4711 257.149 40.2344C257.324 39.9976 257.562 39.8118 257.862 39.6768C258.165 39.5419 258.509 39.4744 258.892 39.4744C259.432 39.4744 259.856 39.5928 260.164 39.8295C260.474 40.0663 260.694 40.3788 260.824 40.767ZM267.426 39.5455V40.2557H264.486V39.5455H267.426ZM265.367 45V38.7926C265.367 38.4801 265.44 38.2197 265.587 38.0114C265.734 37.803 265.924 37.6468 266.159 37.5426C266.393 37.4384 266.641 37.3864 266.901 37.3864C267.107 37.3864 267.275 37.4029 267.405 37.4361C267.535 37.4692 267.632 37.5 267.696 37.5284L267.455 38.2528C267.412 38.2386 267.353 38.2209 267.277 38.1996C267.204 38.1783 267.107 38.1676 266.986 38.1676C266.709 38.1676 266.509 38.2375 266.386 38.3771C266.265 38.5168 266.205 38.7216 266.205 38.9915V45H265.367ZM268.601 45V39.5455H269.439V45H268.601ZM269.027 38.6364C268.864 38.6364 268.723 38.5807 268.605 38.4695C268.489 38.3582 268.431 38.2244 268.431 38.0682C268.431 37.9119 268.489 37.7782 268.605 37.6669C268.723 37.5556 268.864 37.5 269.027 37.5C269.191 37.5 269.33 37.5556 269.446 37.6669C269.565 37.7782 269.624 37.9119 269.624 38.0682C269.624 38.2244 269.565 38.3582 269.446 38.4695C269.33 38.5807 269.191 38.6364 269.027 38.6364ZM271.599 39.5455L272.906 41.7756L274.213 39.5455H275.179L273.417 42.2727L275.179 45H274.213L272.906 42.8835L271.599 45H270.633L272.366 42.2727L270.633 39.5455H271.599ZM277.482 37.7273L277.411 42.9545H276.588L276.517 37.7273H277.482ZM276.999 45.0568C276.824 45.0568 276.674 44.9941 276.548 44.8686C276.423 44.7431 276.36 44.5928 276.36 44.4176C276.36 44.2424 276.423 44.0921 276.548 43.9666C276.674 43.8411 276.824 43.7784 276.999 43.7784C277.175 43.7784 277.325 43.8411 277.45 43.9666C277.576 44.0921 277.639 44.2424 277.639 44.4176C277.639 44.5336 277.609 44.6402 277.55 44.7372C277.493 44.8343 277.416 44.9124 277.319 44.9716C277.224 45.0284 277.118 45.0568 276.999 45.0568Z" fill="black"/>
<path d="M25 35H16C14.8954 35 14 35.8954 14 37V46C14 47.1046 14.8954 48 16 48H25C26.1046 48 27 47.1046 27 46V37C27 35.8954 26.1046 35 25 35Z" fill="#DF484A"/>
</g>
<defs>
<filter id="filter0_d_339_654" x="0" y="0" width="323" height="66" filterUnits="userSpaceOnUse" color-interpolation-filters="sRGB">
<feFlood flood-opacity="0" result="BackgroundImageFix"/>
<feColorMatrix in="SourceAlpha" type="matrix" values="0 0 0 0 0 0 0 0 0 0 0 0 0 0 0 0 0 0 127 0" result="hardAlpha"/>
<feOffset dy="4"/>
<feGaussianBlur stdDeviation="2"/>
<feComposite in2="hardAlpha" operator="out"/>
<feColorMatrix type="matrix" values="0 0 0 0 0 0 0 0 0 0 0 0 0 0 0 0 0 0 0.25 0"/>
<feBlend mode="normal" in2="BackgroundImageFix" result="effect1_dropShadow_339_654"/>
<feBlend mode="normal" in="SourceGraphic" in2="effect1_dropShadow_339_654" result="shape"/>
</filter>
<clipPath id="clip0_339_654">
<rect width="15" height="15" fill="white" transform="translate(13 10)"/>
</clipPath>
</defs>
</svg>
